<ttFont>
<head>
    <!-- Most of this table will be recalculated by the compiler ->
    <tableVersion value="1.0"/>
    <fontRevision value="1.0"/>
    <checkSumAdjustment value="0x3a0634b9"/>
    <magicNumber value="0x5f0f3cf5"/>
    <flags value="00000000 00001011"/>
    <unitsPerEm value="1024"/>
    <created value="Fri Dec  9 13:11:13 2022"/>
    <modified value="Fri Dec  9 13:11:13 2022"/>
    <xMin value="-16"/>
    <yMin value="-72"/>
    <xMax value="4665"/>
    <yMax value="968"/>
    <macStyle value="00000000 00000000"/>
    <lowestRecPPEM value="8"/>
    <fontDirectionHint value="2"/>
    <indexToLocFormat value="0"/>
    <glyphDataFormat value="0"/>
  </head>
    <TTGlyph name="space" xMin="0" yMin="0" xMax="0" yMax="0">
      <contour>
        <pt x="0" y="0" on="1"/>
        <pt x="0" y="0" on="1"/>
        <pt x="0" y="0" on="1"/>
      </contour>
    </TTGlyph>
    <TTGlyph name="uni0000" xMin="0" yMin="0" xMax="0" yMax="0">
      <contour>
        <pt x="0" y="0" on="1"/>
        <pt x="0" y="0" on="1"/>
        <pt x="0" y="0" on="1"/>
      </contour>
    </TTGlyph>
    <TTGlyph name="uni0001" xMin="0" yMin="0" xMax="0" yMax="0">
      <contour>
        <pt x="0" y="0" on="1"/>
        <pt x="0" y="0" on="1"/>
        <pt x="0" y="0" on="1"/>
      </contour>
    </TTGlyph>
    <TTGlyph name="uniE900" xMin="299" yMin="149" xMax="768" yMax="747">
      <contour>
        <pt x="299" y="747" on="1"/>
        <pt x="299" y="149" on="1"/>
        <pt x="768" y="448" on="1"/>
      </contour>
    </TTGlyph>
    <TTGlyph name="uniE901" xMin="0" yMin="-64" xMax="1024" yMax="960">
      <contour>
        <pt x="469" y="508" on="1"/>
        <pt x="469" y="388" on="1"/>
        <pt x="563" y="448" on="1"/>
      </contour>
      <contour>
        <pt x="512" y="-64" on="1"/>
        <pt x="618" y="-64" on="0"/>
        <pt x="711" y="-24" on="1"/>
        <pt x="805" y="16" on="0"/>
        <pt x="944" y="155" on="0"/>
        <pt x="984" y="249" on="1"/>
        <pt x="1024" y="342" on="0"/>
        <pt x="1024" y="448" on="1"/>
        <pt x="1024" y="554" on="0"/>
        <pt x="984" y="647" on="1"/>
        <pt x="944" y="741" on="0"/>
        <pt x="805" y="880" on="0"/>
        <pt x="711" y="920" on="1"/>
        <pt x="618" y="960" on="0"/>
        <pt x="512" y="960" on="1"/>
        <pt x="406" y="960" on="0"/>
        <pt x="313" y="920" on="1"/>
        <pt x="219" y="880" on="0"/>
        <pt x="80" y="741" on="0"/>
        <pt x="40" y="647" on="1"/>
        <pt x="0" y="554" on="0"/>
        <pt x="0" y="448" on="1"/>
        <pt x="0" y="342" on="0"/>
        <pt x="40" y="249" on="1"/>
        <pt x="80" y="155" on="0"/>
        <pt x="219" y="16" on="0"/>
        <pt x="313" y="-24" on="1"/>
        <pt x="406" y="-64" on="0"/>
      </contour>
      <contour>
        <pt x="512" y="-47" on="1"/>
        <pt x="409" y="-47" on="0"/>
        <pt x="319" y="-8" on="1"/>
        <pt x="229" y="31" on="0"/>
        <pt x="95" y="165" on="0"/>
        <pt x="56" y="255" on="1"/>
        <pt x="17" y="345" on="0"/>
        <pt x="17" y="448" on="1"/>
        <pt x="17" y="551" on="0"/>
        <pt x="56" y="641" on="1"/>
        <pt x="95" y="731" on="0"/>
        <pt x="229" y="865" on="0"/>
        <pt x="319" y="904" on="1"/>
        <pt x="409" y="943" on="0"/>
        <pt x="512" y="943" on="1"/>
        <pt x="615" y="943" on="0"/>
        <pt x="705" y="904" on="1"/>
        <pt x="795" y="865" on="0"/>
        <pt x="929" y="731" on="0"/>
        <pt x="968" y="641" on="1"/>
        <pt x="1007" y="551" on="0"/>
        <pt x="1007" y="448" on="1"/>
        <pt x="1007" y="345" on="0"/>
        <pt x="968" y="255" on="1"/>
        <pt x="929" y="165" on="0"/>
        <pt x="795" y="31" on="0"/>
        <pt x="705" y="-8" on="1"/>
        <pt x="615" y="-47" on="0"/>
      </contour>
    </TTGlyph>
    <TTGlyph name="uniE902" xMin="0" yMin="-64" xMax="1024" yMax="960">
      <contour>
        <pt x="512" y="960" on="1"/>
        <pt x="406" y="960" on="0"/>
        <pt x="312" y="920" on="1"/>
        <pt x="219" y="880" on="0"/>
        <pt x="80" y="741" on="0"/>
        <pt x="40" y="648" on="1"/>
        <pt x="0" y="554" on="0"/>
        <pt x="0" y="448" on="1"/>
        <pt x="0" y="342" on="0"/>
        <pt x="40" y="248" on="1"/>
        <pt x="80" y="155" on="0"/>
        <pt x="219" y="16" on="0"/>
        <pt x="312" y="-24" on="1"/>
        <pt x="406" y="-64" on="0"/>
        <pt x="512" y="-64" on="1"/>
        <pt x="618" y="-64" on="0"/>
        <pt x="712" y="-24" on="1"/>
        <pt x="805" y="16" on="0"/>
        <pt x="944" y="155" on="0"/>
        <pt x="984" y="248" on="1"/>
        <pt x="1024" y="342" on="0"/>
        <pt x="1024" y="448" on="1"/>
        <pt x="1024" y="554" on="0"/>
        <pt x="984" y="648" on="1"/>
        <pt x="944" y="741" on="0"/>
        <pt x="805" y="880" on="0"/>
        <pt x="712" y="920" on="1"/>
        <pt x="618" y="960" on="0"/>
      </contour>
      <contour>
        <pt x="680" y="313" on="1"/>
        <pt x="645" y="278" on="1"/>
        <pt x="524" y="401" on="1"/>
        <pt x="403" y="280" on="1"/>
        <pt x="368" y="315" on="1"/>
        <pt x="489" y="436" on="1"/>
        <pt x="368" y="555" on="1"/>
        <pt x="403" y="590" on="1"/>
        <pt x="524" y="469" on="1"/>
        <pt x="647" y="592" on="1"/>
        <pt x="682" y="557" on="1"/>
        <pt x="559" y="434" on="1"/>
      </contour>
    </TTGlyph>
    <TTGlyph name="uniE903" xMin="256" yMin="-64" xMax="768" yMax="960">
      <contour>
        <pt x="768" y="960" on="1"/>
        <pt x="603" y="960" on="1"/>
        <pt x="488" y="960" on="0"/>
        <pt x="381" y="859" on="0"/>
        <pt x="381" y="761" on="1"/>
        <pt x="381" y="619" on="1"/>
        <pt x="256" y="619" on="1"/>
        <pt x="256" y="448" on="1"/>
        <pt x="381" y="448" on="1"/>
        <pt x="381" y="-64" on="1"/>
        <pt x="597" y="-64" on="1"/>
        <pt x="597" y="448" on="1"/>
        <pt x="751" y="448" on="1"/>
        <pt x="768" y="619" on="1"/>
        <pt x="597" y="619" on="1"/>
        <pt x="597" y="693" on="1"/>
        <pt x="597" y="722" on="0"/>
        <pt x="613" y="750" on="0"/>
        <pt x="643" y="750" on="1"/>
        <pt x="768" y="750" on="1"/>
        <pt x="768" y="960" on="1"/>
      </contour>
    </TTGlyph>
    <TTGlyph name="uniE904" xMin="0" yMin="-64" xMax="1249" yMax="960">
      <contour>
        <pt x="864" y="945" on="1"/>
        <pt x="812" y="945" on="0"/>
        <pt x="766" y="925" on="1"/>
        <pt x="720" y="905" on="0"/>
        <pt x="651" y="834" on="0"/>
        <pt x="630" y="786" on="1"/>
        <pt x="610" y="738" on="0"/>
        <pt x="610" y="684" on="1"/>
        <pt x="610" y="668" on="0"/>
        <pt x="612" y="637" on="0"/>
        <pt x="617" y="626" on="1"/>
        <pt x="538" y="631" on="0"/>
        <pt x="464" y="653" on="1"/>
        <pt x="390" y="674" on="0"/>
        <pt x="255" y="745" on="0"/>
        <pt x="196" y="793" on="1"/>
        <pt x="136" y="842" on="0"/>
        <pt x="87" y="902" on="1"/>
        <pt x="71" y="875" on="0"/>
        <pt x="51" y="804" on="0"/>
        <pt x="51" y="771" on="1"/>
        <pt x="51" y="700" on="0"/>
        <pt x="113" y="586" on="0"/>
        <pt x="167" y="553" on="1"/>
        <pt x="134" y="553" on="0"/>
        <pt x="78" y="573" on="0"/>
        <pt x="51" y="590" on="1"/>
        <pt x="51" y="590" on="1"/>
        <pt x="51" y="541" on="0"/>
        <pt x="66" y="498" on="1"/>
        <pt x="82" y="455" on="0"/>
        <pt x="136" y="388" on="0"/>
        <pt x="173" y="366" on="1"/>
        <pt x="211" y="344" on="0"/>
        <pt x="254" y="335" on="1"/>
        <pt x="238" y="330" on="0"/>
        <pt x="205" y="328" on="0"/>
        <pt x="189" y="328" on="1"/>
        <pt x="178" y="328" on="0"/>
        <pt x="154" y="330" on="0"/>
        <pt x="138" y="335" on="1"/>
        <pt x="149" y="297" on="0"/>
        <pt x="172" y="264" on="1"/>
        <pt x="196" y="231" on="0"/>
        <pt x="260" y="182" on="0"/>
        <pt x="298" y="168" on="1"/>
        <pt x="337" y="154" on="0"/>
        <pt x="378" y="154" on="1"/>
        <pt x="345" y="127" on="0"/>
        <pt x="308" y="106" on="1"/>
        <pt x="272" y="86" on="0"/>
        <pt x="191" y="59" on="0"/>
        <pt x="148" y="52" on="1"/>
        <pt x="104" y="45" on="0"/>
        <pt x="58" y="45" on="1"/>
        <pt x="42" y="45" on="0"/>
        <pt x="11" y="47" on="0"/>
        <pt x="0" y="52" on="1"/>
        <pt x="44" y="25" on="0"/>
        <pt x="90" y="3" on="1"/>
        <pt x="136" y="-18" on="0"/>
        <pt x="234" y="-48" on="0"/>
        <pt x="286" y="-56" on="1"/>
        <pt x="338" y="-64" on="0"/>
        <pt x="392" y="-64" on="1"/>
        <pt x="569" y="-64" on="0"/>
        <pt x="705" y="4" on="1"/>
        <pt x="840" y="72" on="0"/>
        <pt x="1024" y="287" on="0"/>
        <pt x="1071" y="420" on="1"/>
        <pt x="1118" y="553" on="0"/>
        <pt x="1118" y="684" on="1"/>
        <pt x="1118" y="695" on="0"/>
        <pt x="1118" y="709" on="0"/>
        <pt x="1118" y="720" on="1"/>
        <pt x="1157" y="748" on="0"/>
        <pt x="1222" y="815" on="0"/>
        <pt x="1249" y="858" on="1"/>
        <pt x="1216" y="842" on="0"/>
        <pt x="1142" y="820" on="0"/>
        <pt x="1104" y="815" on="1"/>
        <pt x="1142" y="837" on="0"/>
        <pt x="1204" y="916" on="0"/>
        <pt x="1220" y="960" on="1"/>
        <pt x="1182" y="938" on="0"/>
        <pt x="1104" y="906" on="0"/>
        <pt x="1060" y="895" on="1"/>
        <pt x="1017" y="911" on="0"/>
        <pt x="919" y="945" on="0"/>
        <pt x="864" y="945" on="1"/>
      </contour>
    </TTGlyph>
    <TTGlyph name="uniE905" xMin="0" yMin="0" xMax="1059" yMax="960">
      <contour>
        <pt x="801" y="662" on="1"/>
        <pt x="712" y="662" on="0"/>
        <pt x="621" y="591" on="0"/>
        <pt x="596" y="556" on="1"/>
        <pt x="596" y="556" on="1"/>
        <pt x="596" y="649" on="1"/>
        <pt x="371" y="649" on="1"/>
        <pt x="371" y="626" on="0"/>
        <pt x="371" y="530" on="1"/>
        <pt x="371" y="433" on="0"/>
        <pt x="371" y="212" on="0"/>
        <pt x="371" y="118" on="1"/>
        <pt x="371" y="24" on="0"/>
        <pt x="371" y="7" on="1"/>
        <pt x="371" y="7" on="1"/>
        <pt x="371" y="7" on="1"/>
        <pt x="596" y="7" on="1"/>
        <pt x="596" y="364" on="1"/>
        <pt x="596" y="379" on="0"/>
        <pt x="598" y="407" on="0"/>
        <pt x="602" y="417" on="1"/>
        <pt x="612" y="447" on="0"/>
        <pt x="672" y="497" on="0"/>
        <pt x="722" y="497" on="1"/>
        <pt x="781" y="497" on="0"/>
        <pt x="834" y="415" on="0"/>
        <pt x="834" y="351" on="1"/>
        <pt x="834" y="351" on="1"/>
        <pt x="834" y="7" on="1"/>
        <pt x="1059" y="7" on="1"/>
        <pt x="1059" y="377" on="1"/>
        <pt x="1059" y="449" on="0"/>
        <pt x="1039" y="503" on="1"/>
        <pt x="1020" y="556" on="0"/>
        <pt x="950" y="627" on="0"/>
        <pt x="903" y="645" on="1"/>
        <pt x="856" y="662" on="0"/>
        <pt x="801" y="662" on="1"/>
      </contour>
      <contour>
        <pt x="238" y="649" on="1"/>
        <pt x="13" y="649" on="1"/>
        <pt x="13" y="0" on="1"/>
        <pt x="238" y="0" on="1"/>
      </contour>
      <contour>
        <pt x="126" y="960" on="1"/>
        <pt x="66" y="960" on="0"/>
        <pt x="0" y="897" on="0"/>
        <pt x="0" y="847" on="1"/>
        <pt x="0" y="803" on="0"/>
        <pt x="66" y="735" on="0"/>
        <pt x="126" y="735" on="1"/>
        <pt x="126" y="735" on="1"/>
        <pt x="126" y="735" on="1"/>
        <pt x="139" y="735" on="1"/>
        <pt x="194" y="740" on="0"/>
        <pt x="258" y="803" on="0"/>
        <pt x="258" y="847" on="1"/>
        <pt x="253" y="897" on="0"/>
        <pt x="185" y="960" on="0"/>
        <pt x="126" y="960" on="1"/>
      </contour>
    </TTGlyph>
    <TTGlyph name="uniE906" xMin="11" yMin="240" xMax="1013" yMax="960">
      <contour>
        <pt x="525" y="960" on="1"/>
        <pt x="499" y="960" on="1"/>
        <pt x="477" y="960" on="0"/>
        <pt x="424" y="959" on="1"/>
        <pt x="371" y="958" on="0"/>
        <pt x="253" y="953" on="0"/>
        <pt x="200" y="949" on="1"/>
        <pt x="146" y="946" on="0"/>
        <pt x="122" y="940" on="1"/>
        <pt x="88" y="932" on="0"/>
        <pt x="42" y="883" on="0"/>
        <pt x="31" y="849" on="1"/>
        <pt x="24" y="823" on="0"/>
        <pt x="20" y="786" on="1"/>
        <pt x="15" y="749" on="0"/>
        <pt x="12" y="677" on="0"/>
        <pt x="11" y="648" on="1"/>
        <pt x="11" y="619" on="0"/>
        <pt x="11" y="608" on="1"/>
        <pt x="11" y="608" on="1"/>
        <pt x="11" y="592" on="1"/>
        <pt x="11" y="579" on="0"/>
        <pt x="12" y="550" on="1"/>
        <pt x="13" y="520" on="0"/>
        <pt x="18" y="449" on="0"/>
        <pt x="22" y="413" on="1"/>
        <pt x="25" y="377" on="0"/>
        <pt x="31" y="351" on="1"/>
        <pt x="39" y="317" on="0"/>
        <pt x="88" y="268" on="0"/>
        <pt x="122" y="260" on="1"/>
        <pt x="148" y="253" on="0"/>
        <pt x="204" y="249" on="1"/>
        <pt x="260" y="244" on="0"/>
        <pt x="381" y="241" on="0"/>
        <pt x="433" y="240" on="1"/>
        <pt x="486" y="240" on="0"/>
        <pt x="504" y="240" on="1"/>
        <pt x="504" y="240" on="1"/>
        <pt x="520" y="240" on="1"/>
        <pt x="538" y="240" on="0"/>
        <pt x="591" y="240" on="1"/>
        <pt x="643" y="241" on="0"/>
        <pt x="764" y="244" on="0"/>
        <pt x="820" y="249" on="1"/>
        <pt x="876" y="253" on="0"/>
        <pt x="902" y="260" on="1"/>
        <pt x="936" y="268" on="0"/>
        <pt x="981" y="317" on="0"/>
        <pt x="993" y="351" on="1"/>
        <pt x="1000" y="379" on="0"/>
        <pt x="1004" y="418" on="1"/>
        <pt x="1009" y="456" on="0"/>
        <pt x="1012" y="530" on="0"/>
        <pt x="1013" y="559" on="1"/>
        <pt x="1013" y="588" on="0"/>
        <pt x="1013" y="597" on="1"/>
        <pt x="1013" y="597" on="1"/>
        <pt x="1013" y="608" on="1"/>
        <pt x="1013" y="617" on="0"/>
        <pt x="1013" y="646" on="1"/>
        <pt x="1012" y="675" on="0"/>
        <pt x="1009" y="749" on="0"/>
        <pt x="1004" y="787" on="1"/>
        <pt x="1000" y="826" on="0"/>
        <pt x="993" y="854" on="1"/>
        <pt x="985" y="888" on="0"/>
        <pt x="936" y="937" on="0"/>
        <pt x="902" y="945" on="1"/>
        <pt x="878" y="949" on="0"/>
        <pt x="824" y="952" on="1"/>
        <pt x="770" y="954" on="0"/>
        <pt x="652" y="958" on="0"/>
        <pt x="600" y="959" on="1"/>
        <pt x="547" y="960" on="0"/>
        <pt x="525" y="960" on="1"/>
        <pt x="525" y="960" on="1"/>
      </contour>
      <contour>
        <pt x="414" y="759" on="1"/>
        <pt x="686" y="603" on="1"/>
        <pt x="414" y="451" on="1"/>
        <pt x="414" y="759" on="1"/>
      </contour>
    </TTGlyph>
    <TTGlyph name="uniE907" xMin="0" yMin="-64" xMax="4665" yMax="960">
      <contour>
        <pt x="232" y="960" on="1"/>
        <pt x="0" y="960" on="1"/>
        <pt x="331" y="208" on="1"/>
        <pt x="333" y="203" on="0"/>
        <pt x="342" y="203" on="0"/>
        <pt x="344" y="208" on="1"/>
        <pt x="454" y="467" on="1"/>
        <pt x="232" y="960" on="1"/>
      </contour>
      <contour>
        <pt x="938" y="960" on="1"/>
        <pt x="938" y="960" on="0"/>
        <pt x="882" y="832" on="1"/>
        <pt x="825" y="703" on="0"/>
        <pt x="683" y="383" on="0"/>
        <pt x="618" y="241" on="1"/>
        <pt x="553" y="98" on="0"/>
        <pt x="535" y="70" on="1"/>
        <pt x="494" y="4" on="0"/>
        <pt x="426" y="-53" on="0"/>
        <pt x="375" y="-61" on="1"/>
        <pt x="375" y="-61" on="0"/>
        <pt x="374" y="-62" on="0"/>
        <pt x="374" y="-63" on="1"/>
        <pt x="374" y="-63" on="0"/>
        <pt x="375" y="-64" on="0"/>
        <pt x="375" y="-64" on="1"/>
        <pt x="588" y="-64" on="1"/>
        <pt x="657" y="-64" on="0"/>
        <pt x="755" y="30" on="0"/>
        <pt x="783" y="81" on="1"/>
        <pt x="798" y="110" on="0"/>
        <pt x="861" y="251" on="1"/>
        <pt x="924" y="392" on="0"/>
        <pt x="1063" y="707" on="0"/>
        <pt x="1119" y="833" on="1"/>
        <pt x="1174" y="960" on="0"/>
        <pt x="1174" y="960" on="1"/>
        <pt x="938" y="960" on="1"/>
      </contour>
      <contour>
        <pt x="1866" y="306" on="1"/>
        <pt x="1866" y="306" on="0"/>
        <pt x="1864" y="306" on="0"/>
        <pt x="1864" y="306" on="1"/>
        <pt x="1688" y="693" on="1"/>
        <pt x="1588" y="693" on="1"/>
        <pt x="1588" y="693" on="0"/>
        <pt x="1617" y="628" on="1"/>
        <pt x="1646" y="564" on="0"/>
        <pt x="1717" y="404" on="0"/>
        <pt x="1749" y="334" on="1"/>
        <pt x="1781" y="264" on="0"/>
        <pt x="1788" y="252" on="1"/>
        <pt x="1802" y="230" on="0"/>
        <pt x="1837" y="198" on="0"/>
        <pt x="1865" y="198" on="1"/>
        <pt x="1893" y="198" on="0"/>
        <pt x="1928" y="230" on="0"/>
        <pt x="1942" y="252" on="1"/>
        <pt x="1949" y="264" on="0"/>
        <pt x="1981" y="334" on="1"/>
        <pt x="2013" y="404" on="0"/>
        <pt x="2084" y="564" on="0"/>
        <pt x="2113" y="628" on="1"/>
        <pt x="2142" y="693" on="0"/>
        <pt x="2142" y="693" on="1"/>
        <pt x="2043" y="693" on="1"/>
        <pt x="1866" y="306" on="1"/>
      </contour>
      <contour>
        <pt x="2404" y="273" on="1"/>
        <pt x="2332" y="273" on="0"/>
        <pt x="2245" y="364" on="0"/>
        <pt x="2245" y="448" on="1"/>
        <pt x="2245" y="532" on="0"/>
        <pt x="2332" y="623" on="0"/>
        <pt x="2404" y="623" on="1"/>
        <pt x="2475" y="623" on="0"/>
        <pt x="2562" y="532" on="0"/>
        <pt x="2562" y="448" on="1"/>
        <pt x="2562" y="364" on="0"/>
        <pt x="2475" y="273" on="0"/>
      </contour>
      <contour>
        <pt x="2404" y="704" on="1"/>
        <pt x="2348" y="704" on="0"/>
        <pt x="2302" y="686" on="1"/>
        <pt x="2256" y="669" on="0"/>
        <pt x="2192" y="602" on="0"/>
        <pt x="2175" y="555" on="1"/>
        <pt x="2157" y="508" on="0"/>
        <pt x="2157" y="448" on="1"/>
        <pt x="2157" y="388" on="0"/>
        <pt x="2175" y="341" on="1"/>
        <pt x="2192" y="294" on="0"/>
        <pt x="2256" y="227" on="0"/>
        <pt x="2302" y="210" on="1"/>
        <pt x="2348" y="192" on="0"/>
        <pt x="2404" y="192" on="1"/>
        <pt x="2460" y="192" on="0"/>
        <pt x="2505" y="210" on="1"/>
        <pt x="2551" y="227" on="0"/>
        <pt x="2615" y="294" on="0"/>
        <pt x="2633" y="341" on="1"/>
        <pt x="2650" y="388" on="0"/>
        <pt x="2650" y="448" on="1"/>
        <pt x="2650" y="508" on="0"/>
        <pt x="2633" y="555" on="1"/>
        <pt x="2615" y="602" on="0"/>
        <pt x="2551" y="669" on="0"/>
        <pt x="2505" y="686" on="1"/>
        <pt x="2460" y="704" on="0"/>
      </contour>
      <contour>
        <pt x="3157" y="693" on="1"/>
        <pt x="3157" y="203" on="1"/>
        <pt x="3055" y="203" on="1"/>
        <pt x="2819" y="561" on="1"/>
        <pt x="2819" y="203" on="1"/>
        <pt x="2732" y="203" on="1"/>
        <pt x="2732" y="693" on="1"/>
        <pt x="2834" y="693" on="1"/>
        <pt x="3071" y="332" on="1"/>
        <pt x="3071" y="693" on="1"/>
      </contour>
      <contour>
        <pt x="3389" y="404" on="1"/>
        <pt x="3474" y="604" on="1"/>
        <pt x="3474" y="605" on="0"/>
        <pt x="3476" y="605" on="0"/>
        <pt x="3477" y="604" on="1"/>
        <pt x="3562" y="404" on="1"/>
        <pt x="3389" y="404" on="1"/>
      </contour>
      <contour>
        <pt x="3475" y="698" on="1"/>
        <pt x="3449" y="698" on="0"/>
        <pt x="3414" y="664" on="0"/>
        <pt x="3403" y="644" on="1"/>
        <pt x="3398" y="634" on="0"/>
        <pt x="3367" y="564" on="1"/>
        <pt x="3337" y="493" on="0"/>
        <pt x="3268" y="333" on="0"/>
        <pt x="3240" y="268" on="1"/>
        <pt x="3213" y="203" on="0"/>
        <pt x="3213" y="203" on="1"/>
        <pt x="3303" y="203" on="1"/>
        <pt x="3354" y="322" on="1"/>
        <pt x="3597" y="322" on="1"/>
        <pt x="3647" y="203" on="1"/>
        <pt x="3738" y="203" on="1"/>
        <pt x="3738" y="203" on="0"/>
        <pt x="3710" y="268" on="1"/>
        <pt x="3682" y="333" on="0"/>
        <pt x="3614" y="493" on="0"/>
        <pt x="3583" y="564" on="1"/>
        <pt x="3553" y="634" on="0"/>
        <pt x="3547" y="644" on="1"/>
        <pt x="3536" y="664" on="0"/>
        <pt x="3502" y="698" on="0"/>
        <pt x="3475" y="698" on="1"/>
        <pt x="3475" y="698" on="1"/>
      </contour>
      <contour>
        <pt x="3983" y="392" on="1"/>
        <pt x="4137" y="392" on="1"/>
        <pt x="4137" y="335" on="0"/>
        <pt x="4047" y="273" on="0"/>
        <pt x="3991" y="273" on="1"/>
        <pt x="3920" y="273" on="0"/>
        <pt x="3835" y="364" on="0"/>
        <pt x="3835" y="448" on="1"/>
        <pt x="3835" y="539" on="0"/>
        <pt x="3918" y="624" on="0"/>
        <pt x="3996" y="624" on="1"/>
        <pt x="4045" y="624" on="0"/>
        <pt x="4118" y="582" on="0"/>
        <pt x="4127" y="536" on="1"/>
        <pt x="4216" y="536" on="1"/>
        <pt x="4205" y="616" on="0"/>
        <pt x="4074" y="704" on="0"/>
        <pt x="3991" y="704" on="1"/>
        <pt x="3935" y="704" on="0"/>
        <pt x="3891" y="686" on="1"/>
        <pt x="3846" y="669" on="0"/>
        <pt x="3782" y="602" on="0"/>
        <pt x="3765" y="555" on="1"/>
        <pt x="3748" y="508" on="0"/>
        <pt x="3748" y="448" on="1"/>
        <pt x="3748" y="388" on="0"/>
        <pt x="3765" y="341" on="1"/>
        <pt x="3782" y="294" on="0"/>
        <pt x="3846" y="229" on="0"/>
        <pt x="3891" y="211" on="1"/>
        <pt x="3935" y="194" on="0"/>
        <pt x="3991" y="194" on="1"/>
        <pt x="4037" y="194" on="0"/>
        <pt x="4121" y="236" on="0"/>
        <pt x="4138" y="263" on="1"/>
        <pt x="4137" y="203" on="1"/>
        <pt x="4220" y="203" on="1"/>
        <pt x="4220" y="467" on="1"/>
        <pt x="3983" y="467" on="1"/>
        <pt x="3983" y="392" on="1"/>
      </contour>
      <contour>
        <pt x="4665" y="611" on="1"/>
        <pt x="4665" y="693" on="1"/>
        <pt x="4314" y="693" on="1"/>
        <pt x="4314" y="203" on="1"/>
        <pt x="4665" y="203" on="1"/>
        <pt x="4665" y="285" on="1"/>
        <pt x="4401" y="285" on="1"/>
        <pt x="4401" y="414" on="1"/>
        <pt x="4645" y="414" on="1"/>
        <pt x="4645" y="496" on="1"/>
        <pt x="4401" y="496" on="1"/>
        <pt x="4401" y="611" on="1"/>
      </contour>
    </TTGlyph>
    <TTGlyph name="uniE908" xMin="-16" yMin="-72" xMax="1024" yMax="968">
      <contour>
        <pt x="733" y="512" on="1"/>
        <pt x="730" y="512" on="0"/>
        <pt x="721" y="512" on="0"/>
        <pt x="718" y="512" on="1"/>
        <pt x="714" y="554" on="0"/>
        <pt x="696" y="590" on="1"/>
        <pt x="678" y="625" on="0"/>
        <pt x="621" y="678" on="0"/>
        <pt x="583" y="693" on="1"/>
        <pt x="546" y="708" on="0"/>
        <pt x="504" y="708" on="1"/>
        <pt x="442" y="708" on="0"/>
        <pt x="341" y="643" on="0"/>
        <pt x="313" y="592" on="1"/>
        <pt x="311" y="592" on="1"/>
        <pt x="231" y="592" on="0"/>
        <pt x="119" y="477" on="0"/>
        <pt x="119" y="396" on="1"/>
        <pt x="119" y="315" on="0"/>
        <pt x="231" y="200" on="0"/>
        <pt x="311" y="200" on="1"/>
        <pt x="733" y="200" on="1"/>
        <pt x="797" y="200" on="0"/>
        <pt x="887" y="293" on="0"/>
        <pt x="887" y="356" on="1"/>
        <pt x="887" y="420" on="0"/>
        <pt x="797" y="512" on="0"/>
      </contour>
      <contour>
        <pt x="-16" y="968" on="1"/>
        <pt x="-16" y="-72" on="1"/>
        <pt x="1024" y="-72" on="1"/>
        <pt x="1024" y="968" on="1"/>
      </contour>
      <contour>
        <pt x="733" y="103" on="1"/>
        <pt x="313" y="103" on="1"/>
        <pt x="253" y="103" on="0"/>
        <pt x="201" y="126" on="1"/>
        <pt x="149" y="149" on="0"/>
        <pt x="71" y="228" on="0"/>
        <pt x="48" y="281" on="1"/>
        <pt x="26" y="334" on="0"/>
        <pt x="26" y="394" on="1"/>
        <pt x="26" y="448" on="0"/>
        <pt x="43" y="496" on="1"/>
        <pt x="61" y="544" on="0"/>
        <pt x="123" y="620" on="0"/>
        <pt x="166" y="646" on="1"/>
        <pt x="209" y="672" on="0"/>
        <pt x="259" y="681" on="1"/>
        <pt x="302" y="739" on="0"/>
        <pt x="431" y="804" on="0"/>
        <pt x="504" y="804" on="1"/>
        <pt x="553" y="804" on="0"/>
        <pt x="598" y="789" on="1"/>
        <pt x="644" y="774" on="0"/>
        <pt x="720" y="721" on="0"/>
        <pt x="749" y="683" on="1"/>
        <pt x="778" y="646" on="0"/>
        <pt x="795" y="602" on="1"/>
        <pt x="836" y="592" on="0"/>
        <pt x="870" y="569" on="1"/>
        <pt x="904" y="546" on="0"/>
        <pt x="954" y="481" on="0"/>
        <pt x="968" y="441" on="1"/>
        <pt x="982" y="401" on="0"/>
        <pt x="982" y="356" on="1"/>
        <pt x="982" y="304" on="0"/>
        <pt x="963" y="258" on="1"/>
        <pt x="944" y="212" on="0"/>
        <pt x="876" y="143" on="0"/>
        <pt x="831" y="123" on="1"/>
        <pt x="785" y="103" on="0"/>
        <pt x="733" y="103" on="1"/>
      </contour>
    </TTGlyph>
    <TTGlyph name="uniE909" xMin="-16" yMin="-72" xMax="1024" yMax="968">
      <contour>
        <pt x="-16" y="968" on="1"/>
        <pt x="-16" y="-72" on="1"/>
        <pt x="1024" y="-72" on="1"/>
        <pt x="1024" y="968" on="1"/>
      </contour>
      <contour>
        <pt x="924" y="411" on="1"/>
        <pt x="924" y="284" on="1"/>
        <pt x="924" y="282" on="0"/>
        <pt x="924" y="279" on="0"/>
        <pt x="924" y="276" on="1"/>
        <pt x="924" y="232" on="1"/>
        <pt x="924" y="226" on="0"/>
        <pt x="924" y="216" on="0"/>
        <pt x="924" y="210" on="1"/>
        <pt x="923" y="190" on="0"/>
        <pt x="911" y="150" on="0"/>
        <pt x="903" y="131" on="1"/>
        <pt x="888" y="99" on="0"/>
        <pt x="831" y="46" on="0"/>
        <pt x="796" y="31" on="1"/>
        <pt x="777" y="23" on="0"/>
        <pt x="736" y="14" on="0"/>
        <pt x="714" y="12" on="1"/>
        <pt x="706" y="12" on="0"/>
        <pt x="692" y="12" on="0"/>
        <pt x="684" y="12" on="1"/>
        <pt x="621" y="12" on="1"/>
        <pt x="616" y="-2" on="0"/>
        <pt x="596" y="-23" on="0"/>
        <pt x="583" y="-29" on="1"/>
        <pt x="570" y="-35" on="0"/>
        <pt x="543" y="-40" on="0"/>
        <pt x="530" y="-40" on="1"/>
        <pt x="486" y="-40" on="1"/>
        <pt x="472" y="-40" on="0"/>
        <pt x="444" y="-35" on="0"/>
        <pt x="431" y="-27" on="1"/>
        <pt x="412" y="-15" on="0"/>
        <pt x="390" y="26" on="0"/>
        <pt x="393" y="49" on="1"/>
        <pt x="397" y="69" on="0"/>
        <pt x="418" y="102" on="0"/>
        <pt x="436" y="111" on="1"/>
        <pt x="447" y="117" on="0"/>
        <pt x="472" y="121" on="0"/>
        <pt x="486" y="121" on="1"/>
        <pt x="543" y="121" on="1"/>
        <pt x="552" y="121" on="0"/>
        <pt x="571" y="118" on="0"/>
        <pt x="581" y="113" on="1"/>
        <pt x="595" y="107" on="0"/>
        <pt x="616" y="84" on="0"/>
        <pt x="621" y="70" on="1"/>
        <pt x="686" y="70" on="1"/>
        <pt x="697" y="70" on="0"/>
        <pt x="722" y="70" on="0"/>
        <pt x="733" y="72" on="1"/>
        <pt x="742" y="73" on="0"/>
        <pt x="761" y="79" on="0"/>
        <pt x="771" y="82" on="1"/>
        <pt x="778" y="85" on="0"/>
        <pt x="792" y="92" on="0"/>
        <pt x="798" y="96" on="1"/>
        <pt x="800" y="98" on="0"/>
        <pt x="803" y="101" on="0"/>
        <pt x="806" y="103" on="1"/>
        <pt x="806" y="103" on="0"/>
        <pt x="807" y="103" on="0"/>
        <pt x="808" y="103" on="1"/>
        <pt x="812" y="106" on="0"/>
        <pt x="818" y="112" on="0"/>
        <pt x="821" y="115" on="1"/>
        <pt x="824" y="118" on="0"/>
        <pt x="831" y="124" on="0"/>
        <pt x="834" y="127" on="1"/>
        <pt x="834" y="127" on="0"/>
        <pt x="834" y="129" on="0"/>
        <pt x="836" y="129" on="1"/>
        <pt x="837" y="131" on="0"/>
        <pt x="840" y="134" on="0"/>
        <pt x="840" y="136" on="1"/>
        <pt x="845" y="142" on="0"/>
        <pt x="852" y="157" on="0"/>
        <pt x="855" y="164" on="1"/>
        <pt x="858" y="171" on="0"/>
        <pt x="862" y="183" on="0"/>
        <pt x="863" y="189" on="1"/>
        <pt x="859" y="188" on="0"/>
        <pt x="851" y="187" on="0"/>
        <pt x="846" y="185" on="1"/>
        <pt x="842" y="185" on="0"/>
        <pt x="830" y="185" on="0"/>
        <pt x="825" y="185" on="1"/>
        <pt x="816" y="185" on="0"/>
        <pt x="797" y="189" on="0"/>
        <pt x="790" y="193" on="1"/>
        <pt x="772" y="201" on="0"/>
        <pt x="747" y="226" on="0"/>
        <pt x="741" y="243" on="1"/>
        <pt x="738" y="252" on="0"/>
        <pt x="735" y="268" on="0"/>
        <pt x="735" y="278" on="1"/>
        <pt x="735" y="446" on="1"/>
        <pt x="735" y="463" on="0"/>
        <pt x="735" y="499" on="0"/>
        <pt x="743" y="514" on="1"/>
        <pt x="751" y="530" on="0"/>
        <pt x="780" y="554" on="0"/>
        <pt x="796" y="560" on="1"/>
        <pt x="804" y="563" on="0"/>
        <pt x="819" y="564" on="0"/>
        <pt x="825" y="564" on="1"/>
        <pt x="832" y="564" on="0"/>
        <pt x="846" y="563" on="0"/>
        <pt x="853" y="562" on="1"/>
        <pt x="854" y="562" on="0"/>
        <pt x="858" y="560" on="0"/>
        <pt x="861" y="560" on="1"/>
        <pt x="861" y="561" on="0"/>
        <pt x="861" y="566" on="0"/>
        <pt x="861" y="568" on="1"/>
        <pt x="858" y="591" on="0"/>
        <pt x="845" y="635" on="0"/>
        <pt x="836" y="657" on="1"/>
        <pt x="830" y="670" on="0"/>
        <pt x="814" y="698" on="0"/>
        <pt x="806" y="712" on="1"/>
        <pt x="803" y="718" on="0"/>
        <pt x="794" y="730" on="0"/>
        <pt x="790" y="735" on="1"/>
        <pt x="788" y="736" on="0"/>
        <pt x="787" y="739" on="0"/>
        <pt x="785" y="739" on="1"/>
        <pt x="784" y="742" on="0"/>
        <pt x="778" y="746" on="0"/>
        <pt x="777" y="749" on="1"/>
        <pt x="767" y="760" on="0"/>
        <pt x="746" y="779" on="0"/>
        <pt x="735" y="788" on="1"/>
        <pt x="732" y="790" on="0"/>
        <pt x="727" y="795" on="0"/>
        <pt x="724" y="797" on="1"/>
        <pt x="723" y="798" on="0"/>
        <pt x="719" y="799" on="0"/>
        <pt x="718" y="801" on="1"/>
        <pt x="712" y="805" on="0"/>
        <pt x="701" y="813" on="0"/>
        <pt x="695" y="817" on="1"/>
        <pt x="682" y="825" on="0"/>
        <pt x="657" y="837" on="0"/>
        <pt x="644" y="842" on="1"/>
        <pt x="622" y="851" on="0"/>
        <pt x="577" y="863" on="0"/>
        <pt x="554" y="867" on="1"/>
        <pt x="530" y="870" on="0"/>
        <pt x="480" y="870" on="0"/>
        <pt x="457" y="867" on="1"/>
        <pt x="433" y="863" on="0"/>
        <pt x="388" y="851" on="0"/>
        <pt x="366" y="842" on="1"/>
        <pt x="352" y="836" on="0"/>
        <pt x="323" y="821" on="0"/>
        <pt x="309" y="813" on="1"/>
        <pt x="303" y="810" on="0"/>
        <pt x="291" y="801" on="0"/>
        <pt x="286" y="797" on="1"/>
        <pt x="284" y="795" on="0"/>
        <pt x="282" y="794" on="0"/>
        <pt x="282" y="792" on="1"/>
        <pt x="275" y="796" on="0"/>
        <pt x="270" y="792" on="0"/>
        <pt x="267" y="790" on="1"/>
        <pt x="256" y="781" on="0"/>
        <pt x="236" y="760" on="0"/>
        <pt x="227" y="749" on="1"/>
        <pt x="225" y="746" on="0"/>
        <pt x="220" y="742" on="0"/>
        <pt x="218" y="739" on="1"/>
        <pt x="217" y="737" on="0"/>
        <pt x="216" y="734" on="0"/>
        <pt x="214" y="733" on="1"/>
        <pt x="210" y="727" on="0"/>
        <pt x="202" y="716" on="0"/>
        <pt x="197" y="710" on="1"/>
        <pt x="189" y="698" on="0"/>
        <pt x="177" y="673" on="0"/>
        <pt x="172" y="661" on="1"/>
        <pt x="163" y="639" on="0"/>
        <pt x="150" y="595" on="0"/>
        <pt x="147" y="572" on="1"/>
        <pt x="147" y="571" on="0"/>
        <pt x="147" y="565" on="0"/>
        <pt x="147" y="564" on="1"/>
        <pt x="155" y="565" on="0"/>
        <pt x="168" y="568" on="0"/>
        <pt x="176" y="568" on="1"/>
        <pt x="183" y="568" on="0"/>
        <pt x="197" y="567" on="0"/>
        <pt x="204" y="566" on="1"/>
        <pt x="235" y="560" on="0"/>
        <pt x="275" y="510" on="0"/>
        <pt x="275" y="479" on="1"/>
        <pt x="275" y="286" on="1"/>
        <pt x="275" y="278" on="0"/>
        <pt x="275" y="263" on="0"/>
        <pt x="273" y="257" on="1"/>
        <pt x="269" y="240" on="0"/>
        <pt x="245" y="211" on="0"/>
        <pt x="229" y="204" on="1"/>
        <pt x="221" y="199" on="0"/>
        <pt x="203" y="193" on="0"/>
        <pt x="193" y="193" on="1"/>
        <pt x="188" y="193" on="0"/>
        <pt x="177" y="193" on="0"/>
        <pt x="172" y="193" on="1"/>
        <pt x="163" y="193" on="0"/>
        <pt x="144" y="197" on="0"/>
        <pt x="136" y="201" on="1"/>
        <pt x="119" y="209" on="0"/>
        <pt x="94" y="234" on="0"/>
        <pt x="88" y="251" on="1"/>
        <pt x="85" y="254" on="0"/>
        <pt x="81" y="265" on="0"/>
        <pt x="81" y="271" on="1"/>
        <pt x="81" y="273" on="0"/>
        <pt x="81" y="274" on="0"/>
        <pt x="81" y="276" on="1"/>
        <pt x="81" y="525" on="1"/>
        <pt x="81" y="556" on="0"/>
        <pt x="91" y="619" on="0"/>
        <pt x="100" y="648" on="1"/>
        <pt x="112" y="684" on="0"/>
        <pt x="146" y="748" on="0"/>
        <pt x="170" y="776" on="1"/>
        <pt x="192" y="805" on="0"/>
        <pt x="247" y="853" on="0"/>
        <pt x="277" y="873" on="1"/>
        <pt x="307" y="891" on="0"/>
        <pt x="376" y="920" on="0"/>
        <pt x="412" y="926" on="1"/>
        <pt x="452" y="934" on="0"/>
        <pt x="531" y="937" on="0"/>
        <pt x="570" y="930" on="1"/>
        <pt x="607" y="924" on="0"/>
        <pt x="676" y="900" on="0"/>
        <pt x="709" y="883" on="1"/>
        <pt x="741" y="866" on="0"/>
        <pt x="797" y="821" on="0"/>
        <pt x="821" y="795" on="1"/>
        <pt x="846" y="767" on="0"/>
        <pt x="885" y="703" on="0"/>
        <pt x="899" y="669" on="1"/>
        <pt x="913" y="635" on="0"/>
        <pt x="926" y="562" on="0"/>
        <pt x="926" y="525" on="1"/>
        <pt x="926" y="482" on="1"/>
        <pt x="926" y="480" on="0"/>
        <pt x="926" y="479" on="0"/>
        <pt x="926" y="477" on="1"/>
        <pt x="926" y="411" on="1"/>
        <pt x="924" y="411" on="1"/>
      </contour>
    </TTGlyph>
    <TTGlyph name="uniE90A" xMin="-16" yMin="-72" xMax="1024" yMax="968">
      <contour>
        <pt x="296" y="446" on="1"/>
        <pt x="296" y="376" on="0"/>
        <pt x="333" y="327" on="1"/>
        <pt x="370" y="277" on="0"/>
        <pt x="478" y="232" on="0"/>
        <pt x="539" y="242" on="1"/>
        <pt x="600" y="251" on="0"/>
        <pt x="650" y="300" on="1"/>
        <pt x="680" y="331" on="0"/>
        <pt x="695" y="369" on="1"/>
        <pt x="710" y="407" on="0"/>
        <pt x="710" y="487" on="0"/>
        <pt x="695" y="525" on="1"/>
        <pt x="680" y="563" on="0"/>
        <pt x="650" y="594" on="1"/>
        <pt x="600" y="643" on="0"/>
        <pt x="539" y="652" on="1"/>
        <pt x="478" y="662" on="0"/>
        <pt x="370" y="617" on="0"/>
        <pt x="333" y="566" on="1"/>
        <pt x="296" y="516" on="0"/>
        <pt x="296" y="446" on="1"/>
      </contour>
      <contour>
        <pt x="-16" y="968" on="1"/>
        <pt x="-16" y="-72" on="1"/>
        <pt x="1024" y="-72" on="1"/>
        <pt x="1024" y="968" on="1"/>
      </contour>
      <contour>
        <pt x="833" y="354" on="1"/>
        <pt x="806" y="282" on="1"/>
        <pt x="834" y="248" on="0"/>
        <pt x="829" y="212" on="1"/>
        <pt x="824" y="176" on="0"/>
        <pt x="776" y="128" on="0"/>
        <pt x="740" y="123" on="1"/>
        <pt x="704" y="118" on="0"/>
        <pt x="670" y="146" on="1"/>
        <pt x="598" y="117" on="1"/>
        <pt x="594" y="74" on="0"/>
        <pt x="566" y="53" on="1"/>
        <pt x="538" y="31" on="0"/>
        <pt x="470" y="31" on="0"/>
        <pt x="442" y="53" on="1"/>
        <pt x="414" y="74" on="0"/>
        <pt x="410" y="117" on="1"/>
        <pt x="338" y="146" on="1"/>
        <pt x="304" y="118" on="0"/>
        <pt x="269" y="123" on="1"/>
        <pt x="233" y="128" on="0"/>
        <pt x="186" y="176" on="0"/>
        <pt x="181" y="212" on="1"/>
        <pt x="176" y="248" on="0"/>
        <pt x="204" y="282" on="1"/>
        <pt x="173" y="354" on="1"/>
        <pt x="130" y="358" on="0"/>
        <pt x="109" y="386" on="1"/>
        <pt x="87" y="414" on="0"/>
        <pt x="87" y="482" on="0"/>
        <pt x="109" y="510" on="1"/>
        <pt x="130" y="538" on="0"/>
        <pt x="173" y="542" on="1"/>
        <pt x="204" y="614" on="1"/>
        <pt x="176" y="648" on="0"/>
        <pt x="181" y="683" on="1"/>
        <pt x="186" y="719" on="0"/>
        <pt x="233" y="766" on="0"/>
        <pt x="269" y="771" on="1"/>
        <pt x="304" y="776" on="0"/>
        <pt x="338" y="748" on="1"/>
        <pt x="410" y="779" on="1"/>
        <pt x="414" y="822" on="0"/>
        <pt x="442" y="843" on="1"/>
        <pt x="470" y="865" on="0"/>
        <pt x="538" y="865" on="0"/>
        <pt x="566" y="843" on="1"/>
        <pt x="594" y="822" on="0"/>
        <pt x="598" y="779" on="1"/>
        <pt x="635" y="764" on="1"/>
        <pt x="644" y="763" on="0"/>
        <pt x="661" y="754" on="0"/>
        <pt x="670" y="748" on="1"/>
        <pt x="704" y="776" on="0"/>
        <pt x="740" y="771" on="1"/>
        <pt x="776" y="766" on="0"/>
        <pt x="824" y="718" on="0"/>
        <pt x="829" y="683" on="1"/>
        <pt x="834" y="647" on="0"/>
        <pt x="806" y="614" on="1"/>
        <pt x="835" y="542" on="1"/>
        <pt x="878" y="538" on="0"/>
        <pt x="899" y="510" on="1"/>
        <pt x="920" y="482" on="0"/>
        <pt x="920" y="414" on="0"/>
        <pt x="898" y="386" on="1"/>
        <pt x="876" y="358" on="0"/>
        <pt x="833" y="354" on="1"/>
      </contour>
    </TTGlyph>
    <TTGlyph name="uniE90B" xMin="0" yMin="-64" xMax="1024" yMax="960">
      <contour>
        <pt x="512" y="960" on="1"/>
        <pt x="618" y="960" on="0"/>
        <pt x="711" y="920" on="1"/>
        <pt x="805" y="880" on="0"/>
        <pt x="944" y="741" on="0"/>
        <pt x="984" y="647" on="1"/>
        <pt x="1024" y="554" on="0"/>
        <pt x="1024" y="448" on="1"/>
        <pt x="1024" y="342" on="0"/>
        <pt x="984" y="249" on="1"/>
        <pt x="944" y="155" on="0"/>
        <pt x="805" y="16" on="0"/>
        <pt x="711" y="-24" on="1"/>
        <pt x="618" y="-64" on="0"/>
        <pt x="512" y="-64" on="1"/>
        <pt x="406" y="-64" on="0"/>
        <pt x="313" y="-24" on="1"/>
        <pt x="219" y="16" on="0"/>
        <pt x="80" y="155" on="0"/>
        <pt x="40" y="249" on="1"/>
        <pt x="0" y="342" on="0"/>
        <pt x="0" y="448" on="1"/>
        <pt x="0" y="554" on="0"/>
        <pt x="40" y="647" on="1"/>
        <pt x="80" y="741" on="0"/>
        <pt x="219" y="880" on="0"/>
        <pt x="313" y="920" on="1"/>
        <pt x="406" y="960" on="0"/>
      </contour>
      <contour>
        <pt x="517" y="611" on="1"/>
        <pt x="505" y="611" on="1"/>
        <pt x="485" y="611" on="0"/>
        <pt x="354" y="607" on="0"/>
        <pt x="330" y="601" on="1"/>
        <pt x="315" y="597" on="0"/>
        <pt x="293" y="574" on="0"/>
        <pt x="289" y="558" on="1"/>
        <pt x="283" y="533" on="0"/>
        <pt x="279" y="457" on="0"/>
        <pt x="279" y="445" on="1"/>
        <pt x="279" y="445" on="1"/>
        <pt x="279" y="438" on="1"/>
        <pt x="279" y="426" on="0"/>
        <pt x="283" y="350" on="0"/>
        <pt x="289" y="325" on="1"/>
        <pt x="293" y="310" on="0"/>
        <pt x="315" y="287" on="0"/>
        <pt x="330" y="283" on="1"/>
        <pt x="354" y="276" on="0"/>
        <pt x="490" y="273" on="0"/>
        <pt x="507" y="273" on="1"/>
        <pt x="507" y="273" on="1"/>
        <pt x="515" y="273" on="1"/>
        <pt x="532" y="273" on="0"/>
        <pt x="667" y="276" on="0"/>
        <pt x="692" y="283" on="1"/>
        <pt x="707" y="287" on="0"/>
        <pt x="729" y="310" on="0"/>
        <pt x="733" y="325" on="1"/>
        <pt x="739" y="351" on="0"/>
        <pt x="742" y="430" on="0"/>
        <pt x="742" y="440" on="1"/>
        <pt x="742" y="440" on="1"/>
        <pt x="742" y="444" on="1"/>
        <pt x="742" y="453" on="0"/>
        <pt x="739" y="533" on="0"/>
        <pt x="733" y="558" on="1"/>
        <pt x="729" y="574" on="0"/>
        <pt x="707" y="597" on="0"/>
        <pt x="692" y="601" on="1"/>
        <pt x="668" y="607" on="0"/>
        <pt x="537" y="611" on="0"/>
        <pt x="517" y="611" on="1"/>
        <pt x="517" y="611" on="1"/>
      </contour>
      <contour>
        <pt x="465" y="518" on="1"/>
        <pt x="590" y="447" on="1"/>
        <pt x="465" y="375" on="1"/>
      </contour>
    </TTGlyph>
    <TTGlyph name="uniE90C" xMin="0" yMin="117" xMax="1024" yMax="747">
      <contour>
        <pt x="709" y="747" on="1"/>
        <pt x="653" y="691" on="1"/>
        <pt x="873" y="471" on="1"/>
        <pt x="0" y="471" on="1"/>
        <pt x="0" y="392" on="1"/>
        <pt x="873" y="392" on="1"/>
        <pt x="653" y="172" on="1"/>
        <pt x="709" y="117" on="1"/>
        <pt x="1024" y="432" on="1"/>
      </contour>
    </TTGlyph>
    <TTGlyph name="uniE90D" xMin="256" yMin="277" xMax="768" yMax="619">
      <contour>
        <pt x="316" y="619" on="1"/>
        <pt x="512" y="408" on="1"/>
        <pt x="708" y="619" on="1"/>
        <pt x="768" y="554" on="1"/>
        <pt x="512" y="277" on="1"/>
        <pt x="256" y="554" on="1"/>
      </contour>
    </TTGlyph>
    <TTGlyph name="uniE90E" xMin="256" yMin="190" xMax="768" yMax="702">
      <contour>
        <pt x="711" y="702" on="1"/>
        <pt x="768" y="645" on="1"/>
        <pt x="567" y="446" on="1"/>
        <pt x="768" y="247" on="1"/>
        <pt x="711" y="190" on="1"/>
        <pt x="511" y="389" on="1"/>
        <pt x="313" y="193" on="1"/>
        <pt x="256" y="249" on="1"/>
        <pt x="454" y="446" on="1"/>
        <pt x="256" y="643" on="1"/>
        <pt x="313" y="699" on="1"/>
        <pt x="511" y="503" on="1"/>
      </contour>
    </TTGlyph>
    <TTGlyph name="uniE90F" xMin="0" yMin="-64" xMax="1024" yMax="960">
      <contour>
        <pt x="1024" y="448" on="1"/>
        <pt x="1024" y="342" on="0"/>
        <pt x="984" y="249" on="1"/>
        <pt x="944" y="155" on="0"/>
        <pt x="805" y="16" on="0"/>
        <pt x="711" y="-24" on="1"/>
        <pt x="618" y="-64" on="0"/>
        <pt x="512" y="-64" on="1"/>
        <pt x="406" y="-64" on="0"/>
        <pt x="313" y="-24" on="1"/>
        <pt x="219" y="16" on="0"/>
        <pt x="80" y="155" on="0"/>
        <pt x="40" y="249" on="1"/>
        <pt x="0" y="342" on="0"/>
        <pt x="0" y="448" on="1"/>
        <pt x="0" y="554" on="0"/>
        <pt x="40" y="647" on="1"/>
        <pt x="80" y="741" on="0"/>
        <pt x="219" y="880" on="0"/>
        <pt x="313" y="920" on="1"/>
        <pt x="406" y="960" on="0"/>
        <pt x="512" y="960" on="1"/>
        <pt x="618" y="960" on="0"/>
        <pt x="711" y="920" on="1"/>
        <pt x="805" y="880" on="0"/>
        <pt x="944" y="741" on="0"/>
        <pt x="984" y="647" on="1"/>
        <pt x="1024" y="554" on="0"/>
      </contour>
    </TTGlyph>
    <TTGlyph name="uniE910" xMin="85" yMin="107" xMax="939" yMax="832">
      <contour>
        <pt x="939" y="320" on="1"/>
        <pt x="422" y="320" on="1"/>
        <pt x="410" y="374" on="0"/>
        <pt x="317" y="448" on="0"/>
        <pt x="256" y="448" on="1"/>
        <pt x="186" y="448" on="0"/>
        <pt x="85" y="348" on="0"/>
        <pt x="85" y="277" on="1"/>
        <pt x="85" y="207" on="0"/>
        <pt x="186" y="107" on="0"/>
        <pt x="256" y="107" on="1"/>
        <pt x="317" y="107" on="0"/>
        <pt x="406" y="180" on="0"/>
        <pt x="422" y="235" on="1"/>
        <pt x="939" y="235" on="1"/>
        <pt x="939" y="320" on="1"/>
      </contour>
      <contour>
        <pt x="256" y="192" on="1"/>
        <pt x="221" y="192" on="0"/>
        <pt x="171" y="242" on="0"/>
        <pt x="171" y="277" on="1"/>
        <pt x="171" y="313" on="0"/>
        <pt x="221" y="363" on="0"/>
        <pt x="256" y="363" on="1"/>
        <pt x="291" y="363" on="0"/>
        <pt x="341" y="313" on="0"/>
        <pt x="341" y="277" on="1"/>
        <pt x="341" y="242" on="0"/>
        <pt x="291" y="192" on="0"/>
        <pt x="256" y="192" on="1"/>
      </contour>
      <contour>
        <pt x="768" y="832" on="1"/>
        <pt x="707" y="832" on="0"/>
        <pt x="618" y="758" on="0"/>
        <pt x="602" y="704" on="1"/>
        <pt x="85" y="704" on="1"/>
        <pt x="85" y="619" on="1"/>
        <pt x="602" y="619" on="1"/>
        <pt x="614" y="564" on="0"/>
        <pt x="707" y="491" on="0"/>
        <pt x="768" y="491" on="1"/>
        <pt x="838" y="491" on="0"/>
        <pt x="939" y="591" on="0"/>
        <pt x="939" y="661" on="1"/>
        <pt x="939" y="732" on="0"/>
        <pt x="838" y="832" on="0"/>
        <pt x="768" y="832" on="1"/>
      </contour>
      <contour>
        <pt x="768" y="576" on="1"/>
        <pt x="733" y="576" on="0"/>
        <pt x="683" y="626" on="0"/>
        <pt x="683" y="661" on="1"/>
        <pt x="683" y="697" on="0"/>
        <pt x="733" y="747" on="0"/>
        <pt x="768" y="747" on="1"/>
        <pt x="803" y="747" on="0"/>
        <pt x="853" y="697" on="0"/>
        <pt x="853" y="661" on="1"/>
        <pt x="853" y="626" on="0"/>
        <pt x="803" y="576" on="0"/>
      </contour>
    </TTGlyph>
    <TTGlyph name="uniE911" xMin="0" yMin="107" xMax="1024" yMax="789">
      <contour>
        <pt x="0" y="107" on="1"/>
        <pt x="1024" y="107" on="1"/>
        <pt x="1024" y="220" on="1"/>
        <pt x="0" y="220" on="1"/>
      </contour>
      <contour>
        <pt x="0" y="391" on="1"/>
        <pt x="1024" y="391" on="1"/>
        <pt x="1024" y="505" on="1"/>
        <pt x="0" y="505" on="1"/>
      </contour>
      <contour>
        <pt x="0" y="789" on="1"/>
        <pt x="0" y="676" on="1"/>
        <pt x="1024" y="676" on="1"/>
        <pt x="1024" y="789" on="1"/>
        <pt x="0" y="789" on="1"/>
      </contour>
    </TTGlyph>
    <TTGlyph name="uniE912" xMin="469" yMin="388" xMax="563" yMax="508">
      <contour>
        <pt x="469" y="508" on="1"/>
        <pt x="469" y="388" on="1"/>
        <pt x="563" y="448" on="1"/>
      </contour>
    </TTGlyph>
    <TTGlyph name="uniE913" xMin="0" yMin="-64" xMax="1024" yMax="960">
      <contour>
        <pt x="512" y="960" on="1"/>
        <pt x="460" y="960" on="0"/>
        <pt x="411" y="950" on="1"/>
        <pt x="361" y="940" on="0"/>
        <pt x="269" y="901" on="0"/>
        <pt x="227" y="874" on="1"/>
        <pt x="185" y="846" on="0"/>
        <pt x="148" y="812" on="1"/>
        <pt x="112" y="777" on="0"/>
        <pt x="84" y="735" on="1"/>
        <pt x="56" y="694" on="0"/>
        <pt x="19" y="600" on="0"/>
        <pt x="10" y="550" on="1"/>
        <pt x="0" y="500" on="0"/>
        <pt x="0" y="448" on="1"/>
        <pt x="0" y="396" on="0"/>
        <pt x="10" y="347" on="1"/>
        <pt x="20" y="297" on="0"/>
        <pt x="59" y="205" on="0"/>
        <pt x="86" y="163" on="1"/>
        <pt x="114" y="121" on="0"/>
        <pt x="148" y="84" on="1"/>
        <pt x="183" y="48" on="0"/>
        <pt x="225" y="20" on="1"/>
        <pt x="266" y="-8" on="0"/>
        <pt x="360" y="-45" on="0"/>
        <pt x="410" y="-54" on="1"/>
        <pt x="460" y="-64" on="0"/>
        <pt x="512" y="-64" on="1"/>
        <pt x="564" y="-64" on="0"/>
        <pt x="613" y="-54" on="1"/>
        <pt x="663" y="-44" on="0"/>
        <pt x="755" y="-5" on="0"/>
        <pt x="797" y="22" on="1"/>
        <pt x="839" y="50" on="0"/>
        <pt x="876" y="84" on="1"/>
        <pt x="912" y="121" on="0"/>
        <pt x="940" y="163" on="1"/>
        <pt x="968" y="205" on="0"/>
        <pt x="1005" y="297" on="0"/>
        <pt x="1014" y="347" on="1"/>
        <pt x="1024" y="396" on="0"/>
        <pt x="1024" y="448" on="1"/>
        <pt x="1024" y="500" on="0"/>
        <pt x="1014" y="549" on="1"/>
        <pt x="1004" y="599" on="0"/>
        <pt x="965" y="691" on="0"/>
        <pt x="938" y="733" on="1"/>
        <pt x="910" y="775" on="0"/>
        <pt x="876" y="812" on="1"/>
        <pt x="839" y="846" on="0"/>
        <pt x="797" y="874" on="1"/>
        <pt x="755" y="901" on="0"/>
        <pt x="663" y="940" on="0"/>
        <pt x="613" y="950" on="1"/>
        <pt x="564" y="960" on="0"/>
      </contour>
      <contour>
        <pt x="512" y="8" on="1"/>
        <pt x="468" y="8" on="0"/>
        <pt x="425" y="16" on="1"/>
        <pt x="382" y="25" on="0"/>
        <pt x="303" y="57" on="0"/>
        <pt x="266" y="81" on="1"/>
        <pt x="230" y="105" on="0"/>
        <pt x="200" y="136" on="1"/>
        <pt x="169" y="166" on="0"/>
        <pt x="145" y="202" on="1"/>
        <pt x="121" y="239" on="0"/>
        <pt x="89" y="318" on="0"/>
        <pt x="80" y="361" on="1"/>
        <pt x="72" y="404" on="0"/>
        <pt x="72" y="448" on="1"/>
        <pt x="72" y="492" on="0"/>
        <pt x="80" y="535" on="1"/>
        <pt x="89" y="578" on="0"/>
        <pt x="121" y="657" on="0"/>
        <pt x="145" y="694" on="1"/>
        <pt x="169" y="730" on="0"/>
        <pt x="200" y="760" on="1"/>
        <pt x="230" y="791" on="0"/>
        <pt x="266" y="815" on="1"/>
        <pt x="303" y="839" on="0"/>
        <pt x="382" y="871" on="0"/>
        <pt x="425" y="880" on="1"/>
        <pt x="468" y="888" on="0"/>
        <pt x="512" y="888" on="1"/>
        <pt x="556" y="888" on="0"/>
        <pt x="599" y="880" on="1"/>
        <pt x="642" y="871" on="0"/>
        <pt x="721" y="839" on="0"/>
        <pt x="758" y="815" on="1"/>
        <pt x="794" y="791" on="0"/>
        <pt x="824" y="760" on="1"/>
        <pt x="855" y="730" on="0"/>
        <pt x="879" y="694" on="1"/>
        <pt x="903" y="657" on="0"/>
        <pt x="935" y="578" on="0"/>
        <pt x="944" y="535" on="1"/>
        <pt x="952" y="492" on="0"/>
        <pt x="952" y="448" on="1"/>
        <pt x="952" y="404" on="0"/>
        <pt x="944" y="361" on="1"/>
        <pt x="935" y="318" on="0"/>
        <pt x="903" y="239" on="0"/>
        <pt x="879" y="202" on="1"/>
        <pt x="855" y="166" on="0"/>
        <pt x="824" y="136" on="1"/>
        <pt x="794" y="105" on="0"/>
        <pt x="758" y="81" on="1"/>
        <pt x="721" y="57" on="0"/>
        <pt x="642" y="25" on="0"/>
        <pt x="599" y="16" on="1"/>
        <pt x="556" y="8" on="0"/>
        <pt x="512" y="8" on="1"/>
        <pt x="512" y="8" on="1"/>
      </contour>
      <contour>
        <pt x="384" y="684" on="1"/>
        <pt x="384" y="212" on="1"/>
        <pt x="722" y="453" on="1"/>
      </contour>
    </TTGlyph>
    <TTGlyph name="uniE914" xMin="0" yMin="-64" xMax="1024" yMax="960">
      <contour>
        <pt x="512" y="960" on="1"/>
        <pt x="461" y="960" on="0"/>
        <pt x="412" y="950" on="1"/>
        <pt x="362" y="940" on="0"/>
        <pt x="270" y="902" on="0"/>
        <pt x="228" y="874" on="1"/>
        <pt x="186" y="846" on="0"/>
        <pt x="150" y="810" on="1"/>
        <pt x="114" y="774" on="0"/>
        <pt x="86" y="732" on="1"/>
        <pt x="58" y="690" on="0"/>
        <pt x="20" y="598" on="0"/>
        <pt x="10" y="548" on="1"/>
        <pt x="0" y="499" on="0"/>
        <pt x="0" y="448" on="1"/>
        <pt x="0" y="397" on="0"/>
        <pt x="10" y="348" on="1"/>
        <pt x="20" y="298" on="0"/>
        <pt x="58" y="206" on="0"/>
        <pt x="86" y="164" on="1"/>
        <pt x="114" y="122" on="0"/>
        <pt x="150" y="86" on="1"/>
        <pt x="186" y="50" on="0"/>
        <pt x="228" y="22" on="1"/>
        <pt x="270" y="-6" on="0"/>
        <pt x="362" y="-44" on="0"/>
        <pt x="412" y="-54" on="1"/>
        <pt x="461" y="-64" on="0"/>
        <pt x="512" y="-64" on="1"/>
        <pt x="563" y="-64" on="0"/>
        <pt x="612" y="-54" on="1"/>
        <pt x="662" y="-44" on="0"/>
        <pt x="754" y="-6" on="0"/>
        <pt x="796" y="22" on="1"/>
        <pt x="838" y="50" on="0"/>
        <pt x="874" y="86" on="1"/>
        <pt x="910" y="122" on="0"/>
        <pt x="938" y="164" on="1"/>
        <pt x="966" y="206" on="0"/>
        <pt x="1004" y="298" on="0"/>
        <pt x="1014" y="348" on="1"/>
        <pt x="1024" y="397" on="0"/>
        <pt x="1024" y="448" on="1"/>
        <pt x="1024" y="499" on="0"/>
        <pt x="1014" y="548" on="1"/>
        <pt x="1004" y="598" on="0"/>
        <pt x="966" y="690" on="0"/>
        <pt x="938" y="732" on="1"/>
        <pt x="910" y="774" on="0"/>
        <pt x="874" y="810" on="1"/>
        <pt x="838" y="846" on="0"/>
        <pt x="796" y="874" on="1"/>
        <pt x="754" y="902" on="0"/>
        <pt x="662" y="940" on="0"/>
        <pt x="612" y="950" on="1"/>
        <pt x="563" y="960" on="0"/>
      </contour>
      <contour>
        <pt x="512" y="7" on="1"/>
        <pt x="468" y="7" on="0"/>
        <pt x="426" y="16" on="1"/>
        <pt x="383" y="25" on="0"/>
        <pt x="304" y="57" on="0"/>
        <pt x="268" y="81" on="1"/>
        <pt x="231" y="105" on="0"/>
        <pt x="200" y="136" on="1"/>
        <pt x="169" y="167" on="0"/>
        <pt x="145" y="204" on="1"/>
        <pt x="121" y="240" on="0"/>
        <pt x="89" y="319" on="0"/>
        <pt x="80" y="362" on="1"/>
        <pt x="71" y="404" on="0"/>
        <pt x="71" y="448" on="1"/>
        <pt x="71" y="492" on="0"/>
        <pt x="80" y="534" on="1"/>
        <pt x="89" y="577" on="0"/>
        <pt x="121" y="656" on="0"/>
        <pt x="145" y="692" on="1"/>
        <pt x="169" y="729" on="0"/>
        <pt x="200" y="760" on="1"/>
        <pt x="231" y="791" on="0"/>
        <pt x="268" y="815" on="1"/>
        <pt x="304" y="839" on="0"/>
        <pt x="383" y="871" on="0"/>
        <pt x="426" y="880" on="1"/>
        <pt x="468" y="889" on="0"/>
        <pt x="512" y="889" on="1"/>
        <pt x="556" y="889" on="0"/>
        <pt x="598" y="880" on="1"/>
        <pt x="641" y="871" on="0"/>
        <pt x="720" y="839" on="0"/>
        <pt x="756" y="815" on="1"/>
        <pt x="793" y="791" on="0"/>
        <pt x="824" y="760" on="1"/>
        <pt x="855" y="729" on="0"/>
        <pt x="879" y="692" on="1"/>
        <pt x="903" y="656" on="0"/>
        <pt x="935" y="577" on="0"/>
        <pt x="944" y="534" on="1"/>
        <pt x="953" y="492" on="0"/>
        <pt x="953" y="448" on="1"/>
        <pt x="953" y="404" on="0"/>
        <pt x="944" y="362" on="1"/>
        <pt x="935" y="319" on="0"/>
        <pt x="902" y="240" on="0"/>
        <pt x="878" y="204" on="1"/>
        <pt x="854" y="168" on="0"/>
        <pt x="823" y="137" on="1"/>
        <pt x="792" y="106" on="0"/>
        <pt x="756" y="82" on="1"/>
        <pt x="720" y="58" on="0"/>
        <pt x="641" y="25" on="0"/>
        <pt x="598" y="16" on="1"/>
        <pt x="556" y="8" on="0"/>
        <pt x="512" y="7" on="1"/>
      </contour>
      <contour>
        <pt x="400" y="691" on="1"/>
        <pt x="405" y="691" on="1"/>
        <pt x="419" y="691" on="0"/>
        <pt x="438" y="669" on="0"/>
        <pt x="438" y="658" on="1"/>
        <pt x="438" y="248" on="1"/>
        <pt x="438" y="234" on="0"/>
        <pt x="419" y="215" on="0"/>
        <pt x="405" y="215" on="1"/>
        <pt x="400" y="215" on="1"/>
        <pt x="386" y="215" on="0"/>
        <pt x="367" y="237" on="0"/>
        <pt x="367" y="248" on="1"/>
        <pt x="367" y="658" on="1"/>
        <pt x="367" y="671" on="0"/>
        <pt x="386" y="691" on="0"/>
      </contour>
      <contour>
        <pt x="631" y="691" on="1"/>
        <pt x="636" y="691" on="1"/>
        <pt x="650" y="691" on="0"/>
        <pt x="669" y="669" on="0"/>
        <pt x="669" y="658" on="1"/>
        <pt x="669" y="248" on="1"/>
        <pt x="669" y="234" on="0"/>
        <pt x="650" y="215" on="0"/>
        <pt x="636" y="215" on="1"/>
        <pt x="631" y="215" on="1"/>
        <pt x="617" y="215" on="0"/>
        <pt x="598" y="237" on="0"/>
        <pt x="598" y="248" on="1"/>
        <pt x="598" y="658" on="1"/>
        <pt x="598" y="671" on="0"/>
        <pt x="617" y="691" on="0"/>
      </contour>
    </TTGlyph>
    <TTGlyph name="uniE915" xMin="0" yMin="-64" xMax="1024" yMax="960">
      <contour>
        <pt x="917" y="533" on="1"/>
        <pt x="588" y="216" on="1"/>
        <pt x="588" y="960" on="1"/>
        <pt x="436" y="960" on="1"/>
        <pt x="436" y="216" on="1"/>
        <pt x="107" y="533" on="1"/>
        <pt x="0" y="430" on="1"/>
        <pt x="512" y="-64" on="1"/>
        <pt x="1024" y="430" on="1"/>
      </contour>
    </TTGlyph>
    <TTGlyph name="uniE916" xMin="71" yMin="-25" xMax="1174" yMax="881">
      <contour>
        <pt x="402" y="-25" on="1"/>
        <pt x="378" y="-25" on="0"/>
        <pt x="333" y="-5" on="0"/>
        <pt x="315" y="7" on="1"/>
        <pt x="71" y="259" on="1"/>
        <pt x="35" y="294" on="0"/>
        <pt x="35" y="389" on="0"/>
        <pt x="71" y="424" on="1"/>
        <pt x="106" y="460" on="0"/>
        <pt x="201" y="460" on="0"/>
        <pt x="236" y="424" on="1"/>
        <pt x="394" y="259" on="1"/>
        <pt x="1008" y="881" on="1"/>
        <pt x="1044" y="917" on="0"/>
        <pt x="1138" y="917" on="0"/>
        <pt x="1174" y="881" on="1"/>
        <pt x="1209" y="846" on="0"/>
        <pt x="1209" y="751" on="0"/>
        <pt x="1174" y="716" on="1"/>
        <pt x="473" y="7" on="1"/>
        <pt x="467" y="-5" on="0"/>
        <pt x="425" y="-25" on="0"/>
        <pt x="402" y="-25" on="1"/>
      </contour>
    </TTGlyph>
    <TTGlyph name="uniE917" xMin="56" yMin="-64" xMax="1294" yMax="895">
      <contour>
        <pt x="465" y="-64" on="1"/>
        <pt x="56" y="346" on="1"/>
        <pt x="186" y="476" on="1"/>
        <pt x="465" y="197" on="1"/>
        <pt x="1164" y="895" on="1"/>
        <pt x="1294" y="765" on="1"/>
      </contour>
    </TTGlyph>
    <TTGlyph name="uniE918" xMin="0" yMin="-64" xMax="1024" yMax="960">
      <contour>
        <pt x="512" y="-64" on="1"/>
        <pt x="406" y="-64" on="0"/>
        <pt x="313" y="-24" on="1"/>
        <pt x="219" y="16" on="0"/>
        <pt x="80" y="155" on="0"/>
        <pt x="40" y="249" on="1"/>
        <pt x="0" y="342" on="0"/>
        <pt x="0" y="448" on="1"/>
        <pt x="0" y="554" on="0"/>
        <pt x="40" y="647" on="1"/>
        <pt x="80" y="741" on="0"/>
        <pt x="219" y="880" on="0"/>
        <pt x="313" y="920" on="1"/>
        <pt x="406" y="960" on="0"/>
        <pt x="512" y="960" on="1"/>
        <pt x="618" y="960" on="0"/>
        <pt x="711" y="920" on="1"/>
        <pt x="805" y="880" on="0"/>
        <pt x="944" y="741" on="0"/>
        <pt x="984" y="647" on="1"/>
        <pt x="1024" y="554" on="0"/>
        <pt x="1024" y="448" on="1"/>
        <pt x="1024" y="342" on="0"/>
        <pt x="984" y="249" on="1"/>
        <pt x="944" y="155" on="0"/>
        <pt x="805" y="16" on="0"/>
        <pt x="711" y="-24" on="1"/>
        <pt x="618" y="-64" on="0"/>
      </contour>
      <contour>
        <pt x="512" y="704" on="1"/>
        <pt x="485" y="704" on="0"/>
        <pt x="448" y="667" on="0"/>
        <pt x="448" y="640" on="1"/>
        <pt x="448" y="480" on="1"/>
        <pt x="448" y="453" on="0"/>
        <pt x="485" y="416" on="0"/>
        <pt x="512" y="416" on="1"/>
        <pt x="539" y="416" on="0"/>
        <pt x="576" y="453" on="0"/>
        <pt x="576" y="480" on="1"/>
        <pt x="576" y="640" on="1"/>
        <pt x="576" y="667" on="0"/>
        <pt x="539" y="704" on="0"/>
      </contour>
      <contour>
        <pt x="512" y="192" on="1"/>
        <pt x="539" y="192" on="0"/>
        <pt x="576" y="229" on="0"/>
        <pt x="576" y="256" on="1"/>
        <pt x="576" y="283" on="0"/>
        <pt x="539" y="320" on="0"/>
        <pt x="512" y="320" on="1"/>
        <pt x="485" y="320" on="0"/>
        <pt x="448" y="283" on="0"/>
        <pt x="448" y="256" on="1"/>
        <pt x="448" y="229" on="0"/>
        <pt x="485" y="192" on="0"/>
      </contour>
    </TTGlyph>
    <TTGlyph name="uniE919" xMin="0" yMin="-20" xMax="1390" yMax="931">
      <contour>
        <pt x="1295" y="850" on="1"/>
        <pt x="1280" y="872" on="1"/>
        <pt x="1273" y="865" on="1"/>
        <pt x="1234" y="892" on="0"/>
        <pt x="1145" y="931" on="0"/>
        <pt x="1090" y="931" on="1"/>
        <pt x="293" y="931" on="1"/>
        <pt x="243" y="931" on="0"/>
        <pt x="157" y="901" on="0"/>
        <pt x="124" y="880" on="1"/>
        <pt x="117" y="880" on="1"/>
        <pt x="88" y="843" on="1"/>
        <pt x="71" y="827" on="0"/>
        <pt x="48" y="792" on="0"/>
        <pt x="37" y="770" on="1"/>
        <pt x="29" y="763" on="1"/>
        <pt x="18" y="735" on="0"/>
        <pt x="0" y="671" on="0"/>
        <pt x="0" y="638" on="1"/>
        <pt x="0" y="272" on="1"/>
        <pt x="0" y="212" on="0"/>
        <pt x="23" y="159" on="1"/>
        <pt x="46" y="106" on="0"/>
        <pt x="126" y="26" on="0"/>
        <pt x="179" y="3" on="1"/>
        <pt x="232" y="-20" on="0"/>
        <pt x="293" y="-20" on="1"/>
        <pt x="1097" y="-20" on="1"/>
        <pt x="1157" y="-20" on="0"/>
        <pt x="1211" y="3" on="1"/>
        <pt x="1264" y="26" on="0"/>
        <pt x="1344" y="106" on="0"/>
        <pt x="1367" y="159" on="1"/>
        <pt x="1390" y="212" on="0"/>
        <pt x="1390" y="272" on="1"/>
        <pt x="1390" y="638" on="1"/>
        <pt x="1390" y="699" on="0"/>
        <pt x="1339" y="812" on="0"/>
        <pt x="1295" y="850" on="1"/>
      </contour>
      <contour>
        <pt x="293" y="784" on="1"/>
        <pt x="1097" y="784" on="1"/>
        <pt x="1108" y="784" on="0"/>
        <pt x="1132" y="783" on="0"/>
        <pt x="1148" y="777" on="1"/>
        <pt x="695" y="455" on="1"/>
        <pt x="256" y="770" on="1"/>
        <pt x="267" y="775" on="0"/>
        <pt x="282" y="784" on="0"/>
        <pt x="293" y="784" on="1"/>
      </contour>
      <contour>
        <pt x="1243" y="272" on="1"/>
        <pt x="1243" y="212" on="0"/>
        <pt x="1157" y="126" on="0"/>
        <pt x="1097" y="126" on="1"/>
        <pt x="293" y="126" on="1"/>
        <pt x="232" y="126" on="0"/>
        <pt x="146" y="212" on="0"/>
        <pt x="146" y="272" on="1"/>
        <pt x="146" y="638" on="1"/>
        <pt x="146" y="649" on="0"/>
        <pt x="148" y="664" on="0"/>
        <pt x="154" y="675" on="1"/>
        <pt x="614" y="346" on="1"/>
        <pt x="631" y="329" on="0"/>
        <pt x="680" y="316" on="0"/>
        <pt x="702" y="316" on="1"/>
        <pt x="724" y="316" on="0"/>
        <pt x="766" y="329" on="0"/>
        <pt x="783" y="346" on="1"/>
        <pt x="1243" y="660" on="1"/>
        <pt x="1243" y="655" on="0"/>
        <pt x="1243" y="642" on="0"/>
        <pt x="1243" y="631" on="1"/>
        <pt x="1243" y="272" on="1"/>
      </contour>
    </TTGlyph>
    <TTGlyph name="uniE91A" xMin="0" yMin="-64" xMax="1024" yMax="960">
      <contour>
        <pt x="192" y="-64" on="1"/>
        <pt x="192" y="243" on="1"/>
        <pt x="110" y="243" on="0"/>
        <pt x="0" y="354" on="0"/>
        <pt x="0" y="435" on="1"/>
        <pt x="0" y="768" on="1"/>
        <pt x="0" y="850" on="0"/>
        <pt x="110" y="960" on="0"/>
        <pt x="192" y="960" on="1"/>
        <pt x="832" y="960" on="1"/>
        <pt x="914" y="960" on="0"/>
        <pt x="1024" y="850" on="0"/>
        <pt x="1024" y="768" on="1"/>
        <pt x="1024" y="435" on="1"/>
        <pt x="1024" y="354" on="0"/>
        <pt x="914" y="243" on="0"/>
        <pt x="832" y="243" on="1"/>
        <pt x="544" y="243" on="1"/>
      </contour>
      <contour>
        <pt x="192" y="832" on="1"/>
        <pt x="163" y="832" on="0"/>
        <pt x="128" y="797" on="0"/>
        <pt x="128" y="768" on="1"/>
        <pt x="128" y="435" on="1"/>
        <pt x="128" y="406" on="0"/>
        <pt x="163" y="371" on="0"/>
        <pt x="192" y="371" on="1"/>
        <pt x="320" y="371" on="1"/>
        <pt x="320" y="218" on="1"/>
        <pt x="493" y="371" on="1"/>
        <pt x="832" y="371" on="1"/>
        <pt x="861" y="371" on="0"/>
        <pt x="896" y="406" on="0"/>
        <pt x="896" y="435" on="1"/>
        <pt x="896" y="768" on="1"/>
        <pt x="896" y="797" on="0"/>
        <pt x="861" y="832" on="0"/>
        <pt x="832" y="832" on="1"/>
      </contour>
    </TTGlyph>
    <TTGlyph name="uniE91B" xMin="51" yMin="-2" xMax="962" yMax="909">
      <contour>
        <pt x="422" y="909" on="1"/>
        <pt x="346" y="909" on="0"/>
        <pt x="278" y="880" on="1"/>
        <pt x="211" y="850" on="0"/>
        <pt x="110" y="749" on="0"/>
        <pt x="80" y="682" on="1"/>
        <pt x="51" y="614" on="0"/>
        <pt x="51" y="538" on="1"/>
        <pt x="51" y="461" on="0"/>
        <pt x="80" y="393" on="1"/>
        <pt x="110" y="326" on="0"/>
        <pt x="211" y="225" on="0"/>
        <pt x="278" y="196" on="1"/>
        <pt x="346" y="166" on="0"/>
        <pt x="422" y="166" on="1"/>
        <pt x="489" y="166" on="0"/>
        <pt x="608" y="211" on="0"/>
        <pt x="656" y="250" on="1"/>
        <pt x="907" y="-2" on="1"/>
        <pt x="918" y="-13" on="0"/>
        <pt x="950" y="-13" on="0"/>
        <pt x="962" y="-2" on="1"/>
        <pt x="973" y="10" on="0"/>
        <pt x="973" y="41" on="0"/>
        <pt x="962" y="52" on="1"/>
        <pt x="710" y="304" on="1"/>
        <pt x="749" y="352" on="0"/>
        <pt x="794" y="471" on="0"/>
        <pt x="794" y="538" on="1"/>
        <pt x="794" y="614" on="0"/>
        <pt x="764" y="682" on="1"/>
        <pt x="735" y="749" on="0"/>
        <pt x="634" y="850" on="0"/>
        <pt x="567" y="880" on="1"/>
        <pt x="499" y="909" on="0"/>
        <pt x="422" y="909" on="1"/>
        <pt x="422" y="909" on="1"/>
      </contour>
      <contour>
        <pt x="422" y="832" on="1"/>
        <pt x="484" y="832" on="0"/>
        <pt x="537" y="809" on="1"/>
        <pt x="591" y="786" on="0"/>
        <pt x="671" y="706" on="0"/>
        <pt x="694" y="652" on="1"/>
        <pt x="717" y="599" on="0"/>
        <pt x="717" y="538" on="1"/>
        <pt x="717" y="476" on="0"/>
        <pt x="694" y="423" on="1"/>
        <pt x="671" y="369" on="0"/>
        <pt x="591" y="289" on="0"/>
        <pt x="537" y="266" on="1"/>
        <pt x="484" y="243" on="0"/>
        <pt x="422" y="243" on="1"/>
        <pt x="361" y="243" on="0"/>
        <pt x="308" y="266" on="1"/>
        <pt x="254" y="289" on="0"/>
        <pt x="174" y="369" on="0"/>
        <pt x="151" y="423" on="1"/>
        <pt x="128" y="476" on="0"/>
        <pt x="128" y="538" on="1"/>
        <pt x="128" y="599" on="0"/>
        <pt x="151" y="652" on="1"/>
        <pt x="174" y="706" on="0"/>
        <pt x="254" y="786" on="0"/>
        <pt x="308" y="809" on="1"/>
        <pt x="361" y="832" on="0"/>
      </contour>
    </TTGlyph>
    <TTGlyph name="uniE91C" xMin="0" yMin="-64" xMax="1024" yMax="960">
      <contour>
        <pt x="353" y="697" on="1"/>
        <pt x="371" y="687" on="1"/>
        <pt x="359" y="671" on="1"/>
        <pt x="353" y="697" on="1"/>
      </contour>
      <contour>
        <pt x="595" y="733" on="1"/>
        <pt x="601" y="716" on="1"/>
        <pt x="587" y="708" on="1"/>
        <pt x="581" y="731" on="1"/>
        <pt x="595" y="733" on="1"/>
        <pt x="595" y="733" on="1"/>
      </contour>
      <contour>
        <pt x="327" y="803" on="1"/>
        <pt x="344" y="795" on="1"/>
        <pt x="344" y="780" on="1"/>
        <pt x="329" y="780" on="1"/>
        <pt x="313" y="793" on="1"/>
        <pt x="327" y="803" on="1"/>
      </contour>
      <contour>
        <pt x="556" y="807" on="1"/>
        <pt x="567" y="795" on="1"/>
        <pt x="545" y="780" on="1"/>
        <pt x="533" y="788" on="1"/>
        <pt x="535" y="800" on="1"/>
        <pt x="541" y="799" on="1"/>
        <pt x="556" y="807" on="1"/>
      </contour>
      <contour>
        <pt x="728" y="832" on="1"/>
        <pt x="751" y="824" on="1"/>
        <pt x="792" y="816" on="1"/>
        <pt x="783" y="804" on="1"/>
        <pt x="759" y="804" on="1"/>
        <pt x="783" y="780" on="1"/>
        <pt x="800" y="800" on="1"/>
        <pt x="805" y="809" on="1"/>
        <pt x="805" y="809" on="0"/>
        <pt x="881" y="733" on="0"/>
        <pt x="909" y="684" on="1"/>
        <pt x="938" y="635" on="0"/>
        <pt x="965" y="537" on="0"/>
        <pt x="965" y="525" on="1"/>
        <pt x="953" y="511" on="1"/>
        <pt x="947" y="518" on="0"/>
        <pt x="934" y="530" on="0"/>
        <pt x="927" y="536" on="1"/>
        <pt x="907" y="533" on="1"/>
        <pt x="889" y="555" on="1"/>
        <pt x="889" y="528" on="1"/>
        <pt x="904" y="517" on="1"/>
        <pt x="916" y="504" on="1"/>
        <pt x="929" y="521" on="1"/>
        <pt x="932" y="516" on="0"/>
        <pt x="936" y="506" on="0"/>
        <pt x="939" y="501" on="1"/>
        <pt x="939" y="481" on="1"/>
        <pt x="924" y="464" on="1"/>
        <pt x="895" y="444" on="1"/>
        <pt x="875" y="423" on="1"/>
        <pt x="882" y="423" on="0"/>
        <pt x="897" y="426" on="0"/>
        <pt x="904" y="427" on="1"/>
        <pt x="904" y="412" on="1"/>
        <pt x="883" y="360" on="1"/>
        <pt x="864" y="340" on="1"/>
        <pt x="848" y="307" on="1"/>
        <pt x="848" y="251" on="1"/>
        <pt x="853" y="229" on="1"/>
        <pt x="845" y="220" on="1"/>
        <pt x="827" y="207" on="1"/>
        <pt x="807" y="191" on="1"/>
        <pt x="823" y="172" on="1"/>
        <pt x="800" y="152" on="1"/>
        <pt x="804" y="139" on="1"/>
        <pt x="771" y="101" on="1"/>
        <pt x="748" y="101" on="1"/>
        <pt x="728" y="88" on="1"/>
        <pt x="716" y="88" on="1"/>
        <pt x="716" y="105" on="1"/>
        <pt x="712" y="136" on="1"/>
        <pt x="707" y="151" on="0"/>
        <pt x="696" y="181" on="0"/>
        <pt x="691" y="196" on="1"/>
        <pt x="691" y="207" on="0"/>
        <pt x="691" y="228" on="0"/>
        <pt x="692" y="239" on="1"/>
        <pt x="700" y="259" on="1"/>
        <pt x="688" y="283" on="1"/>
        <pt x="689" y="315" on="1"/>
        <pt x="673" y="335" on="1"/>
        <pt x="681" y="360" on="1"/>
        <pt x="667" y="376" on="1"/>
        <pt x="644" y="376" on="1"/>
        <pt x="636" y="384" on="1"/>
        <pt x="613" y="371" on="1"/>
        <pt x="603" y="380" on="1"/>
        <pt x="583" y="361" on="1"/>
        <pt x="572" y="374" on="0"/>
        <pt x="548" y="399" on="0"/>
        <pt x="537" y="412" on="1"/>
        <pt x="519" y="453" on="1"/>
        <pt x="535" y="477" on="1"/>
        <pt x="527" y="488" on="1"/>
        <pt x="545" y="532" on="1"/>
        <pt x="557" y="547" on="0"/>
        <pt x="582" y="575" on="0"/>
        <pt x="595" y="589" on="1"/>
        <pt x="624" y="597" on="1"/>
        <pt x="657" y="601" on="1"/>
        <pt x="680" y="595" on="1"/>
        <pt x="712" y="563" on="1"/>
        <pt x="723" y="575" on="1"/>
        <pt x="740" y="579" on="1"/>
        <pt x="769" y="568" on="1"/>
        <pt x="791" y="568" on="1"/>
        <pt x="807" y="583" on="1"/>
        <pt x="813" y="592" on="1"/>
        <pt x="799" y="601" on="1"/>
        <pt x="772" y="603" on="1"/>
        <pt x="767" y="610" on="0"/>
        <pt x="756" y="625" on="0"/>
        <pt x="749" y="632" on="1"/>
        <pt x="741" y="629" on="1"/>
        <pt x="737" y="603" on="1"/>
        <pt x="721" y="621" on="1"/>
        <pt x="719" y="641" on="1"/>
        <pt x="700" y="655" on="1"/>
        <pt x="693" y="655" on="1"/>
        <pt x="712" y="635" on="1"/>
        <pt x="705" y="617" on="1"/>
        <pt x="691" y="613" on="1"/>
        <pt x="699" y="631" on="1"/>
        <pt x="684" y="640" on="1"/>
        <pt x="669" y="655" on="1"/>
        <pt x="644" y="649" on="1"/>
        <pt x="639" y="641" on="1"/>
        <pt x="624" y="631" on="1"/>
        <pt x="616" y="609" on="1"/>
        <pt x="593" y="599" on="1"/>
        <pt x="584" y="609" on="1"/>
        <pt x="573" y="609" on="1"/>
        <pt x="573" y="645" on="1"/>
        <pt x="596" y="656" on="1"/>
        <pt x="615" y="656" on="1"/>
        <pt x="609" y="671" on="1"/>
        <pt x="596" y="684" on="1"/>
        <pt x="620" y="689" on="1"/>
        <pt x="632" y="704" on="1"/>
        <pt x="637" y="713" on="1"/>
        <pt x="624" y="700" on="1"/>
        <pt x="604" y="696" on="1"/>
        <pt x="608" y="720" on="1"/>
        <pt x="608" y="737" on="1"/>
        <pt x="601" y="745" on="1"/>
        <pt x="601" y="756" on="1"/>
        <pt x="611" y="756" on="1"/>
        <pt x="615" y="748" on="0"/>
        <pt x="622" y="734" on="0"/>
        <pt x="625" y="725" on="1"/>
        <pt x="637" y="713" on="1"/>
        <pt x="644" y="721" on="1"/>
        <pt x="663" y="721" on="1"/>
        <pt x="657" y="736" on="1"/>
        <pt x="669" y="743" on="1"/>
        <pt x="669" y="727" on="1"/>
        <pt x="695" y="721" on="1"/>
        <pt x="721" y="743" on="1"/>
        <pt x="723" y="753" on="1"/>
        <pt x="745" y="769" on="1"/>
        <pt x="739" y="769" on="0"/>
        <pt x="727" y="767" on="0"/>
        <pt x="721" y="765" on="1"/>
        <pt x="721" y="783" on="1"/>
        <pt x="729" y="803" on="1"/>
        <pt x="721" y="803" on="1"/>
        <pt x="701" y="784" on="1"/>
        <pt x="697" y="775" on="1"/>
        <pt x="701" y="761" on="1"/>
        <pt x="693" y="737" on="1"/>
        <pt x="680" y="745" on="1"/>
        <pt x="667" y="759" on="1"/>
        <pt x="649" y="745" on="1"/>
        <pt x="641" y="777" on="1"/>
        <pt x="675" y="799" on="1"/>
        <pt x="675" y="811" on="1"/>
        <pt x="695" y="824" on="1"/>
        <pt x="728" y="832" on="1"/>
      </contour>
      <contour>
        <pt x="283" y="847" on="1"/>
        <pt x="292" y="831" on="1"/>
        <pt x="299" y="844" on="1"/>
        <pt x="315" y="847" on="1"/>
        <pt x="316" y="837" on="1"/>
        <pt x="349" y="835" on="1"/>
        <pt x="357" y="816" on="1"/>
        <pt x="377" y="808" on="1"/>
        <pt x="359" y="793" on="1"/>
        <pt x="350" y="799" on="0"/>
        <pt x="333" y="810" on="0"/>
        <pt x="324" y="816" on="1"/>
        <pt x="307" y="823" on="1"/>
        <pt x="301" y="819" on="0"/>
        <pt x="291" y="811" on="0"/>
        <pt x="285" y="807" on="1"/>
        <pt x="275" y="787" on="1"/>
        <pt x="259" y="787" on="1"/>
        <pt x="264" y="803" on="1"/>
        <pt x="244" y="784" on="1"/>
        <pt x="201" y="759" on="1"/>
        <pt x="205" y="741" on="1"/>
        <pt x="239" y="727" on="1"/>
        <pt x="244" y="704" on="1"/>
        <pt x="257" y="731" on="1"/>
        <pt x="275" y="737" on="1"/>
        <pt x="273" y="749" on="1"/>
        <pt x="293" y="783" on="1"/>
        <pt x="317" y="769" on="1"/>
        <pt x="315" y="753" on="1"/>
        <pt x="335" y="761" on="1"/>
        <pt x="344" y="743" on="1"/>
        <pt x="340" y="732" on="1"/>
        <pt x="352" y="727" on="1"/>
        <pt x="363" y="717" on="1"/>
        <pt x="359" y="707" on="1"/>
        <pt x="329" y="696" on="1"/>
        <pt x="309" y="696" on="1"/>
        <pt x="280" y="683" on="1"/>
        <pt x="327" y="683" on="1"/>
        <pt x="311" y="659" on="1"/>
        <pt x="280" y="652" on="1"/>
        <pt x="265" y="632" on="1"/>
        <pt x="240" y="623" on="1"/>
        <pt x="229" y="593" on="1"/>
        <pt x="196" y="565" on="1"/>
        <pt x="192" y="527" on="1"/>
        <pt x="173" y="551" on="1"/>
        <pt x="147" y="556" on="1"/>
        <pt x="143" y="544" on="1"/>
        <pt x="121" y="544" on="1"/>
        <pt x="97" y="525" on="1"/>
        <pt x="92" y="501" on="1"/>
        <pt x="93" y="479" on="1"/>
        <pt x="112" y="469" on="1"/>
        <pt x="124" y="475" on="1"/>
        <pt x="136" y="492" on="1"/>
        <pt x="148" y="492" on="1"/>
        <pt x="147" y="482" on="0"/>
        <pt x="144" y="460" on="0"/>
        <pt x="143" y="449" on="1"/>
        <pt x="164" y="451" on="1"/>
        <pt x="164" y="431" on="1"/>
        <pt x="171" y="411" on="1"/>
        <pt x="177" y="407" on="0"/>
        <pt x="194" y="405" on="0"/>
        <pt x="201" y="403" on="1"/>
        <pt x="201" y="407" on="1"/>
        <pt x="232" y="435" on="1"/>
        <pt x="261" y="412" on="1"/>
        <pt x="296" y="416" on="1"/>
        <pt x="311" y="379" on="1"/>
        <pt x="336" y="373" on="1"/>
        <pt x="351" y="345" on="1"/>
        <pt x="372" y="334" on="0"/>
        <pt x="415" y="312" on="0"/>
        <pt x="436" y="301" on="1"/>
        <pt x="433" y="273" on="1"/>
        <pt x="412" y="244" on="1"/>
        <pt x="415" y="203" on="1"/>
        <pt x="401" y="172" on="1"/>
        <pt x="375" y="165" on="1"/>
        <pt x="363" y="148" on="1"/>
        <pt x="367" y="136" on="1"/>
        <pt x="351" y="93" on="1"/>
        <pt x="328" y="84" on="1"/>
        <pt x="323" y="72" on="1"/>
        <pt x="309" y="57" on="1"/>
        <pt x="313" y="48" on="1"/>
        <pt x="313" y="48" on="0"/>
        <pt x="308" y="45" on="0"/>
        <pt x="305" y="43" on="1"/>
        <pt x="303" y="41" on="0"/>
        <pt x="246" y="71" on="0"/>
        <pt x="245" y="75" on="1"/>
        <pt x="244" y="78" on="0"/>
        <pt x="245" y="79" on="0"/>
        <pt x="245" y="79" on="1"/>
        <pt x="257" y="125" on="1"/>
        <pt x="245" y="148" on="1"/>
        <pt x="247" y="189" on="1"/>
        <pt x="233" y="208" on="1"/>
        <pt x="203" y="236" on="1"/>
        <pt x="171" y="293" on="1"/>
        <pt x="180" y="323" on="1"/>
        <pt x="176" y="331" on="1"/>
        <pt x="188" y="347" on="1"/>
        <pt x="201" y="384" on="1"/>
        <pt x="201" y="388" on="1"/>
        <pt x="191" y="392" on="1"/>
        <pt x="176" y="391" on="1"/>
        <pt x="152" y="408" on="1"/>
        <pt x="136" y="428" on="1"/>
        <pt x="100" y="437" on="1"/>
        <pt x="63" y="460" on="1"/>
        <pt x="63" y="460" on="0"/>
        <pt x="47" y="485" on="0"/>
        <pt x="47" y="488" on="1"/>
        <pt x="55" y="555" on="0"/>
        <pt x="75" y="607" on="1"/>
        <pt x="96" y="659" on="0"/>
        <pt x="145" y="737" on="0"/>
        <pt x="170" y="764" on="1"/>
        <pt x="195" y="790" on="0"/>
        <pt x="213" y="807" on="1"/>
        <pt x="216" y="807" on="0"/>
        <pt x="232" y="811" on="0"/>
        <pt x="232" y="811" on="1"/>
        <pt x="240" y="832" on="1"/>
        <pt x="255" y="831" on="1"/>
        <pt x="265" y="824" on="1"/>
        <pt x="264" y="803" on="1"/>
        <pt x="267" y="808" on="1"/>
        <pt x="281" y="820" on="1"/>
        <pt x="280" y="840" on="1"/>
        <pt x="283" y="847" on="1"/>
        <pt x="283" y="847" on="1"/>
      </contour>
      <contour>
        <pt x="385" y="895" on="1"/>
        <pt x="392" y="884" on="1"/>
        <pt x="383" y="881" on="0"/>
        <pt x="365" y="874" on="0"/>
        <pt x="356" y="869" on="1"/>
        <pt x="337" y="865" on="1"/>
        <pt x="329" y="857" on="1"/>
        <pt x="307" y="861" on="1"/>
        <pt x="312" y="868" on="1"/>
        <pt x="320" y="871" on="1"/>
        <pt x="335" y="879" on="1"/>
        <pt x="352" y="880" on="1"/>
        <pt x="363" y="892" on="1"/>
      </contour>
      <contour>
        <pt x="509" y="899" on="1"/>
        <pt x="555" y="880" on="1"/>
        <pt x="533" y="828" on="1"/>
        <pt x="514" y="819" on="0"/>
        <pt x="476" y="805" on="0"/>
        <pt x="456" y="799" on="1"/>
        <pt x="440" y="771" on="1"/>
        <pt x="425" y="764" on="1"/>
        <pt x="405" y="804" on="1"/>
        <pt x="420" y="820" on="1"/>
        <pt x="420" y="836" on="1"/>
        <pt x="380" y="864" on="1"/>
        <pt x="392" y="875" on="1"/>
        <pt x="456" y="893" on="1"/>
        <pt x="509" y="899" on="1"/>
      </contour>
      <contour>
        <pt x="512" y="960" on="1"/>
        <pt x="406" y="960" on="0"/>
        <pt x="313" y="920" on="1"/>
        <pt x="219" y="880" on="0"/>
        <pt x="80" y="741" on="0"/>
        <pt x="40" y="647" on="1"/>
        <pt x="0" y="554" on="0"/>
        <pt x="0" y="448" on="1"/>
        <pt x="0" y="342" on="0"/>
        <pt x="40" y="249" on="1"/>
        <pt x="80" y="155" on="0"/>
        <pt x="219" y="16" on="0"/>
        <pt x="313" y="-24" on="1"/>
        <pt x="406" y="-64" on="0"/>
        <pt x="512" y="-64" on="1"/>
        <pt x="618" y="-64" on="0"/>
        <pt x="711" y="-24" on="1"/>
        <pt x="805" y="16" on="0"/>
        <pt x="944" y="155" on="0"/>
        <pt x="984" y="249" on="1"/>
        <pt x="1024" y="342" on="0"/>
        <pt x="1024" y="448" on="1"/>
        <pt x="1024" y="554" on="0"/>
        <pt x="984" y="647" on="1"/>
        <pt x="944" y="741" on="0"/>
        <pt x="805" y="880" on="0"/>
        <pt x="711" y="920" on="1"/>
        <pt x="618" y="960" on="0"/>
        <pt x="512" y="960" on="1"/>
      </contour>
    </TTGlyph>
    <TTGlyph name="uniE91D" xMin="0" yMin="-18" xMax="956" yMax="937">
      <contour>
        <pt x="212" y="937" on="1"/>
        <pt x="212" y="789" on="1"/>
        <pt x="702" y="789" on="1"/>
        <pt x="0" y="86" on="1"/>
        <pt x="105" y="-18" on="1"/>
        <pt x="807" y="684" on="1"/>
        <pt x="807" y="194" on="1"/>
        <pt x="956" y="194" on="1"/>
        <pt x="956" y="937" on="1"/>
      </contour>
    </TTGlyph>
    <TTGlyph name="uniE91E" xMin="0" yMin="-64" xMax="1024" yMax="960">
      <contour>
        <pt x="512" y="960" on="1"/>
        <pt x="618" y="960" on="0"/>
        <pt x="711" y="920" on="1"/>
        <pt x="805" y="880" on="0"/>
        <pt x="944" y="741" on="0"/>
        <pt x="984" y="647" on="1"/>
        <pt x="1024" y="554" on="0"/>
        <pt x="1024" y="448" on="1"/>
        <pt x="1024" y="342" on="0"/>
        <pt x="984" y="249" on="1"/>
        <pt x="944" y="155" on="0"/>
        <pt x="805" y="16" on="0"/>
        <pt x="711" y="-24" on="1"/>
        <pt x="618" y="-64" on="0"/>
        <pt x="512" y="-64" on="1"/>
        <pt x="406" y="-64" on="0"/>
        <pt x="313" y="-24" on="1"/>
        <pt x="219" y="16" on="0"/>
        <pt x="80" y="155" on="0"/>
        <pt x="40" y="249" on="1"/>
        <pt x="0" y="342" on="0"/>
        <pt x="0" y="448" on="1"/>
        <pt x="0" y="554" on="0"/>
        <pt x="40" y="647" on="1"/>
        <pt x="80" y="741" on="0"/>
        <pt x="219" y="880" on="0"/>
        <pt x="313" y="920" on="1"/>
        <pt x="406" y="960" on="0"/>
      </contour>
      <contour>
        <pt x="628" y="657" on="1"/>
        <pt x="562" y="657" on="1"/>
        <pt x="515" y="657" on="0"/>
        <pt x="471" y="617" on="0"/>
        <pt x="471" y="577" on="1"/>
        <pt x="471" y="518" on="1"/>
        <pt x="419" y="518" on="1"/>
        <pt x="419" y="448" on="1"/>
        <pt x="471" y="448" on="1"/>
        <pt x="471" y="239" on="1"/>
        <pt x="559" y="239" on="1"/>
        <pt x="559" y="448" on="1"/>
        <pt x="622" y="448" on="1"/>
        <pt x="628" y="518" on="1"/>
        <pt x="559" y="518" on="1"/>
        <pt x="559" y="547" on="1"/>
        <pt x="559" y="559" on="0"/>
        <pt x="566" y="570" on="0"/>
        <pt x="578" y="570" on="1"/>
        <pt x="628" y="570" on="1"/>
      </contour>
    </TTGlyph>
    <TTGlyph name="uniE91F" xMin="0" yMin="-64" xMax="1024" yMax="960">
      <contour>
        <pt x="512" y="960" on="1"/>
        <pt x="618" y="960" on="0"/>
        <pt x="711" y="920" on="1"/>
        <pt x="805" y="880" on="0"/>
        <pt x="944" y="741" on="0"/>
        <pt x="984" y="647" on="1"/>
        <pt x="1024" y="554" on="0"/>
        <pt x="1024" y="448" on="1"/>
        <pt x="1024" y="342" on="0"/>
        <pt x="984" y="249" on="1"/>
        <pt x="944" y="155" on="0"/>
        <pt x="805" y="16" on="0"/>
        <pt x="711" y="-24" on="1"/>
        <pt x="618" y="-64" on="0"/>
        <pt x="512" y="-64" on="1"/>
        <pt x="406" y="-64" on="0"/>
        <pt x="313" y="-24" on="1"/>
        <pt x="219" y="16" on="0"/>
        <pt x="80" y="155" on="0"/>
        <pt x="40" y="249" on="1"/>
        <pt x="0" y="342" on="0"/>
        <pt x="0" y="448" on="1"/>
        <pt x="0" y="554" on="0"/>
        <pt x="40" y="647" on="1"/>
        <pt x="80" y="741" on="0"/>
        <pt x="219" y="880" on="0"/>
        <pt x="313" y="920" on="1"/>
        <pt x="406" y="960" on="0"/>
      </contour>
      <contour>
        <pt x="606" y="530" on="1"/>
        <pt x="574" y="530" on="0"/>
        <pt x="542" y="504" on="0"/>
        <pt x="534" y="492" on="1"/>
        <pt x="534" y="492" on="1"/>
        <pt x="534" y="525" on="1"/>
        <pt x="454" y="525" on="1"/>
        <pt x="455" y="517" on="0"/>
        <pt x="455" y="483" on="1"/>
        <pt x="455" y="449" on="0"/>
        <pt x="455" y="371" on="0"/>
        <pt x="455" y="337" on="1"/>
        <pt x="455" y="304" on="0"/>
        <pt x="454" y="298" on="1"/>
        <pt x="454" y="298" on="1"/>
        <pt x="454" y="297" on="1"/>
        <pt x="534" y="297" on="1"/>
        <pt x="534" y="424" on="1"/>
        <pt x="534" y="429" on="0"/>
        <pt x="535" y="439" on="0"/>
        <pt x="537" y="443" on="1"/>
        <pt x="541" y="453" on="0"/>
        <pt x="561" y="470" on="0"/>
        <pt x="578" y="470" on="1"/>
        <pt x="600" y="470" on="0"/>
        <pt x="618" y="442" on="0"/>
        <pt x="618" y="419" on="1"/>
        <pt x="618" y="419" on="1"/>
        <pt x="618" y="297" on="1"/>
        <pt x="698" y="297" on="1"/>
        <pt x="698" y="428" on="1"/>
        <pt x="698" y="480" on="0"/>
        <pt x="646" y="530" on="0"/>
        <pt x="606" y="530" on="1"/>
      </contour>
      <contour>
        <pt x="410" y="525" on="1"/>
        <pt x="331" y="525" on="1"/>
        <pt x="331" y="297" on="1"/>
        <pt x="410" y="297" on="1"/>
      </contour>
      <contour>
        <pt x="371" y="634" on="1"/>
        <pt x="351" y="634" on="0"/>
        <pt x="326" y="612" on="0"/>
        <pt x="326" y="595" on="1"/>
        <pt x="326" y="579" on="0"/>
        <pt x="350" y="556" on="0"/>
        <pt x="370" y="556" on="1"/>
        <pt x="370" y="556" on="1"/>
        <pt x="370" y="556" on="1"/>
        <pt x="375" y="556" on="1"/>
        <pt x="394" y="557" on="0"/>
        <pt x="416" y="579" on="0"/>
        <pt x="416" y="595" on="1"/>
        <pt x="415" y="612" on="0"/>
        <pt x="392" y="634" on="0"/>
        <pt x="371" y="634" on="1"/>
      </contour>
    </TTGlyph>
    <TTGlyph name="uniE920" xMin="0" yMin="-64" xMax="1024" yMax="960">
      <contour>
        <pt x="512" y="960" on="1"/>
        <pt x="618" y="960" on="0"/>
        <pt x="711" y="920" on="1"/>
        <pt x="805" y="880" on="0"/>
        <pt x="944" y="741" on="0"/>
        <pt x="984" y="647" on="1"/>
        <pt x="1024" y="554" on="0"/>
        <pt x="1024" y="448" on="1"/>
        <pt x="1024" y="342" on="0"/>
        <pt x="984" y="249" on="1"/>
        <pt x="944" y="155" on="0"/>
        <pt x="805" y="16" on="0"/>
        <pt x="711" y="-24" on="1"/>
        <pt x="618" y="-64" on="0"/>
        <pt x="512" y="-64" on="1"/>
        <pt x="406" y="-64" on="0"/>
        <pt x="313" y="-24" on="1"/>
        <pt x="219" y="16" on="0"/>
        <pt x="80" y="155" on="0"/>
        <pt x="40" y="249" on="1"/>
        <pt x="0" y="342" on="0"/>
        <pt x="0" y="448" on="1"/>
        <pt x="0" y="554" on="0"/>
        <pt x="40" y="647" on="1"/>
        <pt x="80" y="741" on="0"/>
        <pt x="219" y="880" on="0"/>
        <pt x="313" y="920" on="1"/>
        <pt x="406" y="960" on="0"/>
      </contour>
      <contour>
        <pt x="580" y="611" on="1"/>
        <pt x="546" y="611" on="0"/>
        <pt x="498" y="562" on="0"/>
        <pt x="498" y="527" on="1"/>
        <pt x="498" y="522" on="0"/>
        <pt x="499" y="512" on="0"/>
        <pt x="500" y="507" on="1"/>
        <pt x="448" y="510" on="0"/>
        <pt x="361" y="557" on="0"/>
        <pt x="330" y="595" on="1"/>
        <pt x="325" y="586" on="0"/>
        <pt x="319" y="565" on="0"/>
        <pt x="319" y="553" on="1"/>
        <pt x="319" y="531" on="0"/>
        <pt x="339" y="494" on="0"/>
        <pt x="356" y="483" on="1"/>
        <pt x="346" y="483" on="0"/>
        <pt x="327" y="489" on="0"/>
        <pt x="319" y="494" on="1"/>
        <pt x="319" y="493" on="0"/>
        <pt x="319" y="493" on="0"/>
        <pt x="319" y="493" on="1"/>
        <pt x="319" y="462" on="0"/>
        <pt x="356" y="416" on="0"/>
        <pt x="385" y="410" on="1"/>
        <pt x="379" y="409" on="0"/>
        <pt x="369" y="407" on="0"/>
        <pt x="363" y="407" on="1"/>
        <pt x="359" y="407" on="0"/>
        <pt x="351" y="408" on="0"/>
        <pt x="347" y="409" on="1"/>
        <pt x="355" y="383" on="0"/>
        <pt x="397" y="351" on="0"/>
        <pt x="424" y="350" on="1"/>
        <pt x="403" y="333" on="0"/>
        <pt x="351" y="314" on="0"/>
        <pt x="322" y="314" on="1"/>
        <pt x="317" y="314" on="0"/>
        <pt x="307" y="315" on="0"/>
        <pt x="303" y="315" on="1"/>
        <pt x="330" y="297" on="0"/>
        <pt x="394" y="277" on="0"/>
        <pt x="428" y="277" on="1"/>
        <pt x="485" y="277" on="0"/>
        <pt x="529" y="299" on="1"/>
        <pt x="572" y="321" on="0"/>
        <pt x="632" y="390" on="0"/>
        <pt x="647" y="433" on="1"/>
        <pt x="662" y="475" on="0"/>
        <pt x="662" y="517" on="1"/>
        <pt x="662" y="520" on="0"/>
        <pt x="662" y="525" on="0"/>
        <pt x="662" y="528" on="1"/>
        <pt x="674" y="537" on="0"/>
        <pt x="695" y="559" on="0"/>
        <pt x="703" y="571" on="1"/>
        <pt x="692" y="566" on="0"/>
        <pt x="668" y="560" on="0"/>
        <pt x="656" y="558" on="1"/>
        <pt x="668" y="566" on="0"/>
        <pt x="687" y="590" on="0"/>
        <pt x="692" y="605" on="1"/>
        <pt x="680" y="598" on="0"/>
        <pt x="654" y="587" on="0"/>
        <pt x="640" y="584" on="1"/>
        <pt x="628" y="597" on="0"/>
        <pt x="597" y="611" on="0"/>
        <pt x="580" y="611" on="1"/>
      </contour>
    </TTGlyph>
    <TTGlyph name="uniE921" xMin="0" yMin="-64" xMax="1024" yMax="960">
      <contour>
        <pt x="861" y="147" on="1"/>
        <pt x="868" y="140" on="0"/>
        <pt x="869" y="118" on="0"/>
        <pt x="864" y="109" on="1"/>
        <pt x="850" y="87" on="0"/>
        <pt x="812" y="51" on="0"/>
        <pt x="800" y="42" on="1"/>
        <pt x="768" y="20" on="0"/>
        <pt x="715" y="28" on="1"/>
        <pt x="663" y="36" on="0"/>
        <pt x="539" y="106" on="0"/>
        <pt x="473" y="167" on="1"/>
        <pt x="408" y="228" on="0"/>
        <pt x="349" y="314" on="1"/>
        <pt x="309" y="370" on="0"/>
        <pt x="280" y="430" on="1"/>
        <pt x="250" y="491" on="0"/>
        <pt x="213" y="607" on="0"/>
        <pt x="207" y="660" on="1"/>
        <pt x="201" y="713" on="0"/>
        <pt x="208" y="755" on="1"/>
        <pt x="213" y="784" on="0"/>
        <pt x="236" y="823" on="0"/>
        <pt x="253" y="835" on="1"/>
        <pt x="262" y="842" on="0"/>
        <pt x="310" y="866" on="0"/>
        <pt x="336" y="870" on="1"/>
        <pt x="336" y="870" on="0"/>
        <pt x="339" y="870" on="0"/>
        <pt x="339" y="870" on="1"/>
        <pt x="349" y="870" on="0"/>
        <pt x="366" y="862" on="0"/>
        <pt x="371" y="854" on="1"/>
        <pt x="448" y="714" on="1"/>
        <pt x="453" y="702" on="0"/>
        <pt x="447" y="677" on="0"/>
        <pt x="435" y="672" on="1"/>
        <pt x="418" y="662" on="0"/>
        <pt x="392" y="646" on="0"/>
        <pt x="387" y="643" on="1"/>
        <pt x="381" y="640" on="1"/>
        <pt x="369" y="630" on="0"/>
        <pt x="351" y="606" on="0"/>
        <pt x="349" y="592" on="1"/>
        <pt x="342" y="556" on="0"/>
        <pt x="383" y="454" on="0"/>
        <pt x="429" y="387" on="1"/>
        <pt x="479" y="315" on="0"/>
        <pt x="566" y="234" on="0"/>
        <pt x="602" y="227" on="1"/>
        <pt x="616" y="225" on="0"/>
        <pt x="644" y="230" on="0"/>
        <pt x="656" y="240" on="1"/>
        <pt x="661" y="242" on="0"/>
        <pt x="688" y="265" on="0"/>
        <pt x="707" y="282" on="1"/>
        <pt x="717" y="289" on="0"/>
        <pt x="742" y="288" on="0"/>
        <pt x="752" y="278" on="1"/>
      </contour>
      <contour>
        <pt x="1024" y="960" on="1"/>
        <pt x="1024" y="-64" on="1"/>
        <pt x="0" y="-64" on="1"/>
        <pt x="0" y="960" on="1"/>
      </contour>
      <contour>
        <pt x="906" y="189" on="1"/>
        <pt x="800" y="307" on="1"/>
        <pt x="776" y="336" on="0"/>
        <pt x="703" y="341" on="0"/>
        <pt x="672" y="317" on="1"/>
        <pt x="653" y="300" on="0"/>
        <pt x="626" y="281" on="0"/>
        <pt x="624" y="278" on="1"/>
        <pt x="622" y="278" on="0"/>
        <pt x="619" y="276" on="0"/>
        <pt x="614" y="278" on="1"/>
        <pt x="605" y="281" on="0"/>
        <pt x="540" y="326" on="0"/>
        <pt x="480" y="413" on="1"/>
        <pt x="425" y="492" on="0"/>
        <pt x="406" y="564" on="0"/>
        <pt x="406" y="576" on="1"/>
        <pt x="406" y="581" on="0"/>
        <pt x="410" y="586" on="0"/>
        <pt x="413" y="586" on="1"/>
        <pt x="419" y="589" on="1"/>
        <pt x="426" y="594" on="0"/>
        <pt x="450" y="608" on="0"/>
        <pt x="467" y="618" on="1"/>
        <pt x="498" y="637" on="0"/>
        <pt x="519" y="706" on="0"/>
        <pt x="502" y="739" on="1"/>
        <pt x="426" y="880" on="1"/>
        <pt x="411" y="906" on="0"/>
        <pt x="354" y="932" on="0"/>
        <pt x="323" y="925" on="1"/>
        <pt x="294" y="920" on="0"/>
        <pt x="234" y="896" on="0"/>
        <pt x="218" y="886" on="1"/>
        <pt x="191" y="867" on="0"/>
        <pt x="158" y="806" on="0"/>
        <pt x="150" y="768" on="1"/>
        <pt x="142" y="720" on="0"/>
        <pt x="148" y="661" on="1"/>
        <pt x="154" y="603" on="0"/>
        <pt x="193" y="476" on="0"/>
        <pt x="226" y="410" on="1"/>
        <pt x="258" y="344" on="0"/>
        <pt x="301" y="282" on="1"/>
        <pt x="352" y="206" on="0"/>
        <pt x="411" y="146" on="1"/>
        <pt x="470" y="87" on="0"/>
        <pt x="591" y="6" on="0"/>
        <pt x="650" y="-14" on="1"/>
        <pt x="708" y="-34" on="0"/>
        <pt x="758" y="-29" on="1"/>
        <pt x="780" y="-26" on="0"/>
        <pt x="818" y="-15" on="0"/>
        <pt x="835" y="-3" on="1"/>
        <pt x="852" y="9" on="0"/>
        <pt x="896" y="54" on="0"/>
        <pt x="915" y="80" on="1"/>
        <pt x="930" y="104" on="0"/>
        <pt x="925" y="165" on="0"/>
        <pt x="906" y="189" on="1"/>
      </contour>
    </TTGlyph>
    <TTGlyph name="uniE922" xMin="9" yMin="105" xMax="1024" yMax="791">
      <contour>
        <pt x="375" y="745" on="1"/>
        <pt x="384" y="755" on="0"/>
        <pt x="384" y="781" on="0"/>
        <pt x="375" y="791" on="1"/>
        <pt x="365" y="800" on="0"/>
        <pt x="339" y="800" on="0"/>
        <pt x="329" y="791" on="1"/>
        <pt x="9" y="471" on="1"/>
        <pt x="0" y="461" on="0"/>
        <pt x="0" y="435" on="0"/>
        <pt x="9" y="425" on="1"/>
        <pt x="329" y="105" on="1"/>
        <pt x="339" y="96" on="0"/>
        <pt x="365" y="96" on="0"/>
        <pt x="375" y="105" on="1"/>
        <pt x="384" y="115" on="0"/>
        <pt x="384" y="141" on="0"/>
        <pt x="375" y="151" on="1"/>
        <pt x="109" y="416" on="1"/>
        <pt x="992" y="416" on="1"/>
        <pt x="1005" y="416" on="0"/>
        <pt x="1024" y="435" on="0"/>
        <pt x="1024" y="448" on="1"/>
        <pt x="1024" y="461" on="0"/>
        <pt x="1005" y="480" on="0"/>
        <pt x="992" y="480" on="1"/>
        <pt x="109" y="480" on="1"/>
        <pt x="375" y="745" on="1"/>
      </contour>
    </TTGlyph>
    <TTGlyph name="uniE923" xMin="64" yMin="-64" xMax="960" yMax="960">
      <contour>
        <pt x="768" y="576" on="1"/>
        <pt x="847" y="576" on="0"/>
        <pt x="960" y="689" on="0"/>
        <pt x="960" y="768" on="1"/>
        <pt x="960" y="847" on="0"/>
        <pt x="847" y="960" on="0"/>
        <pt x="768" y="960" on="1"/>
        <pt x="689" y="960" on="0"/>
        <pt x="576" y="847" on="0"/>
        <pt x="576" y="768" on="1"/>
        <pt x="576" y="757" on="0"/>
        <pt x="579" y="737" on="0"/>
        <pt x="581" y="726" on="1"/>
        <pt x="375" y="598" on="1"/>
        <pt x="350" y="617" on="0"/>
        <pt x="290" y="640" on="0"/>
        <pt x="256" y="640" on="1"/>
        <pt x="177" y="640" on="0"/>
        <pt x="64" y="527" on="0"/>
        <pt x="64" y="448" on="1"/>
        <pt x="64" y="369" on="0"/>
        <pt x="177" y="256" on="0"/>
        <pt x="256" y="256" on="1"/>
        <pt x="290" y="256" on="0"/>
        <pt x="350" y="279" on="0"/>
        <pt x="375" y="298" on="1"/>
        <pt x="581" y="170" on="1"/>
        <pt x="579" y="159" on="0"/>
        <pt x="576" y="139" on="0"/>
        <pt x="576" y="128" on="1"/>
        <pt x="576" y="49" on="0"/>
        <pt x="689" y="-64" on="0"/>
        <pt x="768" y="-64" on="1"/>
        <pt x="847" y="-64" on="0"/>
        <pt x="960" y="49" on="0"/>
        <pt x="960" y="128" on="1"/>
        <pt x="960" y="207" on="0"/>
        <pt x="847" y="320" on="0"/>
        <pt x="768" y="320" on="1"/>
        <pt x="734" y="320" on="0"/>
        <pt x="674" y="297" on="0"/>
        <pt x="649" y="278" on="1"/>
        <pt x="443" y="406" on="1"/>
        <pt x="445" y="417" on="0"/>
        <pt x="448" y="437" on="0"/>
        <pt x="448" y="448" on="1"/>
        <pt x="448" y="459" on="0"/>
        <pt x="445" y="479" on="0"/>
        <pt x="443" y="490" on="1"/>
        <pt x="649" y="618" on="1"/>
        <pt x="674" y="599" on="0"/>
        <pt x="734" y="576" on="0"/>
        <pt x="768" y="576" on="1"/>
      </contour>
    </TTGlyph>
    <TTGlyph name="uniE924" xMin="44" yMin="-42" xMax="1065" yMax="936">
      <contour>
        <pt x="1012" y="612" on="1"/>
        <pt x="736" y="652" on="1"/>
        <pt x="612" y="902" on="1"/>
        <pt x="608" y="910" on="0"/>
        <pt x="595" y="922" on="0"/>
        <pt x="588" y="927" on="1"/>
        <pt x="580" y="931" on="0"/>
        <pt x="563" y="936" on="0"/>
        <pt x="555" y="936" on="1"/>
        <pt x="546" y="936" on="0"/>
        <pt x="529" y="931" on="0"/>
        <pt x="521" y="927" on="1"/>
        <pt x="514" y="922" on="0"/>
        <pt x="501" y="910" on="0"/>
        <pt x="497" y="902" on="1"/>
        <pt x="374" y="652" on="1"/>
        <pt x="97" y="612" on="1"/>
        <pt x="89" y="611" on="0"/>
        <pt x="72" y="603" on="0"/>
        <pt x="65" y="598" on="1"/>
        <pt x="58" y="592" on="0"/>
        <pt x="48" y="577" on="0"/>
        <pt x="46" y="568" on="1"/>
        <pt x="43" y="560" on="0"/>
        <pt x="42" y="542" on="0"/>
        <pt x="44" y="533" on="1"/>
        <pt x="47" y="525" on="0"/>
        <pt x="55" y="509" on="0"/>
        <pt x="62" y="503" on="1"/>
        <pt x="262" y="308" on="1"/>
        <pt x="215" y="33" on="1"/>
        <pt x="213" y="24" on="0"/>
        <pt x="215" y="6" on="0"/>
        <pt x="218" y="-2" on="1"/>
        <pt x="222" y="-11" on="0"/>
        <pt x="233" y="-25" on="0"/>
        <pt x="240" y="-30" on="1"/>
        <pt x="247" y="-35" on="0"/>
        <pt x="264" y="-41" on="0"/>
        <pt x="273" y="-42" on="1"/>
        <pt x="282" y="-43" on="0"/>
        <pt x="300" y="-39" on="0"/>
        <pt x="307" y="-35" on="1"/>
        <pt x="555" y="95" on="1"/>
        <pt x="802" y="-35" on="1"/>
        <pt x="810" y="-39" on="0"/>
        <pt x="827" y="-43" on="0"/>
        <pt x="836" y="-42" on="1"/>
        <pt x="845" y="-41" on="0"/>
        <pt x="862" y="-35" on="0"/>
        <pt x="869" y="-30" on="1"/>
        <pt x="876" y="-25" on="0"/>
        <pt x="887" y="-10" on="0"/>
        <pt x="891" y="-2" on="1"/>
        <pt x="894" y="6" on="0"/>
        <pt x="896" y="24" on="0"/>
        <pt x="895" y="33" on="1"/>
        <pt x="847" y="308" on="1"/>
        <pt x="1047" y="503" on="1"/>
        <pt x="1054" y="509" on="0"/>
        <pt x="1063" y="525" on="0"/>
        <pt x="1065" y="533" on="1"/>
        <pt x="1067" y="542" on="0"/>
        <pt x="1066" y="560" on="0"/>
        <pt x="1064" y="568" on="1"/>
        <pt x="1061" y="577" on="0"/>
        <pt x="1051" y="592" on="0"/>
        <pt x="1044" y="597" on="1"/>
        <pt x="1037" y="603" on="0"/>
        <pt x="1021" y="611" on="0"/>
        <pt x="1012" y="612" on="1"/>
        <pt x="1012" y="612" on="1"/>
      </contour>
    </TTGlyph>
    <TTGlyph name="uniE925" xMin="0" yMin="-38" xMax="1024" yMax="934">
      <contour>
        <pt x="538" y="922" on="1"/>
        <pt x="538" y="926" on="0"/>
        <pt x="522" y="934" on="0"/>
        <pt x="512" y="934" on="1"/>
        <pt x="502" y="934" on="0"/>
        <pt x="486" y="925" on="0"/>
        <pt x="486" y="915" on="1"/>
        <pt x="339" y="634" on="1"/>
        <pt x="26" y="589" on="1"/>
        <pt x="16" y="589" on="0"/>
        <pt x="5" y="573" on="0"/>
        <pt x="0" y="563" on="1"/>
        <pt x="0" y="558" on="0"/>
        <pt x="3" y="541" on="0"/>
        <pt x="13" y="531" on="1"/>
        <pt x="243" y="307" on="1"/>
        <pt x="186" y="0" on="1"/>
        <pt x="186" y="-10" on="0"/>
        <pt x="189" y="-27" on="0"/>
        <pt x="198" y="-32" on="1"/>
        <pt x="208" y="-37" on="0"/>
        <pt x="226" y="-37" on="0"/>
        <pt x="230" y="-32" on="1"/>
        <pt x="512" y="109" on="1"/>
        <pt x="794" y="-38" on="1"/>
        <pt x="803" y="-43" on="0"/>
        <pt x="821" y="-43" on="0"/>
        <pt x="826" y="-38" on="1"/>
        <pt x="835" y="-34" on="0"/>
        <pt x="838" y="-16" on="0"/>
        <pt x="838" y="-6" on="1"/>
        <pt x="787" y="307" on="1"/>
        <pt x="1018" y="531" on="1"/>
        <pt x="1022" y="541" on="0"/>
        <pt x="1024" y="558" on="0"/>
        <pt x="1024" y="563" on="1"/>
        <pt x="1019" y="573" on="0"/>
        <pt x="1008" y="582" on="0"/>
        <pt x="998" y="582" on="1"/>
        <pt x="685" y="627" on="1"/>
        <pt x="538" y="922" on="1"/>
      </contour>
      <contour>
        <pt x="390" y="589" on="1"/>
        <pt x="512" y="832" on="1"/>
        <pt x="634" y="589" on="1"/>
        <pt x="638" y="584" on="0"/>
        <pt x="650" y="574" on="0"/>
        <pt x="659" y="570" on="1"/>
        <pt x="928" y="531" on="1"/>
        <pt x="736" y="346" on="1"/>
        <pt x="731" y="341" on="0"/>
        <pt x="725" y="325" on="0"/>
        <pt x="730" y="320" on="1"/>
        <pt x="774" y="51" on="1"/>
        <pt x="538" y="179" on="1"/>
        <pt x="533" y="184" on="0"/>
        <pt x="515" y="184" on="0"/>
        <pt x="506" y="179" on="1"/>
        <pt x="269" y="51" on="1"/>
        <pt x="314" y="320" on="1"/>
        <pt x="314" y="330" on="0"/>
        <pt x="312" y="341" on="0"/>
        <pt x="307" y="346" on="1"/>
        <pt x="115" y="531" on="1"/>
        <pt x="384" y="570" on="1"/>
        <pt x="379" y="574" on="0"/>
        <pt x="390" y="584" on="0"/>
        <pt x="390" y="589" on="1"/>
      </contour>
    </TTGlyph>
    <TTGlyph name="uniE926" xMin="0" yMin="-64" xMax="1024" yMax="960">
      <contour>
        <pt x="512" y="842" on="1"/>
        <pt x="429" y="842" on="0"/>
        <pt x="357" y="811" on="1"/>
        <pt x="286" y="781" on="0"/>
        <pt x="179" y="674" on="0"/>
        <pt x="149" y="603" on="1"/>
        <pt x="118" y="531" on="0"/>
        <pt x="118" y="448" on="1"/>
        <pt x="118" y="365" on="0"/>
        <pt x="149" y="293" on="1"/>
        <pt x="179" y="222" on="0"/>
        <pt x="285" y="115" on="0"/>
        <pt x="357" y="85" on="1"/>
        <pt x="429" y="54" on="0"/>
        <pt x="512" y="54" on="1"/>
        <pt x="595" y="54" on="0"/>
        <pt x="667" y="85" on="1"/>
        <pt x="738" y="115" on="0"/>
        <pt x="845" y="221" on="0"/>
        <pt x="875" y="293" on="1"/>
        <pt x="906" y="365" on="0"/>
        <pt x="906" y="448" on="1"/>
        <pt x="906" y="531" on="0"/>
        <pt x="875" y="603" on="1"/>
        <pt x="845" y="674" on="0"/>
        <pt x="738" y="781" on="0"/>
        <pt x="667" y="811" on="1"/>
        <pt x="595" y="842" on="0"/>
      </contour>
      <contour>
        <pt x="512" y="144" on="1"/>
        <pt x="481" y="144" on="0"/>
        <pt x="438" y="186" on="0"/>
        <pt x="438" y="218" on="1"/>
        <pt x="438" y="249" on="0"/>
        <pt x="481" y="291" on="0"/>
        <pt x="512" y="291" on="1"/>
        <pt x="543" y="291" on="0"/>
        <pt x="586" y="249" on="0"/>
        <pt x="586" y="218" on="1"/>
        <pt x="586" y="186" on="0"/>
        <pt x="543" y="144" on="0"/>
      </contour>
      <contour>
        <pt x="656" y="480" on="1"/>
        <pt x="642" y="466" on="0"/>
        <pt x="614" y="445" on="0"/>
        <pt x="602" y="435" on="1"/>
        <pt x="575" y="418" on="0"/>
        <pt x="557" y="400" on="0"/>
        <pt x="557" y="390" on="1"/>
        <pt x="557" y="362" on="1"/>
        <pt x="557" y="342" on="0"/>
        <pt x="531" y="317" on="0"/>
        <pt x="512" y="317" on="1"/>
        <pt x="493" y="317" on="0"/>
        <pt x="467" y="342" on="0"/>
        <pt x="467" y="362" on="1"/>
        <pt x="467" y="390" on="1"/>
        <pt x="472" y="434" on="0"/>
        <pt x="518" y="494" on="0"/>
        <pt x="554" y="509" on="1"/>
        <pt x="556" y="511" on="0"/>
        <pt x="561" y="513" on="0"/>
        <pt x="563" y="515" on="1"/>
        <pt x="570" y="520" on="0"/>
        <pt x="581" y="526" on="0"/>
        <pt x="586" y="531" on="1"/>
        <pt x="590" y="541" on="0"/>
        <pt x="595" y="558" on="0"/>
        <pt x="595" y="563" on="1"/>
        <pt x="595" y="578" on="0"/>
        <pt x="586" y="602" on="0"/>
        <pt x="576" y="611" on="1"/>
        <pt x="564" y="623" on="0"/>
        <pt x="529" y="637" on="0"/>
        <pt x="512" y="637" on="1"/>
        <pt x="495" y="637" on="0"/>
        <pt x="461" y="628" on="0"/>
        <pt x="451" y="621" on="1"/>
        <pt x="442" y="614" on="0"/>
        <pt x="427" y="594" on="0"/>
        <pt x="422" y="582" on="1"/>
        <pt x="416" y="576" on="1"/>
        <pt x="404" y="564" on="0"/>
        <pt x="370" y="556" on="0"/>
        <pt x="358" y="563" on="1"/>
        <pt x="351" y="566" on="0"/>
        <pt x="342" y="578" on="0"/>
        <pt x="339" y="586" on="1"/>
        <pt x="337" y="593" on="0"/>
        <pt x="337" y="610" on="0"/>
        <pt x="339" y="618" on="1"/>
        <pt x="349" y="642" on="0"/>
        <pt x="378" y="679" on="0"/>
        <pt x="397" y="691" on="1"/>
        <pt x="416" y="708" on="0"/>
        <pt x="473" y="723" on="0"/>
        <pt x="509" y="723" on="1"/>
        <pt x="542" y="723" on="0"/>
        <pt x="611" y="696" on="0"/>
        <pt x="640" y="672" on="1"/>
        <pt x="662" y="650" on="0"/>
        <pt x="685" y="590" on="0"/>
        <pt x="685" y="563" on="1"/>
        <pt x="687" y="537" on="0"/>
        <pt x="668" y="494" on="0"/>
        <pt x="656" y="480" on="1"/>
      </contour>
      <contour>
        <pt x="0" y="960" on="1"/>
        <pt x="0" y="-64" on="1"/>
        <pt x="1024" y="-64" on="1"/>
        <pt x="1024" y="960" on="1"/>
      </contour>
      <contour>
        <pt x="512" y="-32" on="1"/>
        <pt x="412" y="-32" on="0"/>
        <pt x="325" y="6" on="1"/>
        <pt x="237" y="43" on="0"/>
        <pt x="107" y="173" on="0"/>
        <pt x="70" y="261" on="1"/>
        <pt x="32" y="348" on="0"/>
        <pt x="32" y="448" on="1"/>
        <pt x="32" y="548" on="0"/>
        <pt x="70" y="635" on="1"/>
        <pt x="107" y="722" on="0"/>
        <pt x="237" y="853" on="0"/>
        <pt x="325" y="890" on="1"/>
        <pt x="412" y="928" on="0"/>
        <pt x="512" y="928" on="1"/>
        <pt x="612" y="928" on="0"/>
        <pt x="699" y="890" on="1"/>
        <pt x="786" y="853" on="0"/>
        <pt x="917" y="723" on="0"/>
        <pt x="954" y="635" on="1"/>
        <pt x="992" y="548" on="0"/>
        <pt x="992" y="448" on="1"/>
        <pt x="992" y="348" on="0"/>
        <pt x="954" y="261" on="1"/>
        <pt x="917" y="174" on="0"/>
        <pt x="787" y="43" on="0"/>
        <pt x="699" y="6" on="1"/>
        <pt x="612" y="-32" on="0"/>
      </contour>
    </TTGlyph>
    <TTGlyph name="uniE927" xMin="0" yMin="-64" xMax="1024" yMax="960">
      <contour>
        <pt x="0" y="960" on="1"/>
        <pt x="0" y="-64" on="1"/>
        <pt x="1024" y="-64" on="1"/>
        <pt x="1024" y="960" on="1"/>
      </contour>
      <contour>
        <pt x="336" y="-32" on="1"/>
        <pt x="281" y="-32" on="0"/>
        <pt x="205" y="44" on="0"/>
        <pt x="205" y="99" on="1"/>
        <pt x="205" y="154" on="0"/>
        <pt x="281" y="230" on="0"/>
        <pt x="336" y="230" on="1"/>
        <pt x="391" y="230" on="0"/>
        <pt x="467" y="154" on="0"/>
        <pt x="467" y="99" on="1"/>
        <pt x="467" y="44" on="0"/>
        <pt x="391" y="-32" on="0"/>
      </contour>
      <contour>
        <pt x="803" y="-32" on="1"/>
        <pt x="748" y="-32" on="0"/>
        <pt x="672" y="44" on="0"/>
        <pt x="672" y="99" on="1"/>
        <pt x="672" y="154" on="0"/>
        <pt x="748" y="230" on="0"/>
        <pt x="803" y="230" on="1"/>
        <pt x="858" y="230" on="0"/>
        <pt x="934" y="154" on="0"/>
        <pt x="934" y="99" on="1"/>
        <pt x="934" y="44" on="0"/>
        <pt x="856" y="-32" on="0"/>
      </contour>
      <contour>
        <pt x="992" y="694" on="1"/>
        <pt x="877" y="346" on="1"/>
        <pt x="870" y="331" on="0"/>
        <pt x="847" y="317" on="0"/>
        <pt x="835" y="317" on="1"/>
        <pt x="307" y="317" on="1"/>
        <pt x="288" y="317" on="0"/>
        <pt x="262" y="338" on="0"/>
        <pt x="262" y="355" on="1"/>
        <pt x="214" y="842" on="1"/>
        <pt x="77" y="842" on="1"/>
        <pt x="58" y="842" on="0"/>
        <pt x="32" y="864" on="0"/>
        <pt x="32" y="883" on="1"/>
        <pt x="32" y="902" on="0"/>
        <pt x="58" y="928" on="0"/>
        <pt x="77" y="928" on="1"/>
        <pt x="253" y="928" on="1"/>
        <pt x="272" y="928" on="0"/>
        <pt x="298" y="906" on="0"/>
        <pt x="298" y="890" on="1"/>
        <pt x="352" y="403" on="1"/>
        <pt x="806" y="403" on="1"/>
        <pt x="896" y="666" on="1"/>
        <pt x="426" y="666" on="1"/>
        <pt x="406" y="666" on="0"/>
        <pt x="381" y="691" on="0"/>
        <pt x="381" y="710" on="1"/>
        <pt x="381" y="730" on="0"/>
        <pt x="406" y="755" on="0"/>
        <pt x="426" y="755" on="1"/>
        <pt x="950" y="755" on="1"/>
        <pt x="965" y="755" on="0"/>
        <pt x="978" y="744" on="0"/>
        <pt x="982" y="739" on="1"/>
        <pt x="990" y="730" on="0"/>
        <pt x="992" y="707" on="0"/>
        <pt x="992" y="698" on="1"/>
        <pt x="992" y="694" on="1"/>
      </contour>
      <contour>
        <pt x="848" y="99" on="1"/>
        <pt x="848" y="80" on="0"/>
        <pt x="825" y="54" on="0"/>
        <pt x="803" y="54" on="1"/>
        <pt x="784" y="54" on="0"/>
        <pt x="758" y="78" on="0"/>
        <pt x="758" y="99" on="1"/>
        <pt x="758" y="121" on="0"/>
        <pt x="782" y="144" on="0"/>
        <pt x="803" y="144" on="1"/>
        <pt x="822" y="144" on="0"/>
        <pt x="848" y="118" on="0"/>
      </contour>
      <contour>
        <pt x="381" y="99" on="1"/>
        <pt x="381" y="80" on="0"/>
        <pt x="358" y="54" on="0"/>
        <pt x="336" y="54" on="1"/>
        <pt x="317" y="54" on="0"/>
        <pt x="291" y="78" on="0"/>
        <pt x="291" y="99" on="1"/>
        <pt x="291" y="121" on="0"/>
        <pt x="314" y="144" on="0"/>
        <pt x="336" y="144" on="1"/>
        <pt x="358" y="144" on="0"/>
        <pt x="381" y="118" on="0"/>
      </contour>
    </TTGlyph>
    <TTGlyph name="uniE928" xMin="0" yMin="-64" xMax="1024" yMax="960">
      <contour>
        <pt x="118" y="550" on="1"/>
        <pt x="902" y="550" on="1"/>
        <pt x="902" y="70" on="1"/>
        <pt x="902" y="63" on="0"/>
        <pt x="894" y="54" on="0"/>
        <pt x="886" y="54" on="1"/>
        <pt x="134" y="54" on="1"/>
        <pt x="127" y="54" on="0"/>
        <pt x="118" y="63" on="0"/>
        <pt x="118" y="70" on="1"/>
        <pt x="118" y="550" on="1"/>
      </contour>
      <contour>
        <pt x="890" y="723" on="1"/>
        <pt x="134" y="723" on="1"/>
        <pt x="127" y="723" on="0"/>
        <pt x="118" y="714" on="0"/>
        <pt x="118" y="707" on="1"/>
        <pt x="118" y="634" on="1"/>
        <pt x="902" y="634" on="1"/>
        <pt x="902" y="710" on="1"/>
        <pt x="905" y="718" on="0"/>
        <pt x="897" y="723" on="0"/>
      </contour>
      <contour>
        <pt x="1024" y="960" on="1"/>
        <pt x="1024" y="-64" on="1"/>
        <pt x="0" y="-64" on="1"/>
        <pt x="0" y="960" on="1"/>
      </contour>
      <contour>
        <pt x="992" y="710" on="1"/>
        <pt x="992" y="751" on="0"/>
        <pt x="930" y="813" on="0"/>
        <pt x="890" y="813" on="1"/>
        <pt x="758" y="813" on="1"/>
        <pt x="758" y="883" on="1"/>
        <pt x="758" y="902" on="0"/>
        <pt x="733" y="928" on="0"/>
        <pt x="714" y="928" on="1"/>
        <pt x="697" y="928" on="0"/>
        <pt x="672" y="902" on="0"/>
        <pt x="672" y="883" on="1"/>
        <pt x="672" y="810" on="1"/>
        <pt x="352" y="810" on="1"/>
        <pt x="352" y="883" on="1"/>
        <pt x="352" y="902" on="0"/>
        <pt x="326" y="928" on="0"/>
        <pt x="307" y="928" on="1"/>
        <pt x="288" y="928" on="0"/>
        <pt x="266" y="902" on="0"/>
        <pt x="266" y="883" on="1"/>
        <pt x="266" y="810" on="1"/>
        <pt x="134" y="810" on="1"/>
        <pt x="94" y="812" on="0"/>
        <pt x="32" y="751" on="0"/>
        <pt x="32" y="710" on="1"/>
        <pt x="32" y="70" on="1"/>
        <pt x="32" y="30" on="0"/>
        <pt x="94" y="-32" on="0"/>
        <pt x="134" y="-32" on="1"/>
        <pt x="890" y="-32" on="1"/>
        <pt x="930" y="-32" on="0"/>
        <pt x="992" y="30" on="0"/>
        <pt x="992" y="70" on="1"/>
        <pt x="992" y="710" on="1"/>
      </contour>
    </TTGlyph>
    <TTGlyph name="uniE929" xMin="0" yMin="-64" xMax="1166" yMax="960">
      <contour>
        <pt x="649" y="613" on="1"/>
        <pt x="649" y="215" on="1"/>
        <pt x="514" y="215" on="1"/>
        <pt x="514" y="613" on="1"/>
        <pt x="235" y="613" on="1"/>
        <pt x="582" y="960" on="1"/>
        <pt x="929" y="613" on="1"/>
      </contour>
      <contour>
        <pt x="1031" y="357" on="1"/>
        <pt x="1031" y="70" on="1"/>
        <pt x="142" y="70" on="1"/>
        <pt x="142" y="357" on="1"/>
        <pt x="7" y="357" on="1"/>
        <pt x="7" y="70" on="1"/>
        <pt x="0" y="70" on="1"/>
        <pt x="0" y="-64" on="1"/>
        <pt x="1166" y="-64" on="1"/>
        <pt x="1166" y="357" on="1"/>
      </contour>
    </TTGlyph>
    <TTGlyph name="uniE92A" xMin="43" yMin="-21" xMax="981" yMax="917">
      <contour>
        <pt x="512" y="833" on="1"/>
        <pt x="606" y="833" on="0"/>
        <pt x="665" y="832" on="0"/>
        <pt x="702" y="830" on="1"/>
        <pt x="736" y="829" on="0"/>
        <pt x="777" y="819" on="0"/>
        <pt x="789" y="814" on="1"/>
        <pt x="805" y="808" on="0"/>
        <pt x="831" y="791" on="0"/>
        <pt x="843" y="779" on="1"/>
        <pt x="855" y="767" on="0"/>
        <pt x="872" y="741" on="0"/>
        <pt x="878" y="725" on="1"/>
        <pt x="883" y="713" on="0"/>
        <pt x="893" y="672" on="0"/>
        <pt x="894" y="638" on="1"/>
        <pt x="896" y="601" on="0"/>
        <pt x="897" y="542" on="0"/>
        <pt x="897" y="448" on="1"/>
        <pt x="897" y="355" on="0"/>
        <pt x="896" y="296" on="0"/>
        <pt x="894" y="259" on="1"/>
        <pt x="893" y="225" on="0"/>
        <pt x="883" y="184" on="0"/>
        <pt x="878" y="172" on="1"/>
        <pt x="872" y="155" on="0"/>
        <pt x="855" y="130" on="0"/>
        <pt x="843" y="118" on="1"/>
        <pt x="831" y="106" on="0"/>
        <pt x="805" y="89" on="0"/>
        <pt x="789" y="83" on="1"/>
        <pt x="777" y="78" on="0"/>
        <pt x="736" y="68" on="0"/>
        <pt x="702" y="67" on="1"/>
        <pt x="665" y="65" on="0"/>
        <pt x="606" y="64" on="0"/>
        <pt x="513" y="64" on="1"/>
        <pt x="419" y="64" on="0"/>
        <pt x="360" y="65" on="0"/>
        <pt x="323" y="67" on="1"/>
        <pt x="289" y="68" on="0"/>
        <pt x="248" y="78" on="0"/>
        <pt x="236" y="83" on="1"/>
        <pt x="220" y="89" on="0"/>
        <pt x="194" y="105" on="0"/>
        <pt x="182" y="118" on="1"/>
        <pt x="170" y="130" on="0"/>
        <pt x="153" y="155" on="0"/>
        <pt x="147" y="172" on="1"/>
        <pt x="142" y="184" on="0"/>
        <pt x="132" y="224" on="0"/>
        <pt x="131" y="259" on="1"/>
        <pt x="129" y="296" on="0"/>
        <pt x="128" y="354" on="0"/>
        <pt x="128" y="448" on="1"/>
        <pt x="128" y="542" on="0"/>
        <pt x="129" y="601" on="0"/>
        <pt x="131" y="638" on="1"/>
        <pt x="132" y="672" on="0"/>
        <pt x="142" y="712" on="0"/>
        <pt x="147" y="725" on="1"/>
        <pt x="153" y="741" on="0"/>
        <pt x="170" y="766" on="0"/>
        <pt x="182" y="779" on="1"/>
        <pt x="194" y="791" on="0"/>
        <pt x="219" y="807" on="0"/>
        <pt x="236" y="814" on="1"/>
        <pt x="248" y="819" on="0"/>
        <pt x="289" y="828" on="0"/>
        <pt x="323" y="830" on="1"/>
        <pt x="360" y="832" on="0"/>
        <pt x="418" y="833" on="0"/>
        <pt x="512" y="833" on="1"/>
      </contour>
      <contour>
        <pt x="512" y="917" on="1"/>
        <pt x="417" y="917" on="0"/>
        <pt x="356" y="916" on="0"/>
        <pt x="319" y="915" on="1"/>
        <pt x="281" y="913" on="0"/>
        <pt x="227" y="901" on="0"/>
        <pt x="205" y="893" on="1"/>
        <pt x="182" y="884" on="0"/>
        <pt x="141" y="858" on="0"/>
        <pt x="122" y="838" on="1"/>
        <pt x="102" y="819" on="0"/>
        <pt x="77" y="778" on="0"/>
        <pt x="67" y="755" on="1"/>
        <pt x="59" y="733" on="0"/>
        <pt x="47" y="679" on="0"/>
        <pt x="46" y="642" on="1"/>
        <pt x="44" y="604" on="0"/>
        <pt x="43" y="543" on="0"/>
        <pt x="43" y="448" on="1"/>
        <pt x="43" y="352" on="0"/>
        <pt x="44" y="292" on="0"/>
        <pt x="46" y="255" on="1"/>
        <pt x="47" y="217" on="0"/>
        <pt x="59" y="163" on="0"/>
        <pt x="67" y="141" on="1"/>
        <pt x="77" y="117" on="0"/>
        <pt x="102" y="77" on="0"/>
        <pt x="122" y="58" on="1"/>
        <pt x="141" y="38" on="0"/>
        <pt x="182" y="12" on="0"/>
        <pt x="205" y="3" on="1"/>
        <pt x="227" y="-5" on="0"/>
        <pt x="281" y="-17" on="0"/>
        <pt x="319" y="-18" on="1"/>
        <pt x="356" y="-20" on="0"/>
        <pt x="416" y="-21" on="0"/>
        <pt x="512" y="-21" on="1"/>
        <pt x="608" y="-21" on="0"/>
        <pt x="668" y="-20" on="0"/>
        <pt x="705" y="-18" on="1"/>
        <pt x="743" y="-17" on="0"/>
        <pt x="797" y="-5" on="0"/>
        <pt x="819" y="3" on="1"/>
        <pt x="842" y="12" on="0"/>
        <pt x="883" y="38" on="0"/>
        <pt x="902" y="57" on="1"/>
        <pt x="922" y="77" on="0"/>
        <pt x="947" y="117" on="0"/>
        <pt x="956" y="140" on="1"/>
        <pt x="965" y="163" on="0"/>
        <pt x="976" y="217" on="0"/>
        <pt x="978" y="254" on="1"/>
        <pt x="980" y="292" on="0"/>
        <pt x="981" y="352" on="0"/>
        <pt x="981" y="448" on="1"/>
        <pt x="981" y="543" on="0"/>
        <pt x="980" y="604" on="0"/>
        <pt x="978" y="641" on="1"/>
        <pt x="977" y="679" on="0"/>
        <pt x="965" y="733" on="0"/>
        <pt x="956" y="755" on="1"/>
        <pt x="948" y="778" on="0"/>
        <pt x="922" y="819" on="0"/>
        <pt x="903" y="838" on="1"/>
        <pt x="883" y="858" on="0"/>
        <pt x="843" y="884" on="0"/>
        <pt x="820" y="892" on="1"/>
        <pt x="797" y="901" on="0"/>
        <pt x="743" y="913" on="0"/>
        <pt x="706" y="914" on="1"/>
        <pt x="668" y="916" on="0"/>
        <pt x="608" y="917" on="0"/>
        <pt x="512" y="917" on="1"/>
        <pt x="512" y="917" on="0"/>
        <pt x="512" y="917" on="0"/>
        <pt x="512" y="917" on="1"/>
      </contour>
      <contour>
        <pt x="512" y="689" on="1"/>
        <pt x="462" y="689" on="0"/>
        <pt x="418" y="670" on="1"/>
        <pt x="375" y="651" on="0"/>
        <pt x="309" y="586" on="0"/>
        <pt x="290" y="542" on="1"/>
        <pt x="271" y="498" on="0"/>
        <pt x="271" y="448" on="1"/>
        <pt x="271" y="398" on="0"/>
        <pt x="290" y="354" on="1"/>
        <pt x="309" y="310" on="0"/>
        <pt x="375" y="245" on="0"/>
        <pt x="418" y="226" on="1"/>
        <pt x="462" y="207" on="0"/>
        <pt x="512" y="207" on="1"/>
        <pt x="562" y="207" on="0"/>
        <pt x="606" y="226" on="1"/>
        <pt x="650" y="245" on="0"/>
        <pt x="715" y="310" on="0"/>
        <pt x="734" y="354" on="1"/>
        <pt x="753" y="398" on="0"/>
        <pt x="753" y="448" on="1"/>
        <pt x="753" y="498" on="0"/>
        <pt x="734" y="542" on="1"/>
        <pt x="715" y="586" on="0"/>
        <pt x="650" y="651" on="0"/>
        <pt x="606" y="670" on="1"/>
        <pt x="562" y="689" on="0"/>
      </contour>
      <contour>
        <pt x="512" y="292" on="1"/>
        <pt x="448" y="292" on="0"/>
        <pt x="356" y="383" on="0"/>
        <pt x="356" y="448" on="1"/>
        <pt x="356" y="513" on="0"/>
        <pt x="447" y="604" on="0"/>
        <pt x="512" y="604" on="1"/>
        <pt x="577" y="604" on="0"/>
        <pt x="669" y="513" on="0"/>
        <pt x="669" y="448" on="1"/>
        <pt x="669" y="383" on="0"/>
        <pt x="577" y="292" on="0"/>
        <pt x="512" y="292" on="1"/>
      </contour>
      <contour>
        <pt x="819" y="698" on="1"/>
        <pt x="819" y="675" on="0"/>
        <pt x="786" y="642" on="0"/>
        <pt x="763" y="642" on="1"/>
        <pt x="739" y="642" on="0"/>
        <pt x="707" y="675" on="0"/>
        <pt x="707" y="698" on="1"/>
        <pt x="707" y="722" on="0"/>
        <pt x="739" y="755" on="0"/>
        <pt x="763" y="755" on="1"/>
        <pt x="786" y="755" on="0"/>
        <pt x="819" y="722" on="0"/>
      </contour>
    </TTGlyph>
    <TTGlyph name="uniE92B" xMin="0" yMin="-64" xMax="1024" yMax="960">
      <contour>
        <pt x="992" y="704" on="1"/>
        <pt x="768" y="704" on="1"/>
        <pt x="768" y="928" on="1"/>
        <pt x="768" y="942" on="0"/>
        <pt x="750" y="960" on="0"/>
        <pt x="736" y="960" on="1"/>
        <pt x="722" y="960" on="0"/>
        <pt x="704" y="942" on="0"/>
        <pt x="704" y="928" on="1"/>
        <pt x="704" y="704" on="1"/>
        <pt x="320" y="704" on="1"/>
        <pt x="320" y="928" on="1"/>
        <pt x="320" y="942" on="0"/>
        <pt x="302" y="960" on="0"/>
        <pt x="288" y="960" on="1"/>
        <pt x="274" y="960" on="0"/>
        <pt x="256" y="942" on="0"/>
        <pt x="256" y="928" on="1"/>
        <pt x="256" y="704" on="1"/>
        <pt x="32" y="704" on="1"/>
        <pt x="18" y="704" on="0"/>
        <pt x="0" y="686" on="0"/>
        <pt x="0" y="672" on="1"/>
        <pt x="0" y="658" on="0"/>
        <pt x="18" y="640" on="0"/>
        <pt x="32" y="640" on="1"/>
        <pt x="128" y="640" on="1"/>
        <pt x="128" y="512" on="1"/>
        <pt x="128" y="450" on="0"/>
        <pt x="166" y="330" on="0"/>
        <pt x="205" y="282" on="1"/>
        <pt x="238" y="238" on="0"/>
        <pt x="331" y="173" on="0"/>
        <pt x="384" y="154" on="1"/>
        <pt x="384" y="-26" on="1"/>
        <pt x="384" y="-45" on="0"/>
        <pt x="402" y="-64" on="0"/>
        <pt x="416" y="-64" on="1"/>
        <pt x="608" y="-64" on="1"/>
        <pt x="622" y="-64" on="0"/>
        <pt x="640" y="-46" on="0"/>
        <pt x="640" y="-32" on="1"/>
        <pt x="640" y="147" on="1"/>
        <pt x="693" y="166" on="0"/>
        <pt x="786" y="232" on="0"/>
        <pt x="819" y="275" on="1"/>
        <pt x="858" y="328" on="0"/>
        <pt x="896" y="450" on="0"/>
        <pt x="896" y="512" on="1"/>
        <pt x="896" y="640" on="1"/>
        <pt x="992" y="640" on="1"/>
        <pt x="1006" y="640" on="0"/>
        <pt x="1024" y="658" on="0"/>
        <pt x="1024" y="672" on="1"/>
        <pt x="1024" y="686" on="0"/>
        <pt x="1006" y="704" on="0"/>
      </contour>
      <contour>
        <pt x="832" y="512" on="1"/>
        <pt x="832" y="459" on="0"/>
        <pt x="797" y="363" on="0"/>
        <pt x="768" y="320" on="1"/>
        <pt x="734" y="277" on="0"/>
        <pt x="650" y="219" on="0"/>
        <pt x="602" y="205" on="1"/>
        <pt x="587" y="200" on="0"/>
        <pt x="576" y="182" on="0"/>
        <pt x="576" y="173" on="1"/>
        <pt x="576" y="0" on="1"/>
        <pt x="448" y="0" on="1"/>
        <pt x="448" y="173" on="1"/>
        <pt x="448" y="182" on="0"/>
        <pt x="437" y="200" on="0"/>
        <pt x="422" y="205" on="1"/>
        <pt x="374" y="219" on="0"/>
        <pt x="285" y="277" on="0"/>
        <pt x="256" y="320" on="1"/>
        <pt x="227" y="363" on="0"/>
        <pt x="192" y="459" on="0"/>
        <pt x="192" y="512" on="1"/>
        <pt x="192" y="640" on="1"/>
        <pt x="832" y="640" on="1"/>
      </contour>
    </TTGlyph>
    <TTGlyph name="uniE92C" xMin="0" yMin="-34" xMax="980" yMax="930">
      <contour>
        <pt x="0" y="719" on="1"/>
        <pt x="0" y="755" on="0"/>
        <pt x="55" y="809" on="0"/>
        <pt x="92" y="809" on="1"/>
        <pt x="122" y="809" on="1"/>
        <pt x="122" y="749" on="1"/>
        <pt x="92" y="749" on="1"/>
        <pt x="78" y="749" on="0"/>
        <pt x="61" y="733" on="0"/>
        <pt x="61" y="719" on="1"/>
        <pt x="61" y="56" on="1"/>
        <pt x="61" y="43" on="0"/>
        <pt x="78" y="26" on="0"/>
        <pt x="92" y="26" on="1"/>
        <pt x="888" y="26" on="1"/>
        <pt x="901" y="26" on="0"/>
        <pt x="918" y="43" on="0"/>
        <pt x="918" y="56" on="1"/>
        <pt x="918" y="719" on="1"/>
        <pt x="918" y="733" on="0"/>
        <pt x="901" y="749" on="0"/>
        <pt x="888" y="749" on="1"/>
        <pt x="429" y="749" on="1"/>
        <pt x="429" y="809" on="1"/>
        <pt x="888" y="809" on="1"/>
        <pt x="924" y="809" on="0"/>
        <pt x="980" y="755" on="0"/>
        <pt x="980" y="719" on="1"/>
        <pt x="980" y="56" on="1"/>
        <pt x="980" y="20" on="0"/>
        <pt x="924" y="-34" on="0"/>
        <pt x="888" y="-34" on="1"/>
        <pt x="92" y="-34" on="1"/>
        <pt x="55" y="-34" on="0"/>
        <pt x="0" y="20" on="0"/>
        <pt x="0" y="56" on="1"/>
        <pt x="0" y="719" on="1"/>
      </contour>
      <contour>
        <pt x="122" y="840" on="1"/>
        <pt x="122" y="876" on="0"/>
        <pt x="178" y="930" on="0"/>
        <pt x="214" y="930" on="1"/>
        <pt x="275" y="930" on="1"/>
        <pt x="312" y="930" on="0"/>
        <pt x="367" y="876" on="0"/>
        <pt x="367" y="840" on="1"/>
        <pt x="367" y="177" on="1"/>
        <pt x="367" y="141" on="0"/>
        <pt x="312" y="87" on="0"/>
        <pt x="275" y="87" on="1"/>
        <pt x="214" y="87" on="1"/>
        <pt x="178" y="87" on="0"/>
        <pt x="122" y="141" on="0"/>
        <pt x="122" y="177" on="1"/>
        <pt x="122" y="840" on="1"/>
      </contour>
      <contour>
        <pt x="214" y="870" on="1"/>
        <pt x="200" y="870" on="0"/>
        <pt x="184" y="853" on="0"/>
        <pt x="184" y="840" on="1"/>
        <pt x="184" y="177" on="1"/>
        <pt x="184" y="163" on="0"/>
        <pt x="200" y="147" on="0"/>
        <pt x="214" y="147" on="1"/>
        <pt x="275" y="147" on="1"/>
        <pt x="289" y="147" on="0"/>
        <pt x="306" y="163" on="0"/>
        <pt x="306" y="177" on="1"/>
        <pt x="306" y="840" on="1"/>
        <pt x="306" y="853" on="0"/>
        <pt x="289" y="870" on="0"/>
        <pt x="275" y="870" on="1"/>
        <pt x="214" y="870" on="1"/>
      </contour>
      <contour>
        <pt x="441" y="418" on="1"/>
        <pt x="551" y="418" on="1"/>
        <pt x="551" y="358" on="1"/>
        <pt x="441" y="358" on="1"/>
      </contour>
      <contour>
        <pt x="441" y="291" on="1"/>
        <pt x="551" y="291" on="1"/>
        <pt x="551" y="231" on="1"/>
        <pt x="441" y="231" on="1"/>
      </contour>
      <contour>
        <pt x="441" y="165" on="1"/>
        <pt x="551" y="165" on="1"/>
        <pt x="551" y="105" on="1"/>
        <pt x="441" y="105" on="1"/>
      </contour>
      <contour>
        <pt x="594" y="418" on="1"/>
        <pt x="704" y="418" on="1"/>
        <pt x="704" y="358" on="1"/>
        <pt x="594" y="358" on="1"/>
      </contour>
      <contour>
        <pt x="594" y="291" on="1"/>
        <pt x="704" y="291" on="1"/>
        <pt x="704" y="231" on="1"/>
        <pt x="594" y="231" on="1"/>
      </contour>
      <contour>
        <pt x="594" y="165" on="1"/>
        <pt x="704" y="165" on="1"/>
        <pt x="704" y="105" on="1"/>
        <pt x="594" y="105" on="1"/>
      </contour>
      <contour>
        <pt x="747" y="418" on="1"/>
        <pt x="857" y="418" on="1"/>
        <pt x="857" y="358" on="1"/>
        <pt x="747" y="358" on="1"/>
      </contour>
      <contour>
        <pt x="747" y="291" on="1"/>
        <pt x="857" y="291" on="1"/>
        <pt x="857" y="231" on="1"/>
        <pt x="747" y="231" on="1"/>
      </contour>
      <contour>
        <pt x="747" y="165" on="1"/>
        <pt x="857" y="165" on="1"/>
        <pt x="857" y="105" on="1"/>
        <pt x="747" y="105" on="1"/>
      </contour>
      <contour>
        <pt x="796" y="689" on="1"/>
        <pt x="502" y="689" on="1"/>
        <pt x="474" y="689" on="0"/>
        <pt x="441" y="656" on="0"/>
        <pt x="441" y="629" on="1"/>
        <pt x="441" y="538" on="1"/>
        <pt x="441" y="511" on="0"/>
        <pt x="474" y="478" on="0"/>
        <pt x="502" y="478" on="1"/>
        <pt x="796" y="478" on="1"/>
        <pt x="823" y="478" on="0"/>
        <pt x="857" y="511" on="0"/>
        <pt x="857" y="538" on="1"/>
        <pt x="857" y="629" on="1"/>
        <pt x="857" y="656" on="0"/>
        <pt x="823" y="689" on="0"/>
        <pt x="796" y="689" on="1"/>
      </contour>
      <contour>
        <pt x="796" y="538" on="1"/>
        <pt x="502" y="538" on="1"/>
        <pt x="502" y="629" on="1"/>
        <pt x="796" y="629" on="1"/>
        <pt x="796" y="538" on="1"/>
      </contour>
    </TTGlyph>
    <TTGlyph name="uniE92D" xMin="0" yMin="-64" xMax="1024" yMax="960">
      <contour>
        <pt x="410" y="960" on="1"/>
        <pt x="367" y="960" on="0"/>
        <pt x="330" y="944" on="1"/>
        <pt x="293" y="928" on="0"/>
        <pt x="237" y="872" on="0"/>
        <pt x="221" y="835" on="1"/>
        <pt x="205" y="798" on="0"/>
        <pt x="205" y="755" on="1"/>
        <pt x="34" y="755" on="1"/>
        <pt x="20" y="755" on="0"/>
        <pt x="0" y="735" on="0"/>
        <pt x="0" y="721" on="1"/>
        <pt x="0" y="513" on="1"/>
        <pt x="0" y="501" on="0"/>
        <pt x="15" y="482" on="0"/>
        <pt x="27" y="479" on="1"/>
        <pt x="74" y="470" on="0"/>
        <pt x="137" y="395" on="0"/>
        <pt x="137" y="346" on="1"/>
        <pt x="137" y="296" on="0"/>
        <pt x="74" y="221" on="0"/>
        <pt x="27" y="212" on="1"/>
        <pt x="15" y="209" on="0"/>
        <pt x="0" y="191" on="0"/>
        <pt x="0" y="178" on="1"/>
        <pt x="0" y="-30" on="1"/>
        <pt x="0" y="-44" on="0"/>
        <pt x="20" y="-64" on="0"/>
        <pt x="34" y="-64" on="1"/>
        <pt x="242" y="-64" on="1"/>
        <pt x="255" y="-64" on="0"/>
        <pt x="273" y="-49" on="0"/>
        <pt x="276" y="-37" on="1"/>
        <pt x="285" y="10" on="0"/>
        <pt x="360" y="73" on="0"/>
        <pt x="410" y="73" on="1"/>
        <pt x="459" y="73" on="0"/>
        <pt x="534" y="10" on="0"/>
        <pt x="543" y="-37" on="1"/>
        <pt x="546" y="-49" on="0"/>
        <pt x="565" y="-64" on="0"/>
        <pt x="577" y="-64" on="1"/>
        <pt x="785" y="-64" on="1"/>
        <pt x="799" y="-64" on="0"/>
        <pt x="819" y="-44" on="0"/>
        <pt x="819" y="-30" on="1"/>
        <pt x="819" y="141" on="1"/>
        <pt x="862" y="141" on="0"/>
        <pt x="899" y="157" on="1"/>
        <pt x="936" y="173" on="0"/>
        <pt x="992" y="229" on="0"/>
        <pt x="1008" y="266" on="1"/>
        <pt x="1024" y="303" on="0"/>
        <pt x="1024" y="346" on="1"/>
        <pt x="1024" y="388" on="0"/>
        <pt x="1008" y="425" on="1"/>
        <pt x="992" y="463" on="0"/>
        <pt x="936" y="518" on="0"/>
        <pt x="899" y="534" on="1"/>
        <pt x="862" y="550" on="0"/>
        <pt x="819" y="550" on="1"/>
        <pt x="819" y="721" on="1"/>
        <pt x="819" y="735" on="0"/>
        <pt x="799" y="755" on="0"/>
        <pt x="785" y="755" on="1"/>
        <pt x="614" y="755" on="1"/>
        <pt x="614" y="798" on="0"/>
        <pt x="598" y="835" on="1"/>
        <pt x="582" y="872" on="0"/>
        <pt x="527" y="928" on="0"/>
        <pt x="489" y="944" on="1"/>
        <pt x="452" y="960" on="0"/>
        <pt x="410" y="960" on="1"/>
      </contour>
      <contour>
        <pt x="273" y="755" on="1"/>
        <pt x="273" y="812" on="0"/>
        <pt x="353" y="892" on="0"/>
        <pt x="410" y="892" on="1"/>
        <pt x="466" y="892" on="0"/>
        <pt x="546" y="812" on="0"/>
        <pt x="546" y="755" on="1"/>
        <pt x="546" y="748" on="0"/>
        <pt x="545" y="734" on="0"/>
        <pt x="543" y="728" on="1"/>
        <pt x="542" y="720" on="0"/>
        <pt x="546" y="705" on="0"/>
        <pt x="550" y="699" on="1"/>
        <pt x="555" y="693" on="0"/>
        <pt x="569" y="687" on="0"/>
        <pt x="577" y="687" on="1"/>
        <pt x="751" y="687" on="1"/>
        <pt x="751" y="513" on="1"/>
        <pt x="751" y="505" on="0"/>
        <pt x="757" y="491" on="0"/>
        <pt x="763" y="486" on="1"/>
        <pt x="769" y="482" on="0"/>
        <pt x="784" y="478" on="0"/>
        <pt x="792" y="479" on="1"/>
        <pt x="798" y="481" on="0"/>
        <pt x="812" y="482" on="0"/>
        <pt x="819" y="482" on="1"/>
        <pt x="876" y="482" on="0"/>
        <pt x="956" y="402" on="0"/>
        <pt x="956" y="346" on="1"/>
        <pt x="956" y="289" on="0"/>
        <pt x="876" y="209" on="0"/>
        <pt x="819" y="209" on="1"/>
        <pt x="812" y="209" on="0"/>
        <pt x="798" y="210" on="0"/>
        <pt x="792" y="212" on="1"/>
        <pt x="784" y="213" on="0"/>
        <pt x="769" y="210" on="0"/>
        <pt x="763" y="205" on="1"/>
        <pt x="758" y="200" on="0"/>
        <pt x="751" y="186" on="0"/>
        <pt x="751" y="178" on="1"/>
        <pt x="751" y="4" on="1"/>
        <pt x="603" y="4" on="1"/>
        <pt x="582" y="64" on="0"/>
        <pt x="477" y="141" on="0"/>
        <pt x="410" y="141" on="1"/>
        <pt x="343" y="141" on="0"/>
        <pt x="238" y="64" on="0"/>
        <pt x="216" y="4" on="1"/>
        <pt x="68" y="4" on="1"/>
        <pt x="68" y="152" on="1"/>
        <pt x="128" y="174" on="0"/>
        <pt x="205" y="279" on="0"/>
        <pt x="205" y="346" on="1"/>
        <pt x="205" y="413" on="0"/>
        <pt x="128" y="518" on="0"/>
        <pt x="68" y="539" on="1"/>
        <pt x="68" y="687" on="1"/>
        <pt x="242" y="687" on="1"/>
        <pt x="250" y="687" on="0"/>
        <pt x="264" y="693" on="0"/>
        <pt x="269" y="699" on="1"/>
        <pt x="274" y="705" on="0"/>
        <pt x="277" y="720" on="0"/>
        <pt x="276" y="728" on="1"/>
        <pt x="275" y="734" on="0"/>
        <pt x="273" y="748" on="0"/>
        <pt x="273" y="755" on="1"/>
      </contour>
    </TTGlyph>
    <TTGlyph name="uniE92E" xMin="0" yMin="-64" xMax="1024" yMax="960">
      <contour>
        <pt x="352" y="960" on="1"/>
        <pt x="365" y="960" on="0"/>
        <pt x="384" y="941" on="0"/>
        <pt x="384" y="928" on="1"/>
        <pt x="384" y="800" on="1"/>
        <pt x="384" y="787" on="0"/>
        <pt x="365" y="768" on="0"/>
        <pt x="352" y="768" on="1"/>
        <pt x="339" y="768" on="0"/>
        <pt x="320" y="787" on="0"/>
        <pt x="320" y="800" on="1"/>
        <pt x="320" y="928" on="1"/>
        <pt x="320" y="941" on="0"/>
        <pt x="339" y="960" on="0"/>
      </contour>
      <contour>
        <pt x="672" y="960" on="1"/>
        <pt x="685" y="960" on="0"/>
        <pt x="704" y="941" on="0"/>
        <pt x="704" y="928" on="1"/>
        <pt x="704" y="800" on="1"/>
        <pt x="704" y="787" on="0"/>
        <pt x="685" y="768" on="0"/>
        <pt x="672" y="768" on="1"/>
        <pt x="659" y="768" on="0"/>
        <pt x="640" y="787" on="0"/>
        <pt x="640" y="800" on="1"/>
        <pt x="640" y="928" on="1"/>
        <pt x="640" y="941" on="0"/>
        <pt x="659" y="960" on="0"/>
      </contour>
      <contour>
        <pt x="832" y="288" on="1"/>
        <pt x="832" y="301" on="0"/>
        <pt x="851" y="320" on="0"/>
        <pt x="864" y="320" on="1"/>
        <pt x="992" y="320" on="1"/>
        <pt x="1005" y="320" on="0"/>
        <pt x="1024" y="301" on="0"/>
        <pt x="1024" y="288" on="1"/>
        <pt x="1024" y="275" on="0"/>
        <pt x="1005" y="256" on="0"/>
        <pt x="992" y="256" on="1"/>
        <pt x="864" y="256" on="1"/>
        <pt x="851" y="256" on="0"/>
        <pt x="832" y="275" on="0"/>
      </contour>
      <contour>
        <pt x="832" y="608" on="1"/>
        <pt x="832" y="621" on="0"/>
        <pt x="851" y="640" on="0"/>
        <pt x="864" y="640" on="1"/>
        <pt x="992" y="640" on="1"/>
        <pt x="1005" y="640" on="0"/>
        <pt x="1024" y="621" on="0"/>
        <pt x="1024" y="608" on="1"/>
        <pt x="1024" y="595" on="0"/>
        <pt x="1005" y="576" on="0"/>
        <pt x="992" y="576" on="1"/>
        <pt x="864" y="576" on="1"/>
        <pt x="851" y="576" on="0"/>
        <pt x="832" y="595" on="0"/>
      </contour>
      <contour>
        <pt x="0" y="288" on="1"/>
        <pt x="0" y="301" on="0"/>
        <pt x="19" y="320" on="0"/>
        <pt x="32" y="320" on="1"/>
        <pt x="160" y="320" on="1"/>
        <pt x="173" y="320" on="0"/>
        <pt x="192" y="301" on="0"/>
        <pt x="192" y="288" on="1"/>
        <pt x="192" y="275" on="0"/>
        <pt x="173" y="256" on="0"/>
        <pt x="160" y="256" on="1"/>
        <pt x="32" y="256" on="1"/>
        <pt x="19" y="256" on="0"/>
        <pt x="0" y="275" on="0"/>
      </contour>
      <contour>
        <pt x="0" y="608" on="1"/>
        <pt x="0" y="621" on="0"/>
        <pt x="19" y="640" on="0"/>
        <pt x="32" y="640" on="1"/>
        <pt x="160" y="640" on="1"/>
        <pt x="173" y="640" on="0"/>
        <pt x="192" y="621" on="0"/>
        <pt x="192" y="608" on="1"/>
        <pt x="192" y="595" on="0"/>
        <pt x="173" y="576" on="0"/>
        <pt x="160" y="576" on="1"/>
        <pt x="32" y="576" on="1"/>
        <pt x="19" y="576" on="0"/>
        <pt x="0" y="595" on="0"/>
      </contour>
      <contour>
        <pt x="352" y="128" on="1"/>
        <pt x="365" y="128" on="0"/>
        <pt x="384" y="109" on="0"/>
        <pt x="384" y="96" on="1"/>
        <pt x="384" y="-32" on="1"/>
        <pt x="384" y="-45" on="0"/>
        <pt x="365" y="-64" on="0"/>
        <pt x="352" y="-64" on="1"/>
        <pt x="339" y="-64" on="0"/>
        <pt x="320" y="-45" on="0"/>
        <pt x="320" y="-32" on="1"/>
        <pt x="320" y="96" on="1"/>
        <pt x="320" y="109" on="0"/>
        <pt x="339" y="128" on="0"/>
      </contour>
      <contour>
        <pt x="672" y="128" on="1"/>
        <pt x="685" y="128" on="0"/>
        <pt x="704" y="109" on="0"/>
        <pt x="704" y="96" on="1"/>
        <pt x="704" y="-32" on="1"/>
        <pt x="704" y="-45" on="0"/>
        <pt x="685" y="-64" on="0"/>
        <pt x="672" y="-64" on="1"/>
        <pt x="659" y="-64" on="0"/>
        <pt x="640" y="-45" on="0"/>
        <pt x="640" y="-32" on="1"/>
        <pt x="640" y="96" on="1"/>
        <pt x="640" y="109" on="0"/>
        <pt x="659" y="128" on="0"/>
      </contour>
      <contour>
        <pt x="230" y="768" on="1"/>
        <pt x="214" y="768" on="0"/>
        <pt x="192" y="746" on="0"/>
        <pt x="192" y="730" on="1"/>
        <pt x="192" y="166" on="1"/>
        <pt x="192" y="150" on="0"/>
        <pt x="214" y="128" on="0"/>
        <pt x="230" y="128" on="1"/>
        <pt x="794" y="128" on="1"/>
        <pt x="810" y="128" on="0"/>
        <pt x="832" y="150" on="0"/>
        <pt x="832" y="166" on="1"/>
        <pt x="832" y="730" on="1"/>
        <pt x="832" y="746" on="0"/>
        <pt x="810" y="768" on="0"/>
        <pt x="794" y="768" on="1"/>
        <pt x="230" y="768" on="1"/>
      </contour>
      <contour>
        <pt x="128" y="730" on="1"/>
        <pt x="128" y="772" on="0"/>
        <pt x="188" y="832" on="0"/>
        <pt x="230" y="832" on="1"/>
        <pt x="794" y="832" on="1"/>
        <pt x="836" y="832" on="0"/>
        <pt x="896" y="772" on="0"/>
        <pt x="896" y="730" on="1"/>
        <pt x="896" y="166" on="1"/>
        <pt x="896" y="124" on="0"/>
        <pt x="836" y="64" on="0"/>
        <pt x="794" y="64" on="1"/>
        <pt x="230" y="64" on="1"/>
        <pt x="188" y="64" on="0"/>
        <pt x="128" y="124" on="0"/>
        <pt x="128" y="166" on="1"/>
        <pt x="128" y="730" on="1"/>
      </contour>
      <contour>
        <pt x="256" y="672" on="1"/>
        <pt x="256" y="685" on="0"/>
        <pt x="275" y="704" on="0"/>
        <pt x="288" y="704" on="1"/>
        <pt x="736" y="704" on="1"/>
        <pt x="749" y="704" on="0"/>
        <pt x="768" y="685" on="0"/>
        <pt x="768" y="672" on="1"/>
        <pt x="768" y="224" on="1"/>
        <pt x="768" y="211" on="0"/>
        <pt x="749" y="192" on="0"/>
        <pt x="736" y="192" on="1"/>
        <pt x="288" y="192" on="1"/>
        <pt x="275" y="192" on="0"/>
        <pt x="256" y="211" on="0"/>
        <pt x="256" y="224" on="1"/>
      </contour>
      <contour>
        <pt x="320" y="640" on="1"/>
        <pt x="320" y="256" on="1"/>
        <pt x="704" y="256" on="1"/>
        <pt x="704" y="640" on="1"/>
      </contour>
    </TTGlyph>
    <TTGlyph name="uniE92F" xMin="0" yMin="-64" xMax="768" yMax="960">
      <contour>
        <pt x="717" y="768" on="1"/>
        <pt x="691" y="812" on="0"/>
        <pt x="621" y="883" on="0"/>
        <pt x="578" y="908" on="1"/>
        <pt x="576" y="909" on="1"/>
        <pt x="528" y="938" on="0"/>
        <pt x="426" y="960" on="0"/>
        <pt x="378" y="960" on="1"/>
        <pt x="325" y="960" on="0"/>
        <pt x="229" y="931" on="0"/>
        <pt x="186" y="902" on="1"/>
        <pt x="140" y="877" on="0"/>
        <pt x="69" y="803" on="0"/>
        <pt x="46" y="757" on="1"/>
        <pt x="45" y="755" on="1"/>
        <pt x="21" y="712" on="0"/>
        <pt x="0" y="611" on="0"/>
        <pt x="0" y="563" on="1"/>
        <pt x="0" y="510" on="0"/>
        <pt x="34" y="414" on="0"/>
        <pt x="58" y="371" on="1"/>
        <pt x="83" y="331" on="0"/>
        <pt x="150" y="267" on="0"/>
        <pt x="190" y="244" on="1"/>
        <pt x="192" y="243" on="1"/>
        <pt x="192" y="-32" on="1"/>
        <pt x="192" y="-46" on="0"/>
        <pt x="210" y="-64" on="0"/>
        <pt x="224" y="-64" on="1"/>
        <pt x="544" y="-64" on="1"/>
        <pt x="558" y="-64" on="0"/>
        <pt x="576" y="-46" on="0"/>
        <pt x="576" y="-32" on="1"/>
        <pt x="576" y="243" on="1"/>
        <pt x="619" y="267" on="0"/>
        <pt x="686" y="334" on="0"/>
        <pt x="710" y="376" on="1"/>
        <pt x="710" y="378" on="1"/>
        <pt x="739" y="421" on="0"/>
        <pt x="768" y="523" on="0"/>
        <pt x="768" y="576" on="1"/>
        <pt x="768" y="629" on="0"/>
        <pt x="741" y="725" on="0"/>
        <pt x="717" y="768" on="1"/>
      </contour>
      <contour>
        <pt x="279" y="4" on="1"/>
        <pt x="279" y="73" on="1"/>
        <pt x="524" y="73" on="1"/>
        <pt x="524" y="4" on="1"/>
      </contour>
      <contour>
        <pt x="698" y="565" on="1"/>
        <pt x="698" y="521" on="0"/>
        <pt x="673" y="434" on="0"/>
        <pt x="654" y="395" on="1"/>
        <pt x="635" y="355" on="0"/>
        <pt x="566" y="296" on="0"/>
        <pt x="529" y="277" on="1"/>
        <pt x="519" y="272" on="0"/>
        <pt x="510" y="256" on="0"/>
        <pt x="510" y="251" on="1"/>
        <pt x="510" y="107" on="1"/>
        <pt x="258" y="107" on="1"/>
        <pt x="258" y="244" on="1"/>
        <pt x="258" y="254" on="0"/>
        <pt x="249" y="270" on="0"/>
        <pt x="239" y="270" on="1"/>
        <pt x="202" y="290" on="0"/>
        <pt x="139" y="349" on="0"/>
        <pt x="120" y="388" on="1"/>
        <pt x="101" y="427" on="0"/>
        <pt x="70" y="507" on="0"/>
        <pt x="70" y="552" on="1"/>
        <pt x="70" y="596" on="0"/>
        <pt x="89" y="682" on="0"/>
        <pt x="108" y="722" on="1"/>
        <pt x="126" y="761" on="0"/>
        <pt x="183" y="821" on="0"/>
        <pt x="221" y="846" on="1"/>
        <pt x="254" y="866" on="0"/>
        <pt x="335" y="892" on="0"/>
        <pt x="378" y="892" on="1"/>
        <pt x="420" y="892" on="0"/>
        <pt x="502" y="872" on="0"/>
        <pt x="535" y="852" on="1"/>
        <pt x="573" y="833" on="0"/>
        <pt x="631" y="769" on="0"/>
        <pt x="654" y="735" on="1"/>
        <pt x="678" y="695" on="0"/>
        <pt x="698" y="609" on="0"/>
        <pt x="698" y="565" on="1"/>
      </contour>
      <contour>
        <pt x="389" y="755" on="1"/>
        <pt x="353" y="755" on="0"/>
        <pt x="286" y="729" on="0"/>
        <pt x="263" y="703" on="1"/>
        <pt x="236" y="681" on="0"/>
        <pt x="209" y="615" on="0"/>
        <pt x="209" y="580" on="1"/>
        <pt x="209" y="566" on="0"/>
        <pt x="226" y="550" on="0"/>
        <pt x="239" y="550" on="1"/>
        <pt x="253" y="550" on="0"/>
        <pt x="269" y="566" on="0"/>
        <pt x="269" y="580" on="1"/>
        <pt x="269" y="602" on="0"/>
        <pt x="287" y="644" on="0"/>
        <pt x="305" y="662" on="1"/>
        <pt x="321" y="678" on="0"/>
        <pt x="364" y="696" on="0"/>
        <pt x="389" y="697" on="1"/>
        <pt x="389" y="697" on="1"/>
        <pt x="402" y="697" on="0"/>
        <pt x="419" y="713" on="0"/>
        <pt x="419" y="726" on="1"/>
        <pt x="419" y="739" on="0"/>
        <pt x="402" y="755" on="0"/>
        <pt x="389" y="755" on="1"/>
      </contour>
    </TTGlyph>
    <TTGlyph name="uniE930" xMin="0" yMin="-64" xMax="1024" yMax="960">
      <contour>
        <pt x="0" y="928" on="1"/>
        <pt x="0" y="942" on="0"/>
        <pt x="18" y="960" on="0"/>
        <pt x="32" y="960" on="1"/>
        <pt x="224" y="960" on="1"/>
        <pt x="238" y="960" on="0"/>
        <pt x="256" y="944" on="0"/>
        <pt x="256" y="934" on="1"/>
        <pt x="320" y="384" on="1"/>
        <pt x="845" y="384" on="1"/>
        <pt x="954" y="704" on="1"/>
        <pt x="416" y="704" on="1"/>
        <pt x="402" y="704" on="0"/>
        <pt x="384" y="722" on="0"/>
        <pt x="384" y="736" on="1"/>
        <pt x="384" y="750" on="0"/>
        <pt x="402" y="768" on="0"/>
        <pt x="416" y="768" on="1"/>
        <pt x="992" y="768" on="1"/>
        <pt x="1002" y="768" on="0"/>
        <pt x="1013" y="760" on="0"/>
        <pt x="1018" y="755" on="1"/>
        <pt x="1022" y="750" on="0"/>
        <pt x="1024" y="733" on="0"/>
        <pt x="1024" y="723" on="1"/>
        <pt x="896" y="339" on="1"/>
        <pt x="891" y="331" on="0"/>
        <pt x="875" y="320" on="0"/>
        <pt x="865" y="320" on="1"/>
        <pt x="864" y="320" on="0"/>
        <pt x="864" y="320" on="0"/>
        <pt x="864" y="320" on="1"/>
        <pt x="864" y="320" on="1"/>
        <pt x="288" y="320" on="1"/>
        <pt x="274" y="320" on="0"/>
        <pt x="256" y="336" on="0"/>
        <pt x="256" y="346" on="1"/>
        <pt x="198" y="896" on="1"/>
        <pt x="32" y="896" on="1"/>
        <pt x="18" y="896" on="0"/>
        <pt x="0" y="914" on="0"/>
        <pt x="0" y="928" on="1"/>
      </contour>
      <contour>
        <pt x="320" y="128" on="1"/>
        <pt x="291" y="128" on="0"/>
        <pt x="256" y="93" on="0"/>
        <pt x="256" y="64" on="1"/>
        <pt x="256" y="35" on="0"/>
        <pt x="291" y="0" on="0"/>
        <pt x="320" y="0" on="1"/>
        <pt x="349" y="0" on="0"/>
        <pt x="384" y="35" on="0"/>
        <pt x="384" y="64" on="1"/>
        <pt x="384" y="93" on="0"/>
        <pt x="349" y="128" on="0"/>
        <pt x="320" y="128" on="1"/>
      </contour>
      <contour>
        <pt x="192" y="64" on="1"/>
        <pt x="192" y="117" on="0"/>
        <pt x="267" y="192" on="0"/>
        <pt x="320" y="192" on="1"/>
        <pt x="320" y="192" on="1"/>
        <pt x="373" y="192" on="0"/>
        <pt x="448" y="117" on="0"/>
        <pt x="448" y="64" on="1"/>
        <pt x="448" y="64" on="1"/>
        <pt x="448" y="11" on="0"/>
        <pt x="373" y="-64" on="0"/>
        <pt x="320" y="-64" on="1"/>
        <pt x="320" y="-64" on="1"/>
        <pt x="267" y="-64" on="0"/>
        <pt x="192" y="11" on="0"/>
        <pt x="192" y="64" on="1"/>
        <pt x="192" y="64" on="1"/>
      </contour>
      <contour>
        <pt x="768" y="64" on="1"/>
        <pt x="768" y="93" on="0"/>
        <pt x="803" y="128" on="0"/>
        <pt x="832" y="128" on="1"/>
        <pt x="861" y="128" on="0"/>
        <pt x="896" y="93" on="0"/>
        <pt x="896" y="64" on="1"/>
        <pt x="896" y="35" on="0"/>
        <pt x="861" y="0" on="0"/>
        <pt x="832" y="0" on="1"/>
        <pt x="803" y="0" on="0"/>
        <pt x="768" y="35" on="0"/>
      </contour>
      <contour>
        <pt x="832" y="192" on="1"/>
        <pt x="779" y="192" on="0"/>
        <pt x="704" y="117" on="0"/>
        <pt x="704" y="64" on="1"/>
        <pt x="704" y="64" on="1"/>
        <pt x="704" y="11" on="0"/>
        <pt x="779" y="-64" on="0"/>
        <pt x="832" y="-64" on="1"/>
        <pt x="832" y="-64" on="1"/>
        <pt x="885" y="-64" on="0"/>
        <pt x="960" y="11" on="0"/>
        <pt x="960" y="64" on="1"/>
        <pt x="960" y="64" on="1"/>
        <pt x="960" y="117" on="0"/>
        <pt x="885" y="192" on="0"/>
        <pt x="832" y="192" on="1"/>
        <pt x="832" y="192" on="1"/>
      </contour>
    </TTGlyph>
    <TTGlyph name="uniE931" xMin="0" yMin="-64" xMax="1024" yMax="960">
      <contour>
        <pt x="800" y="960" on="1"/>
        <pt x="793" y="960" on="0"/>
        <pt x="782" y="955" on="0"/>
        <pt x="777" y="951" on="1"/>
        <pt x="393" y="566" on="1"/>
        <pt x="377" y="571" on="0"/>
        <pt x="340" y="576" on="0"/>
        <pt x="320" y="576" on="1"/>
        <pt x="320" y="576" on="1"/>
        <pt x="320" y="576" on="0"/>
        <pt x="320" y="576" on="0"/>
        <pt x="320" y="576" on="1"/>
        <pt x="254" y="576" on="0"/>
        <pt x="195" y="551" on="1"/>
        <pt x="137" y="526" on="0"/>
        <pt x="50" y="439" on="0"/>
        <pt x="25" y="381" on="1"/>
        <pt x="0" y="322" on="0"/>
        <pt x="0" y="256" on="1"/>
        <pt x="0" y="190" on="0"/>
        <pt x="25" y="131" on="1"/>
        <pt x="50" y="73" on="0"/>
        <pt x="137" y="-14" on="0"/>
        <pt x="195" y="-39" on="1"/>
        <pt x="254" y="-64" on="0"/>
        <pt x="320" y="-64" on="1"/>
        <pt x="386" y="-64" on="0"/>
        <pt x="445" y="-39" on="1"/>
        <pt x="503" y="-14" on="0"/>
        <pt x="590" y="73" on="0"/>
        <pt x="615" y="131" on="1"/>
        <pt x="640" y="190" on="0"/>
        <pt x="640" y="256" on="1"/>
        <pt x="640" y="256" on="1"/>
        <pt x="640" y="275" on="0"/>
        <pt x="635" y="312" on="0"/>
        <pt x="630" y="329" on="1"/>
        <pt x="759" y="457" on="1"/>
        <pt x="763" y="462" on="0"/>
        <pt x="768" y="473" on="0"/>
        <pt x="768" y="480" on="1"/>
        <pt x="768" y="640" on="1"/>
        <pt x="928" y="640" on="1"/>
        <pt x="935" y="640" on="0"/>
        <pt x="946" y="645" on="0"/>
        <pt x="951" y="649" on="1"/>
        <pt x="1015" y="713" on="1"/>
        <pt x="1019" y="718" on="0"/>
        <pt x="1024" y="729" on="0"/>
        <pt x="1024" y="736" on="1"/>
        <pt x="1024" y="928" on="1"/>
        <pt x="1024" y="941" on="0"/>
        <pt x="1005" y="960" on="0"/>
        <pt x="992" y="960" on="1"/>
        <pt x="992" y="960" on="0"/>
        <pt x="992" y="960" on="0"/>
        <pt x="992" y="960" on="1"/>
        <pt x="800" y="960" on="1"/>
      </contour>
      <contour>
        <pt x="426" y="508" on="1"/>
        <pt x="812" y="894" on="1"/>
        <pt x="958" y="894" on="1"/>
        <pt x="958" y="748" on="1"/>
        <pt x="913" y="703" on="1"/>
        <pt x="735" y="703" on="1"/>
        <pt x="722" y="703" on="0"/>
        <pt x="703" y="684" on="0"/>
        <pt x="703" y="671" on="1"/>
        <pt x="703" y="493" on="1"/>
        <pt x="572" y="362" on="1"/>
        <pt x="567" y="357" on="0"/>
        <pt x="562" y="346" on="0"/>
        <pt x="562" y="339" on="1"/>
        <pt x="562" y="337" on="0"/>
        <pt x="563" y="332" on="0"/>
        <pt x="564" y="330" on="1"/>
        <pt x="564" y="330" on="1"/>
        <pt x="569" y="312" on="0"/>
        <pt x="576" y="275" on="0"/>
        <pt x="576" y="257" on="1"/>
        <pt x="576" y="257" on="0"/>
        <pt x="576" y="257" on="0"/>
        <pt x="576" y="257" on="1"/>
        <pt x="576" y="204" on="0"/>
        <pt x="556" y="158" on="1"/>
        <pt x="536" y="111" on="0"/>
        <pt x="466" y="42" on="0"/>
        <pt x="420" y="22" on="1"/>
        <pt x="374" y="2" on="0"/>
        <pt x="321" y="2" on="1"/>
        <pt x="268" y="2" on="0"/>
        <pt x="222" y="22" on="1"/>
        <pt x="175" y="42" on="0"/>
        <pt x="106" y="111" on="0"/>
        <pt x="86" y="158" on="1"/>
        <pt x="66" y="204" on="0"/>
        <pt x="66" y="257" on="1"/>
        <pt x="66" y="310" on="0"/>
        <pt x="86" y="356" on="1"/>
        <pt x="106" y="402" on="0"/>
        <pt x="175" y="472" on="0"/>
        <pt x="222" y="492" on="1"/>
        <pt x="268" y="512" on="0"/>
        <pt x="321" y="512" on="1"/>
        <pt x="321" y="512" on="0"/>
        <pt x="321" y="512" on="0"/>
        <pt x="321" y="512" on="1"/>
        <pt x="321" y="512" on="1"/>
        <pt x="339" y="512" on="0"/>
        <pt x="376" y="505" on="0"/>
        <pt x="394" y="500" on="1"/>
        <pt x="402" y="497" on="0"/>
        <pt x="419" y="501" on="0"/>
        <pt x="426" y="508" on="1"/>
      </contour>
      <contour>
        <pt x="264" y="266" on="1"/>
        <pt x="264" y="294" on="0"/>
        <pt x="303" y="332" on="0"/>
        <pt x="330" y="332" on="1"/>
        <pt x="358" y="332" on="0"/>
        <pt x="396" y="294" on="0"/>
        <pt x="396" y="266" on="1"/>
        <pt x="396" y="266" on="1"/>
        <pt x="396" y="240" on="0"/>
        <pt x="357" y="202" on="0"/>
        <pt x="330" y="202" on="1"/>
        <pt x="303" y="202" on="0"/>
        <pt x="265" y="239" on="0"/>
        <pt x="264" y="266" on="1"/>
        <pt x="264" y="266" on="1"/>
      </contour>
      <contour>
        <pt x="330" y="398" on="1"/>
        <pt x="330" y="398" on="0"/>
        <pt x="329" y="398" on="0"/>
        <pt x="328" y="398" on="1"/>
        <pt x="273" y="398" on="0"/>
        <pt x="196" y="321" on="0"/>
        <pt x="196" y="266" on="1"/>
        <pt x="196" y="212" on="0"/>
        <pt x="273" y="134" on="0"/>
        <pt x="328" y="134" on="1"/>
        <pt x="329" y="134" on="0"/>
        <pt x="330" y="134" on="0"/>
        <pt x="330" y="134" on="1"/>
        <pt x="330" y="134" on="1"/>
        <pt x="384" y="135" on="0"/>
        <pt x="460" y="212" on="0"/>
        <pt x="460" y="266" on="1"/>
        <pt x="460" y="320" on="0"/>
        <pt x="384" y="397" on="0"/>
        <pt x="330" y="398" on="1"/>
        <pt x="330" y="398" on="1"/>
      </contour>
    </TTGlyph>
    <TTGlyph name="uniE932" xMin="0" yMin="128" xMax="1024" yMax="832">
      <contour>
        <pt x="480" y="832" on="1"/>
        <pt x="410" y="832" on="0"/>
        <pt x="348" y="806" on="1"/>
        <pt x="286" y="781" on="0"/>
        <pt x="191" y="691" on="0"/>
        <pt x="162" y="631" on="1"/>
        <pt x="133" y="570" on="0"/>
        <pt x="129" y="501" on="1"/>
        <pt x="72" y="482" on="0"/>
        <pt x="0" y="383" on="0"/>
        <pt x="0" y="320" on="1"/>
        <pt x="0" y="240" on="0"/>
        <pt x="112" y="128" on="0"/>
        <pt x="192" y="128" on="1"/>
        <pt x="832" y="128" on="1"/>
        <pt x="912" y="128" on="0"/>
        <pt x="1024" y="240" on="0"/>
        <pt x="1024" y="320" on="1"/>
        <pt x="1024" y="400" on="0"/>
        <pt x="912" y="512" on="0"/>
        <pt x="832" y="512" on="1"/>
        <pt x="831" y="512" on="1"/>
        <pt x="825" y="579" on="0"/>
        <pt x="795" y="638" on="1"/>
        <pt x="765" y="696" on="0"/>
        <pt x="671" y="782" on="0"/>
        <pt x="610" y="807" on="1"/>
        <pt x="549" y="832" on="0"/>
        <pt x="480" y="832" on="1"/>
      </contour>
      <contour>
        <pt x="192" y="481" on="1"/>
        <pt x="192" y="482" on="1"/>
        <pt x="192" y="541" on="0"/>
        <pt x="215" y="593" on="1"/>
        <pt x="238" y="645" on="0"/>
        <pt x="316" y="723" on="0"/>
        <pt x="368" y="746" on="1"/>
        <pt x="421" y="768" on="0"/>
        <pt x="480" y="768" on="1"/>
        <pt x="539" y="768" on="0"/>
        <pt x="592" y="746" on="1"/>
        <pt x="644" y="723" on="0"/>
        <pt x="722" y="645" on="0"/>
        <pt x="745" y="593" on="1"/>
        <pt x="768" y="541" on="0"/>
        <pt x="768" y="482" on="1"/>
        <pt x="768" y="481" on="1"/>
        <pt x="768" y="480" on="0"/>
        <pt x="768" y="478" on="0"/>
        <pt x="768" y="477" on="1"/>
        <pt x="768" y="470" on="0"/>
        <pt x="774" y="457" on="0"/>
        <pt x="779" y="452" on="1"/>
        <pt x="785" y="447" on="0"/>
        <pt x="799" y="444" on="0"/>
        <pt x="806" y="445" on="1"/>
        <pt x="812" y="447" on="0"/>
        <pt x="825" y="448" on="0"/>
        <pt x="832" y="448" on="1"/>
        <pt x="885" y="448" on="0"/>
        <pt x="960" y="373" on="0"/>
        <pt x="960" y="320" on="1"/>
        <pt x="960" y="267" on="0"/>
        <pt x="885" y="192" on="0"/>
        <pt x="832" y="192" on="1"/>
        <pt x="192" y="192" on="1"/>
        <pt x="139" y="192" on="0"/>
        <pt x="64" y="267" on="0"/>
        <pt x="64" y="320" on="1"/>
        <pt x="64" y="366" on="0"/>
        <pt x="123" y="437" on="0"/>
        <pt x="167" y="445" on="1"/>
        <pt x="178" y="448" on="0"/>
        <pt x="192" y="465" on="0"/>
        <pt x="192" y="477" on="1"/>
        <pt x="192" y="478" on="0"/>
        <pt x="192" y="480" on="0"/>
        <pt x="192" y="481" on="1"/>
      </contour>
    </TTGlyph>
    <TTGlyph name="uniE933" xMin="6" yMin="6" xMax="1018" yMax="896">
      <contour>
        <pt x="685" y="896" on="1"/>
        <pt x="699" y="891" on="0"/>
        <pt x="709" y="867" on="0"/>
        <pt x="704" y="858" on="1"/>
        <pt x="384" y="26" on="1"/>
        <pt x="379" y="11" on="0"/>
        <pt x="355" y="2" on="0"/>
        <pt x="346" y="6" on="1"/>
        <pt x="331" y="11" on="0"/>
        <pt x="322" y="35" on="0"/>
        <pt x="326" y="45" on="1"/>
        <pt x="646" y="877" on="1"/>
        <pt x="646" y="886" on="0"/>
        <pt x="670" y="901" on="0"/>
        <pt x="685" y="896" on="1"/>
      </contour>
      <contour>
        <pt x="250" y="698" on="1"/>
        <pt x="254" y="688" on="0"/>
        <pt x="254" y="656" on="0"/>
        <pt x="250" y="646" on="1"/>
        <pt x="77" y="480" on="1"/>
        <pt x="243" y="314" on="1"/>
        <pt x="253" y="304" on="0"/>
        <pt x="253" y="278" on="0"/>
        <pt x="243" y="269" on="1"/>
        <pt x="234" y="259" on="0"/>
        <pt x="208" y="259" on="0"/>
        <pt x="198" y="269" on="1"/>
        <pt x="6" y="461" on="1"/>
        <pt x="2" y="466" on="0"/>
        <pt x="2" y="496" on="0"/>
        <pt x="6" y="506" on="1"/>
        <pt x="198" y="698" on="1"/>
        <pt x="208" y="702" on="0"/>
        <pt x="240" y="702" on="0"/>
        <pt x="250" y="698" on="1"/>
      </contour>
      <contour>
        <pt x="826" y="698" on="1"/>
        <pt x="816" y="707" on="0"/>
        <pt x="790" y="707" on="0"/>
        <pt x="781" y="698" on="1"/>
        <pt x="771" y="688" on="0"/>
        <pt x="771" y="662" on="0"/>
        <pt x="781" y="653" on="1"/>
        <pt x="947" y="486" on="1"/>
        <pt x="781" y="320" on="1"/>
        <pt x="771" y="310" on="0"/>
        <pt x="771" y="285" on="0"/>
        <pt x="781" y="275" on="1"/>
        <pt x="790" y="266" on="0"/>
        <pt x="816" y="266" on="0"/>
        <pt x="826" y="275" on="1"/>
        <pt x="1018" y="467" on="1"/>
        <pt x="1027" y="477" on="0"/>
        <pt x="1027" y="502" on="0"/>
        <pt x="1018" y="512" on="1"/>
      </contour>
    </TTGlyph>
    <TTGlyph name="uniE934" xMin="0" yMin="-64" xMax="1024" yMax="960">
      <contour>
        <pt x="448" y="960" on="1"/>
        <pt x="436" y="960" on="0"/>
        <pt x="418" y="945" on="0"/>
        <pt x="416" y="933" on="1"/>
        <pt x="397" y="814" on="1"/>
        <pt x="380" y="809" on="0"/>
        <pt x="350" y="796" on="0"/>
        <pt x="335" y="788" on="1"/>
        <pt x="236" y="859" on="1"/>
        <pt x="227" y="865" on="0"/>
        <pt x="204" y="864" on="0"/>
        <pt x="195" y="855" on="1"/>
        <pt x="105" y="765" on="1"/>
        <pt x="96" y="756" on="0"/>
        <pt x="95" y="733" on="0"/>
        <pt x="101" y="724" on="1"/>
        <pt x="172" y="625" on="1"/>
        <pt x="164" y="610" on="0"/>
        <pt x="151" y="580" on="0"/>
        <pt x="146" y="563" on="1"/>
        <pt x="27" y="544" on="1"/>
        <pt x="15" y="542" on="0"/>
        <pt x="0" y="524" on="0"/>
        <pt x="0" y="512" on="1"/>
        <pt x="0" y="384" on="1"/>
        <pt x="0" y="372" on="0"/>
        <pt x="15" y="354" on="0"/>
        <pt x="27" y="352" on="1"/>
        <pt x="146" y="333" on="1"/>
        <pt x="151" y="316" on="0"/>
        <pt x="164" y="286" on="0"/>
        <pt x="172" y="271" on="1"/>
        <pt x="101" y="172" on="1"/>
        <pt x="95" y="163" on="0"/>
        <pt x="96" y="140" on="0"/>
        <pt x="105" y="131" on="1"/>
        <pt x="195" y="41" on="1"/>
        <pt x="204" y="32" on="0"/>
        <pt x="227" y="31" on="0"/>
        <pt x="236" y="37" on="1"/>
        <pt x="335" y="108" on="1"/>
        <pt x="350" y="100" on="0"/>
        <pt x="380" y="87" on="0"/>
        <pt x="397" y="82" on="1"/>
        <pt x="416" y="-37" on="1"/>
        <pt x="418" y="-49" on="0"/>
        <pt x="436" y="-64" on="0"/>
        <pt x="448" y="-64" on="1"/>
        <pt x="576" y="-64" on="1"/>
        <pt x="588" y="-64" on="0"/>
        <pt x="606" y="-49" on="0"/>
        <pt x="608" y="-37" on="1"/>
        <pt x="627" y="82" on="1"/>
        <pt x="644" y="87" on="0"/>
        <pt x="674" y="100" on="0"/>
        <pt x="689" y="108" on="1"/>
        <pt x="788" y="37" on="1"/>
        <pt x="797" y="30" on="0"/>
        <pt x="820" y="32" on="0"/>
        <pt x="829" y="41" on="1"/>
        <pt x="919" y="131" on="1"/>
        <pt x="928" y="139" on="0"/>
        <pt x="929" y="163" on="0"/>
        <pt x="923" y="172" on="1"/>
        <pt x="852" y="271" on="1"/>
        <pt x="860" y="286" on="0"/>
        <pt x="873" y="316" on="0"/>
        <pt x="878" y="333" on="1"/>
        <pt x="997" y="352" on="1"/>
        <pt x="1009" y="354" on="0"/>
        <pt x="1024" y="372" on="0"/>
        <pt x="1024" y="384" on="1"/>
        <pt x="1024" y="512" on="1"/>
        <pt x="1024" y="524" on="0"/>
        <pt x="1009" y="542" on="0"/>
        <pt x="997" y="544" on="1"/>
        <pt x="878" y="563" on="1"/>
        <pt x="873" y="580" on="0"/>
        <pt x="860" y="610" on="0"/>
        <pt x="852" y="625" on="1"/>
        <pt x="923" y="724" on="1"/>
        <pt x="930" y="733" on="0"/>
        <pt x="928" y="756" on="0"/>
        <pt x="919" y="765" on="1"/>
        <pt x="829" y="855" on="1"/>
        <pt x="820" y="864" on="0"/>
        <pt x="797" y="865" on="0"/>
        <pt x="788" y="859" on="1"/>
        <pt x="689" y="788" on="1"/>
        <pt x="674" y="796" on="0"/>
        <pt x="644" y="809" on="0"/>
        <pt x="627" y="814" on="1"/>
        <pt x="608" y="933" on="1"/>
        <pt x="606" y="945" on="0"/>
        <pt x="588" y="960" on="0"/>
        <pt x="576" y="960" on="1"/>
      </contour>
      <contour>
        <pt x="456" y="783" on="1"/>
        <pt x="475" y="896" on="1"/>
        <pt x="549" y="896" on="1"/>
        <pt x="568" y="783" on="1"/>
        <pt x="569" y="774" on="0"/>
        <pt x="582" y="760" on="0"/>
        <pt x="591" y="758" on="1"/>
        <pt x="614" y="752" on="0"/>
        <pt x="656" y="735" on="0"/>
        <pt x="675" y="723" on="1"/>
        <pt x="683" y="718" on="0"/>
        <pt x="702" y="719" on="0"/>
        <pt x="710" y="725" on="1"/>
        <pt x="803" y="791" on="1"/>
        <pt x="855" y="739" on="1"/>
        <pt x="789" y="646" on="1"/>
        <pt x="783" y="638" on="0"/>
        <pt x="782" y="619" on="0"/>
        <pt x="787" y="611" on="1"/>
        <pt x="799" y="592" on="0"/>
        <pt x="816" y="550" on="0"/>
        <pt x="822" y="527" on="1"/>
        <pt x="824" y="518" on="0"/>
        <pt x="838" y="505" on="0"/>
        <pt x="847" y="504" on="1"/>
        <pt x="960" y="485" on="1"/>
        <pt x="960" y="411" on="1"/>
        <pt x="847" y="392" on="1"/>
        <pt x="838" y="391" on="0"/>
        <pt x="824" y="378" on="0"/>
        <pt x="822" y="369" on="1"/>
        <pt x="816" y="346" on="0"/>
        <pt x="799" y="304" on="0"/>
        <pt x="787" y="285" on="1"/>
        <pt x="782" y="277" on="0"/>
        <pt x="783" y="258" on="0"/>
        <pt x="789" y="250" on="1"/>
        <pt x="855" y="157" on="1"/>
        <pt x="803" y="105" on="1"/>
        <pt x="710" y="171" on="1"/>
        <pt x="702" y="177" on="0"/>
        <pt x="683" y="178" on="0"/>
        <pt x="675" y="173" on="1"/>
        <pt x="656" y="161" on="0"/>
        <pt x="614" y="144" on="0"/>
        <pt x="591" y="138" on="1"/>
        <pt x="582" y="136" on="0"/>
        <pt x="569" y="122" on="0"/>
        <pt x="568" y="113" on="1"/>
        <pt x="549" y="0" on="1"/>
        <pt x="475" y="0" on="1"/>
        <pt x="456" y="113" on="1"/>
        <pt x="455" y="122" on="0"/>
        <pt x="442" y="136" on="0"/>
        <pt x="433" y="138" on="1"/>
        <pt x="410" y="144" on="0"/>
        <pt x="368" y="161" on="0"/>
        <pt x="349" y="173" on="1"/>
        <pt x="341" y="178" on="0"/>
        <pt x="322" y="177" on="0"/>
        <pt x="314" y="171" on="1"/>
        <pt x="221" y="105" on="1"/>
        <pt x="169" y="157" on="1"/>
        <pt x="235" y="250" on="1"/>
        <pt x="241" y="258" on="0"/>
        <pt x="242" y="277" on="0"/>
        <pt x="237" y="285" on="1"/>
        <pt x="225" y="304" on="0"/>
        <pt x="208" y="346" on="0"/>
        <pt x="202" y="369" on="1"/>
        <pt x="200" y="378" on="0"/>
        <pt x="186" y="391" on="0"/>
        <pt x="177" y="392" on="1"/>
        <pt x="64" y="411" on="1"/>
        <pt x="64" y="485" on="1"/>
        <pt x="177" y="504" on="1"/>
        <pt x="186" y="505" on="0"/>
        <pt x="200" y="518" on="0"/>
        <pt x="202" y="527" on="1"/>
        <pt x="208" y="550" on="0"/>
        <pt x="225" y="592" on="0"/>
        <pt x="237" y="611" on="1"/>
        <pt x="242" y="619" on="0"/>
        <pt x="241" y="638" on="0"/>
        <pt x="235" y="646" on="1"/>
        <pt x="169" y="739" on="1"/>
        <pt x="221" y="791" on="1"/>
        <pt x="314" y="725" on="1"/>
        <pt x="322" y="719" on="0"/>
        <pt x="341" y="718" on="0"/>
        <pt x="349" y="723" on="1"/>
        <pt x="368" y="735" on="0"/>
        <pt x="410" y="752" on="0"/>
        <pt x="433" y="758" on="1"/>
        <pt x="442" y="760" on="0"/>
        <pt x="455" y="774" on="0"/>
        <pt x="456" y="783" on="1"/>
      </contour>
      <contour>
        <pt x="384" y="448" on="1"/>
        <pt x="384" y="501" on="0"/>
        <pt x="459" y="576" on="0"/>
        <pt x="512" y="576" on="1"/>
        <pt x="565" y="576" on="0"/>
        <pt x="640" y="501" on="0"/>
        <pt x="640" y="448" on="1"/>
        <pt x="640" y="395" on="0"/>
        <pt x="565" y="320" on="0"/>
        <pt x="512" y="320" on="1"/>
        <pt x="459" y="320" on="0"/>
        <pt x="384" y="395" on="0"/>
      </contour>
      <contour>
        <pt x="512" y="640" on="1"/>
        <pt x="432" y="640" on="0"/>
        <pt x="320" y="528" on="0"/>
        <pt x="320" y="448" on="1"/>
        <pt x="320" y="368" on="0"/>
        <pt x="432" y="256" on="0"/>
        <pt x="512" y="256" on="1"/>
        <pt x="592" y="256" on="0"/>
        <pt x="704" y="368" on="0"/>
        <pt x="704" y="448" on="1"/>
        <pt x="704" y="528" on="0"/>
        <pt x="592" y="640" on="0"/>
      </contour>
    </TTGlyph>
    <TTGlyph name="uniE935" xMin="6" yMin="32" xMax="1024" yMax="832">
      <contour>
        <pt x="954" y="339" on="1"/>
        <pt x="925" y="354" on="0"/>
        <pt x="824" y="378" on="0"/>
        <pt x="762" y="378" on="1"/>
        <pt x="699" y="378" on="0"/>
        <pt x="598" y="354" on="0"/>
        <pt x="570" y="339" on="1"/>
        <pt x="560" y="334" on="0"/>
        <pt x="541" y="323" on="0"/>
        <pt x="531" y="314" on="1"/>
        <pt x="493" y="328" on="0"/>
        <pt x="403" y="346" on="0"/>
        <pt x="346" y="346" on="1"/>
        <pt x="264" y="346" on="0"/>
        <pt x="134" y="309" on="0"/>
        <pt x="96" y="294" on="1"/>
        <pt x="58" y="275" on="0"/>
        <pt x="6" y="197" on="0"/>
        <pt x="6" y="154" on="1"/>
        <pt x="6" y="32" on="1"/>
        <pt x="678" y="32" on="1"/>
        <pt x="678" y="154" on="1"/>
        <pt x="678" y="197" on="0"/>
        <pt x="634" y="269" on="0"/>
        <pt x="595" y="288" on="1"/>
        <pt x="624" y="298" on="0"/>
        <pt x="702" y="314" on="0"/>
        <pt x="755" y="314" on="1"/>
        <pt x="808" y="314" on="0"/>
        <pt x="898" y="291" on="0"/>
        <pt x="922" y="282" on="1"/>
        <pt x="941" y="272" on="0"/>
        <pt x="960" y="243" on="0"/>
        <pt x="960" y="224" on="1"/>
        <pt x="960" y="186" on="1"/>
        <pt x="768" y="186" on="1"/>
        <pt x="768" y="122" on="1"/>
        <pt x="1024" y="122" on="1"/>
        <pt x="1024" y="224" on="1"/>
        <pt x="1029" y="262" on="0"/>
        <pt x="987" y="325" on="0"/>
        <pt x="954" y="339" on="1"/>
      </contour>
      <contour>
        <pt x="614" y="90" on="1"/>
        <pt x="70" y="90" on="1"/>
        <pt x="70" y="147" on="1"/>
        <pt x="70" y="176" on="0"/>
        <pt x="98" y="221" on="0"/>
        <pt x="122" y="230" on="1"/>
        <pt x="155" y="245" on="0"/>
        <pt x="267" y="275" on="0"/>
        <pt x="339" y="275" on="1"/>
        <pt x="416" y="275" on="0"/>
        <pt x="523" y="245" on="0"/>
        <pt x="557" y="230" on="1"/>
        <pt x="581" y="221" on="0"/>
        <pt x="608" y="171" on="0"/>
        <pt x="608" y="147" on="1"/>
        <pt x="608" y="90" on="1"/>
      </contour>
      <contour>
        <pt x="333" y="416" on="1"/>
        <pt x="376" y="416" on="0"/>
        <pt x="414" y="433" on="1"/>
        <pt x="453" y="450" on="0"/>
        <pt x="510" y="507" on="0"/>
        <pt x="527" y="546" on="1"/>
        <pt x="544" y="584" on="0"/>
        <pt x="544" y="627" on="1"/>
        <pt x="544" y="670" on="0"/>
        <pt x="527" y="708" on="1"/>
        <pt x="510" y="745" on="0"/>
        <pt x="453" y="800" on="0"/>
        <pt x="414" y="816" on="1"/>
        <pt x="376" y="832" on="0"/>
        <pt x="333" y="832" on="1"/>
        <pt x="290" y="832" on="0"/>
        <pt x="252" y="815" on="1"/>
        <pt x="215" y="799" on="0"/>
        <pt x="160" y="742" on="0"/>
        <pt x="144" y="705" on="1"/>
        <pt x="128" y="668" on="0"/>
        <pt x="128" y="627" on="1"/>
        <pt x="128" y="586" on="0"/>
        <pt x="145" y="548" on="1"/>
        <pt x="161" y="510" on="0"/>
        <pt x="218" y="451" on="0"/>
        <pt x="255" y="434" on="1"/>
        <pt x="292" y="416" on="0"/>
      </contour>
      <contour>
        <pt x="333" y="768" on="1"/>
        <pt x="390" y="768" on="0"/>
        <pt x="474" y="685" on="0"/>
        <pt x="474" y="627" on="1"/>
        <pt x="474" y="570" on="0"/>
        <pt x="390" y="486" on="0"/>
        <pt x="333" y="486" on="1"/>
        <pt x="275" y="486" on="0"/>
        <pt x="192" y="565" on="0"/>
        <pt x="192" y="627" on="1"/>
        <pt x="192" y="690" on="0"/>
        <pt x="275" y="768" on="0"/>
      </contour>
      <contour>
        <pt x="768" y="448" on="1"/>
        <pt x="835" y="448" on="0"/>
        <pt x="928" y="541" on="0"/>
        <pt x="928" y="608" on="1"/>
        <pt x="928" y="675" on="0"/>
        <pt x="835" y="768" on="0"/>
        <pt x="768" y="768" on="1"/>
        <pt x="701" y="768" on="0"/>
        <pt x="608" y="675" on="0"/>
        <pt x="608" y="608" on="1"/>
        <pt x="608" y="541" on="0"/>
        <pt x="701" y="448" on="0"/>
      </contour>
      <contour>
        <pt x="768" y="704" on="1"/>
        <pt x="806" y="704" on="0"/>
        <pt x="864" y="646" on="0"/>
        <pt x="864" y="608" on="1"/>
        <pt x="864" y="570" on="0"/>
        <pt x="806" y="512" on="0"/>
        <pt x="768" y="512" on="1"/>
        <pt x="730" y="512" on="0"/>
        <pt x="672" y="570" on="0"/>
        <pt x="672" y="608" on="1"/>
        <pt x="672" y="646" on="0"/>
        <pt x="730" y="704" on="0"/>
      </contour>
    </TTGlyph>
    <TTGlyph name="uniE936" xMin="0" yMin="-64" xMax="1024" yMax="960">
      <contour>
        <pt x="195" y="765" on="1"/>
        <pt x="227" y="796" on="0"/>
        <pt x="263" y="821" on="1"/>
        <pt x="300" y="845" on="0"/>
        <pt x="381" y="879" on="0"/>
        <pt x="424" y="887" on="1"/>
        <pt x="467" y="896" on="0"/>
        <pt x="512" y="896" on="1"/>
        <pt x="557" y="896" on="0"/>
        <pt x="600" y="887" on="1"/>
        <pt x="643" y="879" on="0"/>
        <pt x="724" y="845" on="0"/>
        <pt x="761" y="821" on="1"/>
        <pt x="797" y="796" on="0"/>
        <pt x="829" y="765" on="1"/>
        <pt x="860" y="733" on="0"/>
        <pt x="885" y="697" on="1"/>
        <pt x="909" y="660" on="0"/>
        <pt x="943" y="579" on="0"/>
        <pt x="951" y="536" on="1"/>
        <pt x="960" y="493" on="0"/>
        <pt x="960" y="448" on="1"/>
        <pt x="960" y="160" on="1"/>
        <pt x="960" y="128" on="0"/>
        <pt x="936" y="69" on="0"/>
        <pt x="913" y="47" on="1"/>
        <pt x="891" y="24" on="0"/>
        <pt x="832" y="0" on="0"/>
        <pt x="800" y="0" on="1"/>
        <pt x="704" y="0" on="1"/>
        <pt x="704" y="320" on="1"/>
        <pt x="864" y="320" on="1"/>
        <pt x="877" y="320" on="0"/>
        <pt x="896" y="339" on="0"/>
        <pt x="896" y="352" on="1"/>
        <pt x="896" y="365" on="0"/>
        <pt x="877" y="384" on="0"/>
        <pt x="864" y="384" on="1"/>
        <pt x="672" y="384" on="1"/>
        <pt x="659" y="384" on="0"/>
        <pt x="640" y="365" on="0"/>
        <pt x="640" y="352" on="1"/>
        <pt x="640" y="-32" on="1"/>
        <pt x="640" y="-45" on="0"/>
        <pt x="659" y="-64" on="0"/>
        <pt x="672" y="-64" on="1"/>
        <pt x="800" y="-64" on="1"/>
        <pt x="845" y="-64" on="0"/>
        <pt x="927" y="-30" on="0"/>
        <pt x="958" y="2" on="1"/>
        <pt x="990" y="33" on="0"/>
        <pt x="1024" y="115" on="0"/>
        <pt x="1024" y="160" on="1"/>
        <pt x="1024" y="448" on="1"/>
        <pt x="1024" y="499" on="0"/>
        <pt x="1014" y="548" on="1"/>
        <pt x="1004" y="598" on="0"/>
        <pt x="966" y="690" on="0"/>
        <pt x="938" y="732" on="1"/>
        <pt x="910" y="774" on="0"/>
        <pt x="874" y="810" on="1"/>
        <pt x="838" y="846" on="0"/>
        <pt x="796" y="874" on="1"/>
        <pt x="754" y="902" on="0"/>
        <pt x="662" y="940" on="0"/>
        <pt x="612" y="950" on="1"/>
        <pt x="563" y="960" on="0"/>
        <pt x="512" y="960" on="1"/>
        <pt x="461" y="960" on="0"/>
        <pt x="412" y="950" on="1"/>
        <pt x="362" y="940" on="0"/>
        <pt x="270" y="902" on="0"/>
        <pt x="228" y="874" on="1"/>
        <pt x="186" y="846" on="0"/>
        <pt x="150" y="810" on="1"/>
        <pt x="114" y="774" on="0"/>
        <pt x="86" y="732" on="1"/>
        <pt x="58" y="690" on="0"/>
        <pt x="20" y="598" on="0"/>
        <pt x="10" y="548" on="1"/>
        <pt x="0" y="499" on="0"/>
        <pt x="0" y="448" on="1"/>
        <pt x="0" y="160" on="1"/>
        <pt x="0" y="115" on="0"/>
        <pt x="34" y="33" on="0"/>
        <pt x="66" y="2" on="1"/>
        <pt x="97" y="-30" on="0"/>
        <pt x="179" y="-64" on="0"/>
        <pt x="224" y="-64" on="1"/>
        <pt x="352" y="-64" on="1"/>
        <pt x="365" y="-64" on="0"/>
        <pt x="384" y="-45" on="0"/>
        <pt x="384" y="-32" on="1"/>
        <pt x="384" y="352" on="1"/>
        <pt x="384" y="365" on="0"/>
        <pt x="365" y="384" on="0"/>
        <pt x="352" y="384" on="1"/>
        <pt x="160" y="384" on="1"/>
        <pt x="147" y="384" on="0"/>
        <pt x="128" y="365" on="0"/>
        <pt x="128" y="352" on="1"/>
        <pt x="128" y="339" on="0"/>
        <pt x="147" y="320" on="0"/>
        <pt x="160" y="320" on="1"/>
        <pt x="320" y="320" on="1"/>
        <pt x="320" y="0" on="1"/>
        <pt x="224" y="0" on="1"/>
        <pt x="192" y="0" on="0"/>
        <pt x="133" y="24" on="0"/>
        <pt x="111" y="47" on="1"/>
        <pt x="88" y="69" on="0"/>
        <pt x="64" y="128" on="0"/>
        <pt x="64" y="160" on="1"/>
        <pt x="64" y="448" on="1"/>
        <pt x="64" y="493" on="0"/>
        <pt x="73" y="536" on="1"/>
        <pt x="81" y="579" on="0"/>
        <pt x="115" y="660" on="0"/>
        <pt x="139" y="697" on="1"/>
        <pt x="164" y="733" on="0"/>
      </contour>
    </TTGlyph>
    <TTGlyph name="uniE937" xMin="0" yMin="64" xMax="1024" yMax="832">
      <contour>
        <pt x="137" y="759" on="1"/>
        <pt x="142" y="763" on="0"/>
        <pt x="154" y="768" on="0"/>
        <pt x="160" y="768" on="1"/>
        <pt x="864" y="768" on="1"/>
        <pt x="870" y="768" on="0"/>
        <pt x="882" y="763" on="0"/>
        <pt x="887" y="759" on="1"/>
        <pt x="891" y="754" on="0"/>
        <pt x="896" y="742" on="0"/>
        <pt x="896" y="736" on="1"/>
        <pt x="896" y="352" on="1"/>
        <pt x="896" y="339" on="0"/>
        <pt x="915" y="320" on="0"/>
        <pt x="928" y="320" on="1"/>
        <pt x="941" y="320" on="0"/>
        <pt x="960" y="339" on="0"/>
        <pt x="960" y="352" on="1"/>
        <pt x="960" y="736" on="1"/>
        <pt x="960" y="755" on="0"/>
        <pt x="945" y="790" on="0"/>
        <pt x="932" y="804" on="1"/>
        <pt x="918" y="817" on="0"/>
        <pt x="883" y="832" on="0"/>
        <pt x="864" y="832" on="1"/>
        <pt x="160" y="832" on="1"/>
        <pt x="141" y="832" on="0"/>
        <pt x="106" y="817" on="0"/>
        <pt x="92" y="804" on="1"/>
        <pt x="79" y="790" on="0"/>
        <pt x="64" y="755" on="0"/>
        <pt x="64" y="736" on="1"/>
        <pt x="64" y="352" on="1"/>
        <pt x="64" y="339" on="0"/>
        <pt x="83" y="320" on="0"/>
        <pt x="96" y="320" on="1"/>
        <pt x="109" y="320" on="0"/>
        <pt x="128" y="339" on="0"/>
        <pt x="128" y="352" on="1"/>
        <pt x="128" y="736" on="1"/>
        <pt x="128" y="742" on="0"/>
        <pt x="133" y="754" on="0"/>
      </contour>
      <contour>
        <pt x="32" y="256" on="1"/>
        <pt x="26" y="256" on="0"/>
        <pt x="14" y="251" on="0"/>
        <pt x="9" y="247" on="1"/>
        <pt x="5" y="242" on="0"/>
        <pt x="0" y="230" on="0"/>
        <pt x="0" y="224" on="1"/>
        <pt x="0" y="192" on="0"/>
        <pt x="24" y="133" on="0"/>
        <pt x="47" y="111" on="1"/>
        <pt x="69" y="88" on="0"/>
        <pt x="128" y="64" on="0"/>
        <pt x="160" y="64" on="1"/>
        <pt x="864" y="64" on="1"/>
        <pt x="896" y="64" on="0"/>
        <pt x="955" y="88" on="0"/>
        <pt x="977" y="111" on="1"/>
        <pt x="1000" y="133" on="0"/>
        <pt x="1024" y="192" on="0"/>
        <pt x="1024" y="224" on="1"/>
        <pt x="1024" y="237" on="0"/>
        <pt x="1005" y="256" on="0"/>
        <pt x="992" y="256" on="1"/>
      </contour>
      <contour>
        <pt x="92" y="156" on="1"/>
        <pt x="84" y="164" on="0"/>
        <pt x="73" y="182" on="0"/>
        <pt x="69" y="192" on="1"/>
        <pt x="955" y="192" on="1"/>
        <pt x="951" y="182" on="0"/>
        <pt x="940" y="164" on="0"/>
        <pt x="932" y="156" on="1"/>
        <pt x="918" y="143" on="0"/>
        <pt x="883" y="128" on="0"/>
        <pt x="864" y="128" on="1"/>
        <pt x="160" y="128" on="1"/>
        <pt x="141" y="128" on="0"/>
        <pt x="106" y="143" on="0"/>
      </contour>
    </TTGlyph>
    <TTGlyph name="uniE938" xMin="0" yMin="0" xMax="1024" yMax="896">
      <contour>
        <pt x="64" y="800" on="1"/>
        <pt x="64" y="814" on="0"/>
        <pt x="82" y="832" on="0"/>
        <pt x="96" y="832" on="1"/>
        <pt x="928" y="832" on="1"/>
        <pt x="942" y="832" on="0"/>
        <pt x="960" y="814" on="0"/>
        <pt x="960" y="800" on="1"/>
        <pt x="960" y="659" on="1"/>
        <pt x="512" y="422" on="1"/>
        <pt x="64" y="659" on="1"/>
      </contour>
      <contour>
        <pt x="0" y="640" on="1"/>
        <pt x="0" y="640" on="0"/>
        <pt x="0" y="640" on="0"/>
        <pt x="0" y="640" on="1"/>
        <pt x="0" y="96" on="1"/>
        <pt x="0" y="58" on="0"/>
        <pt x="58" y="0" on="0"/>
        <pt x="96" y="0" on="1"/>
        <pt x="928" y="0" on="1"/>
        <pt x="966" y="0" on="0"/>
        <pt x="1024" y="58" on="0"/>
        <pt x="1024" y="96" on="1"/>
        <pt x="1024" y="640" on="1"/>
        <pt x="1024" y="640" on="0"/>
        <pt x="1024" y="640" on="0"/>
        <pt x="1024" y="640" on="1"/>
        <pt x="1024" y="800" on="1"/>
        <pt x="1024" y="838" on="0"/>
        <pt x="966" y="896" on="0"/>
        <pt x="928" y="896" on="1"/>
        <pt x="96" y="896" on="1"/>
        <pt x="58" y="896" on="0"/>
        <pt x="0" y="838" on="0"/>
        <pt x="0" y="800" on="1"/>
      </contour>
      <contour>
        <pt x="960" y="589" on="1"/>
        <pt x="960" y="96" on="1"/>
        <pt x="960" y="82" on="0"/>
        <pt x="942" y="64" on="0"/>
        <pt x="928" y="64" on="1"/>
        <pt x="96" y="64" on="1"/>
        <pt x="82" y="64" on="0"/>
        <pt x="64" y="82" on="0"/>
        <pt x="64" y="96" on="1"/>
        <pt x="64" y="589" on="1"/>
        <pt x="499" y="358" on="1"/>
        <pt x="504" y="354" on="0"/>
        <pt x="522" y="354" on="0"/>
        <pt x="531" y="358" on="1"/>
      </contour>
    </TTGlyph>
    <TTGlyph name="uniE939" xMin="64" yMin="-6" xMax="954" yMax="922">
      <contour>
        <pt x="243" y="858" on="1"/>
        <pt x="258" y="858" on="0"/>
        <pt x="277" y="843" on="0"/>
        <pt x="282" y="838" on="1"/>
        <pt x="296" y="819" on="0"/>
        <pt x="371" y="699" on="0"/>
        <pt x="371" y="666" on="1"/>
        <pt x="371" y="632" on="0"/>
        <pt x="342" y="589" on="0"/>
        <pt x="314" y="570" on="1"/>
        <pt x="314" y="570" on="0"/>
        <pt x="354" y="466" on="0"/>
        <pt x="435" y="384" on="1"/>
        <pt x="507" y="302" on="0"/>
        <pt x="621" y="256" on="0"/>
        <pt x="621" y="256" on="1"/>
        <pt x="621" y="256" on="0"/>
        <pt x="653" y="309" on="0"/>
        <pt x="691" y="314" on="1"/>
        <pt x="696" y="314" on="0"/>
        <pt x="706" y="314" on="0"/>
        <pt x="710" y="314" on="1"/>
        <pt x="744" y="314" on="0"/>
        <pt x="822" y="270" on="0"/>
        <pt x="890" y="218" on="1"/>
        <pt x="914" y="198" on="0"/>
        <pt x="859" y="72" on="0"/>
        <pt x="787" y="58" on="1"/>
        <pt x="782" y="58" on="0"/>
        <pt x="773" y="58" on="0"/>
        <pt x="768" y="58" on="1"/>
        <pt x="730" y="58" on="0"/>
        <pt x="680" y="75" on="1"/>
        <pt x="630" y="92" on="0"/>
        <pt x="522" y="153" on="0"/>
        <pt x="467" y="195" on="1"/>
        <pt x="413" y="238" on="0"/>
        <pt x="365" y="288" on="1"/>
        <pt x="319" y="334" on="0"/>
        <pt x="280" y="381" on="1"/>
        <pt x="241" y="429" on="0"/>
        <pt x="180" y="529" on="0"/>
        <pt x="159" y="580" on="1"/>
        <pt x="138" y="632" on="0"/>
        <pt x="128" y="685" on="1"/>
        <pt x="109" y="790" on="0"/>
        <pt x="216" y="846" on="0"/>
        <pt x="230" y="851" on="1"/>
        <pt x="235" y="856" on="0"/>
        <pt x="238" y="858" on="0"/>
        <pt x="243" y="858" on="1"/>
      </contour>
      <contour>
        <pt x="243" y="922" on="1"/>
        <pt x="238" y="922" on="0"/>
        <pt x="222" y="920" on="0"/>
        <pt x="218" y="915" on="1"/>
        <pt x="126" y="891" on="0"/>
        <pt x="45" y="763" on="0"/>
        <pt x="64" y="672" on="1"/>
        <pt x="74" y="622" on="0"/>
        <pt x="94" y="570" on="1"/>
        <pt x="114" y="518" on="0"/>
        <pt x="177" y="411" on="0"/>
        <pt x="219" y="356" on="1"/>
        <pt x="261" y="301" on="0"/>
        <pt x="314" y="243" on="1"/>
        <pt x="364" y="190" on="0"/>
        <pt x="423" y="145" on="1"/>
        <pt x="482" y="99" on="0"/>
        <pt x="602" y="32" on="0"/>
        <pt x="659" y="13" on="1"/>
        <pt x="716" y="-6" on="0"/>
        <pt x="762" y="-6" on="1"/>
        <pt x="771" y="-6" on="0"/>
        <pt x="782" y="-6" on="0"/>
        <pt x="787" y="-6" on="1"/>
        <pt x="854" y="3" on="0"/>
        <pt x="939" y="94" on="0"/>
        <pt x="954" y="147" on="1"/>
        <pt x="963" y="186" on="0"/>
        <pt x="946" y="250" on="0"/>
        <pt x="922" y="269" on="1"/>
        <pt x="850" y="326" on="0"/>
        <pt x="752" y="378" on="0"/>
        <pt x="704" y="378" on="1"/>
        <pt x="694" y="378" on="0"/>
        <pt x="682" y="378" on="0"/>
        <pt x="672" y="378" on="1"/>
        <pt x="643" y="373" on="0"/>
        <pt x="603" y="347" on="0"/>
        <pt x="589" y="333" on="1"/>
        <pt x="574" y="342" on="0"/>
        <pt x="514" y="384" on="0"/>
        <pt x="480" y="422" on="1"/>
        <pt x="442" y="461" on="0"/>
        <pt x="400" y="525" on="0"/>
        <pt x="390" y="544" on="1"/>
        <pt x="410" y="563" on="0"/>
        <pt x="440" y="622" on="0"/>
        <pt x="435" y="666" on="1"/>
        <pt x="435" y="709" on="0"/>
        <pt x="366" y="829" on="0"/>
        <pt x="333" y="877" on="1"/>
        <pt x="323" y="891" on="0"/>
        <pt x="277" y="922" on="0"/>
        <pt x="243" y="922" on="1"/>
        <pt x="243" y="922" on="1"/>
      </contour>
    </TTGlyph>
    <TTGlyph name="uniE93A" xMin="64" yMin="-64" xMax="1024" yMax="960">
      <contour>
        <pt x="457" y="887" on="1"/>
        <pt x="462" y="891" on="0"/>
        <pt x="474" y="896" on="0"/>
        <pt x="480" y="896" on="1"/>
        <pt x="928" y="896" on="1"/>
        <pt x="934" y="896" on="0"/>
        <pt x="946" y="891" on="0"/>
        <pt x="951" y="887" on="1"/>
        <pt x="955" y="882" on="0"/>
        <pt x="960" y="870" on="0"/>
        <pt x="960" y="864" on="1"/>
        <pt x="960" y="608" on="1"/>
        <pt x="960" y="602" on="0"/>
        <pt x="955" y="590" on="0"/>
        <pt x="951" y="585" on="1"/>
        <pt x="946" y="581" on="0"/>
        <pt x="934" y="576" on="0"/>
        <pt x="928" y="576" on="1"/>
        <pt x="608" y="576" on="1"/>
        <pt x="603" y="576" on="0"/>
        <pt x="594" y="573" on="0"/>
        <pt x="590" y="571" on="1"/>
        <pt x="448" y="476" on="1"/>
        <pt x="448" y="864" on="1"/>
        <pt x="448" y="870" on="0"/>
        <pt x="453" y="882" on="0"/>
      </contour>
      <contour>
        <pt x="480" y="960" on="1"/>
        <pt x="461" y="960" on="0"/>
        <pt x="426" y="945" on="0"/>
        <pt x="412" y="932" on="1"/>
        <pt x="399" y="918" on="0"/>
        <pt x="384" y="883" on="0"/>
        <pt x="384" y="864" on="1"/>
        <pt x="384" y="416" on="1"/>
        <pt x="384" y="407" on="0"/>
        <pt x="393" y="392" on="0"/>
        <pt x="401" y="388" on="1"/>
        <pt x="409" y="384" on="0"/>
        <pt x="426" y="384" on="0"/>
        <pt x="434" y="389" on="1"/>
        <pt x="618" y="512" on="1"/>
        <pt x="928" y="512" on="1"/>
        <pt x="947" y="512" on="0"/>
        <pt x="982" y="527" on="0"/>
        <pt x="996" y="540" on="1"/>
        <pt x="1009" y="554" on="0"/>
        <pt x="1024" y="589" on="0"/>
        <pt x="1024" y="608" on="1"/>
        <pt x="1024" y="864" on="1"/>
        <pt x="1024" y="883" on="0"/>
        <pt x="1009" y="918" on="0"/>
        <pt x="996" y="932" on="1"/>
        <pt x="982" y="945" on="0"/>
        <pt x="947" y="960" on="0"/>
        <pt x="928" y="960" on="1"/>
      </contour>
      <contour>
        <pt x="137" y="823" on="1"/>
        <pt x="142" y="827" on="0"/>
        <pt x="154" y="832" on="0"/>
        <pt x="160" y="832" on="1"/>
        <pt x="288" y="832" on="1"/>
        <pt x="301" y="832" on="0"/>
        <pt x="320" y="851" on="0"/>
        <pt x="320" y="864" on="1"/>
        <pt x="320" y="877" on="0"/>
        <pt x="301" y="896" on="0"/>
        <pt x="288" y="896" on="1"/>
        <pt x="160" y="896" on="1"/>
        <pt x="141" y="896" on="0"/>
        <pt x="106" y="881" on="0"/>
        <pt x="92" y="868" on="1"/>
        <pt x="79" y="854" on="0"/>
        <pt x="64" y="819" on="0"/>
        <pt x="64" y="800" on="1"/>
        <pt x="64" y="32" on="1"/>
        <pt x="64" y="13" on="0"/>
        <pt x="79" y="-22" on="0"/>
        <pt x="92" y="-36" on="1"/>
        <pt x="106" y="-49" on="0"/>
        <pt x="141" y="-64" on="0"/>
        <pt x="160" y="-64" on="1"/>
        <pt x="672" y="-64" on="1"/>
        <pt x="691" y="-64" on="0"/>
        <pt x="726" y="-49" on="0"/>
        <pt x="740" y="-36" on="1"/>
        <pt x="753" y="-22" on="0"/>
        <pt x="768" y="13" on="0"/>
        <pt x="768" y="32" on="1"/>
        <pt x="768" y="416" on="1"/>
        <pt x="768" y="429" on="0"/>
        <pt x="749" y="448" on="0"/>
        <pt x="736" y="448" on="1"/>
        <pt x="723" y="448" on="0"/>
        <pt x="704" y="429" on="0"/>
        <pt x="704" y="416" on="1"/>
        <pt x="704" y="32" on="1"/>
        <pt x="704" y="26" on="0"/>
        <pt x="699" y="14" on="0"/>
        <pt x="695" y="9" on="1"/>
        <pt x="690" y="5" on="0"/>
        <pt x="678" y="0" on="0"/>
        <pt x="672" y="0" on="1"/>
        <pt x="160" y="0" on="1"/>
        <pt x="154" y="0" on="0"/>
        <pt x="142" y="5" on="0"/>
        <pt x="137" y="9" on="1"/>
        <pt x="133" y="14" on="0"/>
        <pt x="128" y="26" on="0"/>
        <pt x="128" y="32" on="1"/>
        <pt x="128" y="800" on="1"/>
        <pt x="128" y="806" on="0"/>
        <pt x="133" y="818" on="0"/>
      </contour>
    </TTGlyph>
    <TTGlyph name="uniE93B" xMin="96" yMin="-53" xMax="928" yMax="949">
      <contour>
        <pt x="331" y="704" on="1"/>
        <pt x="331" y="779" on="0"/>
        <pt x="437" y="885" on="0"/>
        <pt x="512" y="885" on="1"/>
        <pt x="587" y="885" on="0"/>
        <pt x="693" y="779" on="0"/>
        <pt x="693" y="704" on="1"/>
        <pt x="693" y="629" on="0"/>
        <pt x="587" y="523" on="0"/>
        <pt x="512" y="523" on="1"/>
        <pt x="437" y="523" on="0"/>
        <pt x="331" y="629" on="0"/>
      </contour>
      <contour>
        <pt x="512" y="949" on="1"/>
        <pt x="461" y="949" on="0"/>
        <pt x="416" y="930" on="1"/>
        <pt x="372" y="911" on="0"/>
        <pt x="305" y="844" on="0"/>
        <pt x="286" y="800" on="1"/>
        <pt x="267" y="755" on="0"/>
        <pt x="267" y="704" on="1"/>
        <pt x="267" y="653" on="0"/>
        <pt x="286" y="609" on="1"/>
        <pt x="305" y="564" on="0"/>
        <pt x="372" y="497" on="0"/>
        <pt x="416" y="478" on="1"/>
        <pt x="461" y="459" on="0"/>
        <pt x="512" y="459" on="1"/>
        <pt x="563" y="459" on="0"/>
        <pt x="607" y="478" on="1"/>
        <pt x="652" y="497" on="0"/>
        <pt x="719" y="564" on="0"/>
        <pt x="738" y="609" on="1"/>
        <pt x="757" y="653" on="0"/>
        <pt x="757" y="704" on="1"/>
        <pt x="757" y="755" on="0"/>
        <pt x="738" y="800" on="1"/>
        <pt x="719" y="844" on="0"/>
        <pt x="652" y="911" on="0"/>
        <pt x="607" y="930" on="1"/>
        <pt x="563" y="949" on="0"/>
      </contour>
      <contour>
        <pt x="512" y="352" on="1"/>
        <pt x="461" y="352" on="0"/>
        <pt x="416" y="344" on="1"/>
        <pt x="371" y="337" on="0"/>
        <pt x="293" y="310" on="0"/>
        <pt x="261" y="292" on="1"/>
        <pt x="229" y="274" on="0"/>
        <pt x="202" y="252" on="1"/>
        <pt x="151" y="210" on="0"/>
        <pt x="96" y="109" on="0"/>
        <pt x="96" y="64" on="1"/>
        <pt x="96" y="-21" on="1"/>
        <pt x="96" y="-35" on="0"/>
        <pt x="115" y="-53" on="0"/>
        <pt x="128" y="-53" on="1"/>
        <pt x="896" y="-53" on="1"/>
        <pt x="909" y="-53" on="0"/>
        <pt x="928" y="-35" on="0"/>
        <pt x="928" y="-21" on="1"/>
        <pt x="928" y="64" on="1"/>
        <pt x="928" y="109" on="0"/>
        <pt x="873" y="210" on="0"/>
        <pt x="822" y="252" on="1"/>
        <pt x="795" y="273" on="0"/>
        <pt x="763" y="292" on="1"/>
        <pt x="731" y="310" on="0"/>
        <pt x="653" y="337" on="0"/>
        <pt x="608" y="344" on="1"/>
        <pt x="563" y="352" on="0"/>
      </contour>
      <contour>
        <pt x="160" y="64" on="1"/>
        <pt x="160" y="90" on="0"/>
        <pt x="199" y="166" on="0"/>
        <pt x="243" y="203" on="1"/>
        <pt x="286" y="238" on="0"/>
        <pt x="420" y="288" on="0"/>
        <pt x="512" y="288" on="1"/>
        <pt x="604" y="288" on="0"/>
        <pt x="738" y="238" on="0"/>
        <pt x="781" y="202" on="1"/>
        <pt x="825" y="166" on="0"/>
        <pt x="864" y="90" on="0"/>
        <pt x="864" y="64" on="1"/>
        <pt x="864" y="11" on="1"/>
        <pt x="160" y="11" on="1"/>
      </contour>
    </TTGlyph>
</ttFont>
